{"glyphs":{"0":{"ha":508,"x_min":38,"x_max":481,"o":"m 160 799 q 247 871 203 871 q 307 819 290 871 l 304 801 l 304 799 q 481 374 481 685 q 299 -40 481 63 l 251 -49 q 56 117 108 -49 q 38 260 38 190 l 38 278 q 107 676 38 422 q 64 724 74 676 q 160 799 64 750 m 121 286 l 121 251 q 243 35 121 35 l 246 35 q 394 307 360 35 l 399 390 q 269 721 389 667 l 243 724 l 221 724 q 142 489 188 690 q 121 286 121 378 z "},"1":{"ha":215,"x_min":50,"x_max":146,"o":"m 50 672 q 100 707 58 707 q 142 529 142 707 l 146 454 l 133 17 q 90 -26 124 -26 q 50 17 50 -11 l 64 446 l 50 672 z "},"2":{"ha":499,"x_min":35,"x_max":454,"o":"m 260 750 q 385 599 367 750 q 165 56 385 458 l 165 47 q 408 147 222 47 l 411 147 q 454 107 439 147 q 72 -67 454 36 q 35 -26 50 -67 q 246 390 89 97 q 299 582 299 532 l 299 625 q 269 668 299 653 l 251 668 q 147 538 197 668 l 151 521 q 113 478 151 494 q 61 529 61 488 q 182 724 61 608 q 260 750 217 750 z "},"3":{"ha":479,"x_min":26,"x_max":438,"o":"m 221 743 q 329 631 308 743 q 299 514 319 563 l 299 508 q 433 383 388 508 l 438 332 q 251 -29 424 164 q 139 -82 174 -82 q 26 -4 26 -53 q 56 31 32 15 l 82 31 q 131 6 114 6 l 133 6 q 350 292 242 6 l 356 332 l 356 340 q 294 426 356 426 q 200 367 229 426 q 107 288 139 297 q 64 326 89 288 q 190 488 64 382 q 246 635 246 585 q 221 665 238 660 q 96 508 161 665 l 64 500 q 26 535 26 508 q 221 743 93 743 z "},"4":{"ha":694,"x_min":47,"x_max":660,"o":"m 464 926 q 503 896 481 926 l 503 883 q 481 849 503 863 q 438 328 438 811 l 438 271 l 454 271 q 611 349 525 271 l 617 349 q 660 306 660 339 q 542 207 624 238 q 451 189 493 189 l 443 189 l 451 -289 q 411 -332 451 -317 q 368 -285 374 -332 l 360 197 q 168 250 186 250 l 151 250 q 117 201 138 242 l 90 183 q 47 236 47 200 q 107 363 47 251 q 176 658 176 574 l 176 710 q 147 783 176 729 q 190 826 157 826 q 264 679 264 794 q 186 332 264 599 l 356 285 l 356 297 q 429 910 356 910 q 464 926 429 918 z "},"5":{"ha":517,"x_min":0,"x_max":468,"o":"m 304 619 l 313 619 q 403 572 403 619 q 374 533 399 553 l 307 538 l 299 538 q 90 499 232 538 l 113 333 l 121 333 q 313 419 239 419 q 468 246 443 419 l 468 238 q 269 13 468 90 l 200 0 q 90 51 90 13 q 139 96 107 96 l 186 82 l 221 82 q 374 186 306 82 q 385 229 385 211 l 385 256 q 307 339 375 339 l 304 339 q 99 190 218 339 l 90 190 q 35 333 35 190 l 0 542 q 113 585 0 585 q 304 619 243 619 z "},"6":{"ha":499,"x_min":54,"x_max":453,"o":"m 193 653 q 232 610 232 639 l 175 517 q 138 265 138 397 l 138 214 l 149 214 q 319 318 231 318 q 453 188 453 297 l 453 179 q 293 -60 453 40 l 228 -68 q 54 218 79 -68 l 54 274 q 149 626 54 499 q 193 653 175 653 m 172 63 l 172 57 q 232 14 193 14 l 242 14 q 371 175 329 14 l 371 188 q 319 236 371 232 q 172 63 218 236 z "},"7":{"ha":611,"x_min":24,"x_max":563,"o":"m 515 840 l 524 840 q 563 797 563 826 q 481 669 556 767 q 342 54 432 583 l 307 -124 l 276 -146 q 232 -106 232 -131 q 363 589 232 -43 l 360 589 q 160 531 228 533 q 24 610 24 550 q 93 653 24 646 l 146 614 l 160 614 q 438 753 294 614 q 515 840 446 788 z "},"8":{"ha":479,"x_min":31,"x_max":447,"o":"m 401 739 q 447 682 440 739 q 265 322 447 604 q 343 249 265 314 q 404 92 404 175 q 236 -119 404 -43 l 214 -119 q 92 22 114 -119 l 92 40 q 158 300 92 117 q 31 500 31 404 l 31 506 q 204 704 31 639 l 249 708 q 340 665 301 708 l 340 653 q 300 610 340 625 q 244 626 263 626 l 236 626 q 114 508 114 596 l 114 496 q 201 375 114 429 q 367 674 367 624 l 357 682 l 357 700 q 401 739 357 735 m 231 239 l 228 239 q 175 36 175 117 l 175 14 q 204 -39 175 -22 l 214 -39 q 318 65 275 -39 l 322 89 l 322 110 q 231 239 322 172 z "},"9":{"ha":569,"x_min":28,"x_max":544,"o":"m 510 771 q 544 731 538 771 l 544 722 q 488 519 544 699 q 440 85 440 296 q 453 -106 440 -15 q 410 -146 438 -146 q 357 68 357 -146 l 357 93 q 375 363 357 200 q 311 293 368 363 q 140 193 203 193 q 28 301 67 193 l 28 332 q 263 675 28 486 q 418 744 369 744 l 440 739 l 467 739 q 510 771 467 765 m 111 346 l 111 314 q 132 279 111 292 l 146 279 q 424 610 251 279 q 436 653 436 633 l 436 658 l 415 658 q 146 436 308 658 q 111 346 111 371 z "}," ":{"ha":524,"x_min":0,"x_max":0,"o":""},"!":{"ha":176,"x_min":19,"x_max":161,"o":"m 63 943 q 100 899 100 928 q 132 329 111 504 q 92 294 118 294 q 40 460 40 294 q 19 903 28 521 q 63 943 19 938 m 71 -12 q 116 31 83 31 q 161 -12 149 31 q 118 -53 146 -53 l 114 -53 q 71 -12 86 -53 z "},"\"":{"ha":325,"x_min":31,"x_max":292,"o":"m 140 840 l 144 840 q 188 800 172 840 q 132 728 188 785 q 114 653 114 686 l 114 624 q 140 544 114 601 q 97 501 140 515 q 31 635 44 501 l 31 640 q 140 840 31 772 m 253 765 l 257 765 q 292 722 286 765 q 236 667 292 701 l 228 632 l 228 624 l 239 571 q 196 528 239 546 q 144 626 144 544 q 253 765 144 725 z "},"#":{"ha":776,"x_min":113,"x_max":721,"o":"m 460 604 q 524 426 504 604 l 538 422 l 585 431 q 625 383 617 431 q 538 335 625 356 l 538 308 l 542 306 l 542 300 l 681 322 q 721 279 703 322 q 585 228 721 236 q 547 214 547 224 q 576 14 558 92 q 533 -21 563 -21 q 468 188 485 -21 q 460 204 468 204 q 390 169 390 204 l 390 83 q 347 36 390 36 q 307 83 307 36 l 307 175 l 304 175 q 151 124 253 175 l 142 124 q 113 161 113 133 q 313 263 113 222 l 313 279 l 225 271 q 133 318 133 271 l 133 326 q 165 357 133 338 l 225 353 q 315 367 289 353 q 294 557 313 461 q 342 592 308 592 q 394 392 394 592 l 394 383 l 446 396 l 417 578 q 460 604 431 604 m 446 308 l 394 297 l 394 279 l 399 279 l 454 288 l 454 308 l 446 308 z "},"$":{"ha":644,"x_min":1,"x_max":597,"o":"m 319 1278 q 357 1231 347 1278 l 354 1022 l 354 992 l 349 939 l 354 939 l 440 947 q 575 878 535 947 l 583 857 q 536 818 583 826 q 488 857 522 818 l 453 867 l 440 867 q 346 832 346 867 l 328 424 q 597 172 597 300 q 383 -103 597 40 q 293 -146 293 -139 l 288 -453 l 288 -487 q 242 -554 288 -554 q 207 -511 208 -554 l 201 -511 l 207 -442 l 210 -124 q 93 103 93 -64 q 146 218 93 218 l 149 218 q 181 183 181 203 l 175 97 q 215 -25 175 11 l 218 -25 l 242 371 q 1 632 1 486 q 267 913 1 789 l 271 1065 l 271 1208 q 319 1278 271 1278 m 85 644 l 85 624 q 244 461 85 538 l 263 818 q 85 644 85 739 m 322 332 l 319 332 l 301 -50 l 306 -50 q 506 124 428 3 l 510 154 l 510 175 q 322 332 510 256 z "},"%":{"ha":660,"x_min":31,"x_max":613,"o":"m 506 894 q 543 850 543 881 q 383 474 422 719 q 236 -117 236 -1 l 231 -122 q 179 -165 231 -165 q 149 -131 149 -151 q 306 500 149 -17 q 413 815 360 731 q 506 894 471 894 m 214 760 q 308 625 294 760 l 308 613 q 175 369 308 425 l 140 364 q 36 474 58 364 l 31 503 l 31 517 q 167 751 31 660 q 214 760 183 760 m 114 538 l 114 492 q 135 447 114 458 l 158 447 q 228 590 228 501 l 228 639 q 210 676 228 672 l 204 676 q 114 538 114 610 m 551 399 q 613 243 600 399 l 613 208 q 526 22 596 22 l 508 17 q 369 204 390 17 q 457 374 369 328 l 479 378 l 514 374 q 551 399 528 399 m 453 200 q 506 100 458 100 q 531 204 531 128 l 531 239 l 522 313 l 514 313 q 453 200 453 297 z "},"&":{"ha":528,"x_min":38,"x_max":485,"o":"m 154 993 l 176 999 q 281 894 228 999 l 293 819 q 203 433 293 733 l 203 429 q 325 125 208 353 l 328 121 l 342 113 q 385 315 385 215 l 385 390 q 301 521 385 486 l 293 550 q 328 590 293 572 q 450 478 389 590 q 472 347 465 422 q 403 35 472 235 q 481 -26 403 24 l 485 -40 q 438 -83 472 -83 q 360 -43 425 -83 q 163 -161 260 -161 q 50 -67 90 -161 q 38 21 38 -36 l 38 29 q 111 425 38 158 l 111 429 q 58 785 58 676 q 154 993 75 993 m 168 911 q 142 788 142 875 q 160 603 142 701 l 163 603 q 207 793 207 689 l 207 846 q 168 911 196 911 m 163 272 l 160 272 q 119 38 119 156 l 119 3 q 151 -75 119 -56 l 172 -75 q 299 21 250 -75 q 168 269 218 139 l 163 272 z "},"'":{"ha":200,"x_min":44,"x_max":144,"o":"m 89 822 q 144 718 132 822 l 144 710 q 101 663 144 663 q 57 753 57 663 q 44 785 47 753 q 89 822 58 822 z "},"(":{"ha":399,"x_min":61,"x_max":382,"o":"m 281 954 q 321 908 313 954 q 142 369 142 700 l 142 361 q 321 -53 142 36 q 382 -104 382 -68 q 342 -143 382 -126 q 156 -12 221 -110 q 61 339 61 135 l 61 369 q 229 919 61 693 q 281 954 264 954 z "},")":{"ha":335,"x_min":61,"x_max":286,"o":"m 135 874 q 265 669 201 849 q 286 488 286 563 l 286 479 q 126 -60 286 168 l 104 -68 q 61 -25 61 -58 q 204 488 204 201 q 92 821 204 697 l 92 843 q 135 874 113 874 z "},"*":{"ha":889,"x_min":99,"x_max":715,"o":"m 385 861 q 425 808 425 849 q 382 554 425 717 q 468 471 446 471 l 481 475 q 711 349 647 475 l 715 328 q 651 276 715 290 q 429 389 572 276 l 419 389 q 399 381 399 389 l 417 158 l 417 114 q 376 68 413 68 q 329 172 329 68 q 281 306 294 306 q 148 140 190 140 q 99 224 106 140 q 235 410 99 332 l 238 415 l 238 418 q 160 579 160 567 q 200 614 160 607 l 200 626 q 147 696 147 672 q 190 731 160 731 q 290 649 208 731 l 294 649 q 321 774 300 649 q 385 861 346 861 m 281 536 l 260 557 l 260 554 q 278 528 269 528 l 281 528 l 281 536 z "},"+":{"ha":724,"x_min":103,"x_max":658,"o":"m 325 600 q 363 565 344 600 l 360 514 l 360 492 q 389 361 360 408 q 624 431 586 431 q 658 388 653 431 q 544 332 658 350 l 415 283 l 415 279 q 450 114 450 154 q 411 83 438 83 l 397 83 q 346 231 375 83 l 328 257 q 215 239 261 239 l 194 239 q 103 297 103 239 q 128 332 103 313 l 138 332 l 186 322 l 232 322 q 301 340 301 325 l 301 343 q 276 500 276 451 q 325 600 276 600 z "},",":{"ha":340,"x_min":96,"x_max":274,"o":"m 188 253 q 274 57 260 221 q 156 -221 274 -94 l 139 -229 q 96 -186 96 -215 l 153 -94 q 188 49 188 -24 l 188 100 q 144 204 188 135 l 144 210 q 188 253 154 253 z "},"-":{"ha":582,"x_min":90,"x_max":481,"o":"m 189 382 l 440 399 q 481 356 475 399 q 350 313 481 313 q 181 299 254 299 q 90 350 90 310 q 128 394 90 378 l 181 382 l 189 382 z "},".":{"ha":253,"x_min":86,"x_max":174,"o":"m 139 82 q 174 35 168 82 q 125 -14 165 -14 q 86 35 97 -14 q 139 82 103 82 z "},"/":{"ha":493,"x_min":76,"x_max":515,"o":"m 475 840 q 515 800 515 829 q 352 453 492 733 q 146 1 213 172 l 117 -7 q 76 33 76 0 q 432 806 76 78 q 475 840 444 840 z "},":":{"ha":215,"x_min":79,"x_max":167,"o":"m 119 307 q 163 258 156 307 q 119 215 163 229 q 79 272 86 215 q 119 307 97 307 m 124 151 q 167 99 167 135 q 128 64 167 69 q 79 111 93 64 q 124 151 94 151 z "},";":{"ha":238,"x_min":42,"x_max":197,"o":"m 106 264 q 149 221 149 254 q 79 165 124 165 q 42 208 43 165 q 106 264 42 238 m 106 125 q 197 8 186 125 q 154 -122 188 -122 l 140 -126 q 103 -87 117 -126 q 114 21 114 -18 q 79 47 114 46 q 63 82 63 67 q 106 125 72 125 z "},"<":{"ha":440,"x_min":57,"x_max":401,"o":"m 322 404 q 367 375 346 404 l 367 361 q 193 214 367 321 l 188 210 l 188 196 q 378 49 197 196 q 401 12 401 38 q 361 -29 401 -14 q 161 124 343 -29 q 65 175 65 167 q 57 201 57 175 q 253 349 57 224 q 322 404 306 401 z "},"=":{"ha":524,"x_min":113,"x_max":464,"o":"m 160 297 l 225 279 l 399 293 q 446 244 446 285 q 417 210 446 222 l 229 197 q 117 258 133 197 q 160 297 131 297 m 221 167 l 438 189 q 464 167 457 182 l 464 149 q 364 103 464 103 q 225 79 325 90 q 113 140 113 79 q 139 175 113 158 l 147 175 l 194 167 l 221 167 z "},">":{"ha":453,"x_min":72,"x_max":403,"o":"m 121 443 q 165 403 150 443 l 156 350 q 382 225 189 297 l 403 194 q 235 0 403 167 q 174 -83 183 -83 l 156 -87 q 117 -53 117 -82 q 269 142 119 7 q 290 176 290 167 l 286 176 q 72 364 72 264 q 121 443 83 443 z "},"?":{"ha":489,"x_min":51,"x_max":433,"o":"m 307 992 q 433 867 433 971 q 251 522 433 725 q 307 183 275 460 q 321 149 321 169 l 325 149 q 272 106 325 113 q 194 436 217 106 q 151 506 179 506 q 121 563 121 536 q 165 597 131 597 l 200 589 q 350 875 350 744 q 321 910 342 900 l 304 910 q 133 731 214 910 q 99 640 133 640 l 96 635 l 90 635 q 51 701 51 635 l 51 704 q 200 953 51 828 q 307 992 251 992 m 342 -1 q 403 -76 403 -29 q 360 -111 389 -111 q 294 -42 294 -74 q 342 -1 294 -11 z "},"@":{"ha":818,"x_min":61,"x_max":746,"o":"m 419 885 l 433 885 q 724 607 642 885 l 732 513 l 732 503 l 724 413 q 746 308 746 369 q 515 -61 746 110 q 376 -104 435 -104 q 64 235 131 -104 l 61 313 l 61 335 q 269 839 61 653 q 419 885 350 885 m 142 343 l 142 321 q 315 -12 142 53 l 374 -21 q 654 239 542 -21 l 663 304 l 660 304 q 583 283 606 283 q 515 318 560 283 l 513 318 q 374 190 439 190 l 368 190 q 264 318 279 190 q 443 604 264 469 q 521 625 481 625 l 533 625 q 590 556 590 625 l 568 425 l 568 417 q 590 364 576 364 l 599 364 q 651 500 632 364 q 499 790 651 721 l 451 804 l 403 804 q 174 543 265 804 q 142 343 142 451 m 356 369 l 347 335 l 347 294 q 376 274 356 274 q 486 529 486 371 q 356 369 426 529 z "},"A":{"ha":656,"x_min":-14,"x_max":640,"o":"m 315 825 l 350 836 q 397 711 397 836 l 440 390 l 446 385 l 606 443 q 640 394 638 443 q 464 307 640 358 l 458 304 l 458 299 q 550 -6 458 269 l 550 -8 q 507 -53 550 -35 q 454 43 467 -53 q 376 272 422 113 l 371 272 q 189 208 189 235 q 38 -8 89 -8 q 3 29 8 -8 q 76 160 3 63 l 99 208 l 64 208 l 38 203 q -14 256 -14 215 q 47 304 7 304 l 82 290 q 160 347 160 290 q 315 825 231 514 m 328 572 l 246 325 q 360 368 360 347 q 328 572 339 572 z "},"B":{"ha":524,"x_min":0,"x_max":494,"o":"m 147 781 q 269 846 204 846 q 347 746 335 846 l 347 742 q 290 524 347 692 l 356 538 q 494 385 475 538 l 494 364 q 264 29 494 181 q 156 0 189 0 q 0 131 43 0 q 35 174 3 146 q 61 801 50 801 q 104 825 85 825 q 142 781 142 811 l 147 781 m 133 399 l 139 399 q 260 732 253 614 l 260 764 l 246 764 q 168 607 217 764 q 133 399 133 458 m 186 313 l 165 304 l 131 307 l 131 304 l 125 286 l 125 142 l 121 90 l 151 82 q 385 260 269 82 q 417 390 417 339 q 356 454 417 454 l 350 454 q 186 313 283 454 z "},"C":{"ha":694,"x_min":0,"x_max":668,"o":"m 203 721 q 313 585 297 721 q 260 443 313 472 l 251 443 q 211 472 211 446 l 217 576 l 217 628 l 208 638 l 194 638 q 90 390 150 638 l 82 286 l 82 256 q 211 86 82 111 l 269 86 q 619 272 414 86 l 625 272 q 668 225 663 272 q 593 142 636 142 q 236 0 394 0 q 13 174 78 0 l 0 272 l 0 290 q 121 686 0 506 q 203 721 160 721 z "},"D":{"ha":621,"x_min":0,"x_max":593,"o":"m 160 811 q 538 603 356 811 q 593 390 593 493 q 347 35 593 149 q 176 0 268 0 l 142 0 q 90 43 90 1 l 86 43 q 133 82 86 81 l 165 82 l 165 90 l 168 90 q 82 633 82 456 l 78 633 l 43 611 q 0 660 7 611 q 86 793 0 736 q 160 811 121 811 m 176 729 l 165 729 l 165 663 q 251 90 165 435 l 256 90 q 513 390 513 160 q 225 721 513 638 q 176 729 208 729 z "},"E":{"ha":597,"x_min":0,"x_max":558,"o":"m 443 801 q 478 758 468 801 q 390 689 478 733 q 229 364 282 594 l 229 339 q 403 411 350 399 q 443 382 419 411 l 443 356 q 321 294 443 340 q 229 238 229 244 l 229 225 q 329 90 229 147 l 376 82 q 513 139 422 82 l 529 139 q 558 99 558 125 l 558 90 q 368 0 472 0 q 151 200 219 0 l 64 182 q 0 224 0 192 q 38 269 0 256 l 69 264 q 142 294 142 285 q 321 732 142 531 q 443 801 411 801 z "},"F":{"ha":565,"x_min":17,"x_max":529,"o":"m 446 869 q 529 818 517 869 q 489 774 529 797 l 443 786 l 438 786 q 260 565 360 786 q 246 461 246 511 l 246 404 l 251 404 q 468 444 421 444 q 529 396 529 433 q 489 357 517 357 l 464 361 q 256 318 322 349 l 256 308 l 272 83 q 208 -76 272 -76 q 168 -42 186 -76 q 190 102 190 15 q 174 300 190 189 l 107 292 q 17 349 17 300 q 61 388 31 388 l 96 378 l 121 378 l 165 383 l 165 461 q 356 839 165 676 q 446 869 399 869 z "},"G":{"ha":667,"x_min":28,"x_max":631,"o":"m 439 1043 q 479 1000 461 1043 q 378 944 479 967 q 180 697 250 874 q 110 349 110 521 q 288 -7 110 72 l 332 -15 q 543 244 481 -15 l 549 301 q 474 488 549 413 l 465 488 q 349 253 436 454 l 318 232 q 274 279 279 232 q 453 592 406 592 l 461 592 q 631 301 631 493 q 453 -60 631 85 q 335 -97 424 -85 q 57 146 167 -97 q 28 336 28 250 l 28 357 q 218 918 28 654 q 439 1043 342 1043 z "},"H":{"ha":586,"x_min":3,"x_max":554,"o":"m 138 774 q 186 604 186 774 l 194 388 l 197 388 l 419 474 q 481 757 453 757 l 499 760 q 542 722 522 760 q 493 308 493 483 l 493 249 q 554 6 493 121 q 510 -33 540 -33 q 411 236 443 -33 l 411 378 l 403 378 q 194 283 194 304 q 133 -47 194 -47 l 128 -47 q 90 1 99 -47 q 111 236 111 153 l 50 204 l 38 201 q 3 244 3 214 q 111 340 3 275 l 111 343 q 93 739 107 582 q 138 774 93 769 z "},"I":{"ha":246,"x_min":44,"x_max":201,"o":"m 92 769 q 135 735 125 769 l 126 653 l 126 626 q 169 179 161 339 q 201 31 185 31 q 153 -7 201 1 q 83 274 83 -7 l 44 635 l 44 647 q 92 769 44 769 z "},"J":{"ha":569,"x_min":31,"x_max":521,"o":"m 433 885 l 457 885 q 500 842 500 876 q 474 801 500 832 l 474 732 q 521 125 474 632 q 404 -69 521 -69 q 118 203 307 -69 q 40 246 57 203 l 31 281 q 78 333 43 333 q 304 86 156 301 q 404 13 378 13 l 413 13 q 433 78 433 22 l 433 165 l 390 686 l 388 776 q 433 885 388 885 z "},"K":{"ha":736,"x_min":28,"x_max":690,"o":"m 179 899 q 218 864 204 899 q 158 451 158 706 l 158 300 l 161 300 q 401 781 239 378 q 465 833 443 833 l 471 833 q 508 807 494 833 l 508 781 q 318 388 469 757 l 204 217 l 204 214 q 531 51 361 51 l 583 51 q 653 61 635 51 q 690 17 690 46 l 690 6 q 569 -29 690 -29 l 549 -29 q 169 135 350 -29 l 161 135 l 161 -26 q 118 -74 161 -74 q 79 -26 79 -74 l 79 139 q 28 222 28 178 q 75 260 28 260 l 75 457 q 144 885 75 726 q 179 899 163 899 z "},"L":{"ha":438,"x_min":28,"x_max":418,"o":"m 92 710 q 135 606 125 710 l 140 531 q 110 89 140 446 l 118 89 l 118 85 l 124 89 l 135 89 l 297 76 l 308 76 l 378 97 l 388 97 q 418 58 410 83 q 300 -7 418 6 l 158 7 l 132 7 l 65 -11 q 28 33 28 3 l 57 510 l 57 531 l 49 669 q 92 710 49 704 z "},"M":{"ha":604,"x_min":28,"x_max":586,"o":"m 426 1014 l 431 1014 q 465 974 465 996 l 431 710 q 517 111 431 565 l 586 -62 q 557 -103 586 -81 l 531 -103 q 447 68 503 -94 q 375 471 411 199 l 367 471 q 253 224 286 232 l 231 218 q 158 332 201 218 l 149 332 q 83 -11 132 -11 l 79 -11 q 31 58 35 -11 q 65 336 65 192 l 28 704 l 28 731 q 65 783 28 783 q 161 571 119 783 q 236 363 222 378 q 300 540 268 413 q 349 744 325 606 l 343 749 l 349 771 l 349 779 q 426 1014 361 1014 z "},"N":{"ha":600,"x_min":7,"x_max":597,"o":"m 132 767 q 381 260 197 746 l 401 235 l 401 313 q 554 750 401 622 q 597 703 589 750 q 493 451 493 547 q 485 364 486 451 l 485 290 q 506 17 485 194 q 461 -18 493 -18 q 371 113 429 -18 q 215 454 300 225 l 210 454 l 210 446 l 218 269 q 114 -83 218 -4 l 79 -87 q 7 -8 36 -87 q 50 35 17 35 l 58 35 l 85 13 l 89 13 q 138 260 138 78 q 85 724 138 443 q 132 767 85 761 z "},"O":{"ha":611,"x_min":35,"x_max":582,"o":"m 203 751 l 238 757 l 251 757 q 313 722 279 757 q 486 569 374 722 q 582 249 582 389 q 443 -7 582 57 l 356 -25 q 56 288 147 -25 q 35 447 35 369 l 35 461 q 203 751 35 696 m 190 618 l 160 631 q 117 482 117 579 l 117 444 q 290 71 117 188 l 329 63 l 382 63 q 486 153 454 63 l 494 214 l 494 257 q 329 631 494 465 l 272 647 l 269 647 q 190 618 242 647 z "},"P":{"ha":632,"x_min":-7,"x_max":600,"o":"m 283 913 l 306 913 q 596 749 532 913 l 600 704 l 600 690 q 404 392 600 529 q 357 361 357 378 q 413 14 413 149 l 413 -4 q 367 -60 413 -60 q 332 -25 332 -56 l 332 10 q 274 357 332 169 q 149 418 161 367 l 149 426 q 188 465 149 451 l 249 444 l 249 447 q 201 725 201 653 q 249 765 201 765 q 292 618 292 765 l 332 453 q 488 583 432 486 q 517 682 517 639 l 517 700 q 322 829 517 814 l 265 829 q 75 739 75 808 l 75 731 q 97 665 75 710 q 49 626 97 635 q -7 735 -7 653 q 283 913 -7 888 z "},"Q":{"ha":806,"x_min":58,"x_max":971,"o":"m 444 894 q 728 513 646 894 q 736 422 736 490 l 736 413 q 644 78 736 267 q 756 65 681 65 q 931 118 832 65 q 971 69 960 118 q 739 -18 971 10 l 736 -18 l 579 6 q 389 -74 479 -74 q 93 188 200 -74 q 58 404 58 290 l 58 425 q 224 842 58 750 l 306 864 l 336 860 q 444 894 389 894 m 271 508 l 271 465 q 557 104 271 221 q 653 417 653 238 l 653 425 q 514 790 653 642 q 450 813 471 813 l 436 813 q 314 721 375 813 q 271 508 271 626 m 140 431 l 140 388 q 340 17 140 106 q 389 8 357 8 l 397 8 q 485 40 453 8 l 485 49 q 189 486 189 190 l 189 508 q 242 751 189 633 l 232 751 q 140 431 140 667 z "},"R":{"ha":722,"x_min":17,"x_max":689,"o":"m 264 790 l 269 790 q 438 628 438 760 l 438 603 q 251 313 438 457 l 251 307 q 668 38 553 38 q 689 0 689 22 q 642 -40 689 -32 q 211 238 526 -40 l 151 269 l 147 269 q 186 29 186 114 q 142 -22 186 -7 q 61 290 78 -22 q 17 521 17 435 l 17 533 q 72 660 17 660 l 99 646 l 107 646 q 264 790 174 790 m 151 419 l 147 368 q 356 582 276 368 l 356 633 q 272 707 356 694 l 264 707 q 151 419 176 707 z "},"S":{"ha":632,"x_min":28,"x_max":600,"o":"m 447 822 l 461 822 q 506 776 500 822 q 396 736 506 736 q 158 542 219 669 l 149 501 l 149 493 q 231 432 149 432 l 383 440 q 592 290 538 440 l 600 242 q 367 -22 600 97 q 244 -49 297 -42 q 44 111 103 -49 q 28 221 28 165 q 54 256 28 238 l 71 256 q 114 146 114 256 q 228 38 150 38 l 265 38 q 488 168 378 38 q 517 258 517 210 q 410 354 517 326 l 404 354 l 222 350 q 71 475 71 368 l 65 493 q 279 771 65 636 q 447 822 372 822 z "},"T":{"ha":590,"x_min":-7,"x_max":749,"o":"m 297 876 l 714 903 q 749 868 732 903 q 626 815 749 815 l 383 801 l 378 799 q 413 -61 413 572 q 369 -122 406 -122 q 326 -67 332 -122 l 326 256 q 297 793 326 578 q 49 738 49 769 l 36 732 q -7 776 -7 744 q 297 876 -7 853 z "},"U":{"ha":565,"x_min":44,"x_max":517,"o":"m 343 625 q 404 825 343 825 q 465 599 465 825 l 447 394 q 517 -8 447 133 l 517 -14 q 479 -49 517 -42 l 474 -49 q 383 147 422 -46 l 378 147 q 193 -69 306 -69 q 49 113 81 -69 l 44 194 l 44 221 l 65 538 l 65 599 q 97 642 65 626 l 110 642 q 149 590 149 642 l 149 582 l 126 211 l 126 160 q 179 13 126 49 l 204 13 q 340 304 275 56 l 361 399 l 343 625 z "},"V":{"ha":528,"x_min":10,"x_max":621,"o":"m 586 829 q 621 786 613 829 q 535 721 621 761 q 401 494 460 674 q 332 -18 332 204 q 288 -39 308 -39 q 222 100 253 -39 q 10 686 10 631 q 54 721 10 714 q 124 578 90 721 l 257 235 l 263 235 q 288 374 271 235 q 392 676 340 593 q 586 829 507 829 z "},"W":{"ha":885,"x_min":24,"x_max":857,"o":"m 354 994 q 632 847 467 994 q 857 306 857 586 q 583 -76 857 26 l 544 -82 q 314 132 397 -82 l 311 132 q 181 -42 263 -42 l 172 -42 q 24 367 64 -42 l 24 447 q 106 613 26 592 q 146 569 128 613 q 106 439 106 514 l 106 426 q 181 44 106 169 q 263 375 236 85 q 297 610 263 610 l 311 613 q 357 522 357 613 l 349 369 q 444 49 349 215 q 540 1 492 1 q 710 100 619 1 q 774 314 774 185 q 522 839 774 600 q 322 925 457 892 l 311 951 q 354 994 321 994 z "},"X":{"ha":663,"x_min":28,"x_max":600,"o":"m 257 321 q 517 906 350 714 l 543 911 q 578 871 578 899 l 578 863 q 318 200 401 643 q 465 86 390 86 l 508 86 l 569 99 l 578 99 q 600 64 600 89 l 600 56 q 492 0 600 13 q 308 86 403 0 l 300 86 q 271 -331 286 -68 q 231 -353 247 -353 q 193 -310 193 -339 q 231 182 194 -94 q 28 686 139 331 q 57 724 28 700 l 79 724 q 231 350 103 724 l 253 321 l 257 321 z "},"Y":{"ha":572,"x_min":10,"x_max":522,"o":"m 231 906 q 274 863 256 906 q 218 576 218 710 l 218 529 q 297 374 218 374 q 436 729 399 374 q 465 894 436 894 l 488 897 q 522 850 517 897 l 522 382 q 375 -131 522 -56 q 292 -157 347 -146 q 14 -14 169 -157 l 10 3 q 57 43 10 35 l 167 -35 q 263 -69 231 -69 l 300 -69 q 439 360 439 -69 l 439 376 l 426 376 q 292 294 374 294 q 149 425 190 294 q 135 529 135 476 l 135 542 q 231 906 157 906 z "},"Z":{"ha":653,"x_min":28,"x_max":700,"o":"m 188 644 l 479 653 l 508 653 q 592 606 592 653 q 357 242 564 478 q 236 114 236 126 q 492 -81 447 -76 l 557 -89 q 661 -68 608 -89 q 700 -111 700 -82 q 561 -172 700 -162 l 543 -172 q 204 42 414 -172 l 161 68 q 65 24 83 24 q 28 68 35 24 q 126 163 28 139 l 144 158 q 444 475 325 304 q 492 571 492 553 l 479 571 l 188 563 l 183 557 l 179 557 q 97 600 97 557 l 97 606 q 144 644 97 644 l 188 644 z "},"[":{"ha":479,"x_min":79,"x_max":422,"o":"m 179 814 l 335 853 q 375 822 353 853 l 375 808 q 222 744 375 765 q 175 453 175 710 l 175 340 l 161 114 l 161 93 q 401 -15 283 -15 q 422 -54 422 -39 q 375 -97 422 -87 q 153 -1 292 -97 l 124 -15 q 79 36 83 -15 l 79 124 l 92 340 l 92 453 q 179 814 92 760 z "},"\\":{"ha":493,"x_min":65,"x_max":506,"o":"m 465 797 q 506 758 506 786 q 318 360 479 690 q 135 -40 203 136 l 106 -49 q 65 -11 65 -42 q 422 763 65 33 q 465 797 432 797 z "},"]":{"ha":406,"x_min":44,"x_max":361,"o":"m 196 833 q 349 772 247 800 l 361 743 q 300 235 300 417 l 300 208 l 308 43 q 83 -108 308 7 q 44 -61 54 -108 q 222 61 44 -37 l 218 249 q 271 711 218 363 l 265 711 q 149 794 149 757 q 196 833 149 825 z "},"^":{"ha":881,"x_min":168,"x_max":683,"o":"m 389 965 l 415 979 q 624 644 465 979 l 683 519 q 646 485 683 492 l 640 485 q 501 710 603 485 q 424 849 438 835 q 232 531 271 540 l 215 528 q 168 579 168 542 q 215 624 168 599 l 389 965 z "},"_":{"ha":704,"x_min":51,"x_max":667,"o":"m 208 75 l 606 92 q 667 49 657 92 q 461 6 667 6 q 194 -7 306 -7 q 51 44 51 3 q 113 89 51 69 l 194 75 l 208 75 z "},"`":{"ha":625,"x_min":118,"x_max":431,"o":"m 431 589 q 396 547 425 550 q 314 585 329 565 q 118 713 118 667 q 124 728 118 721 q 160 769 128 767 q 394 631 224 751 q 431 589 428 621 z "},"a":{"ha":406,"x_min":31,"x_max":399,"o":"m 286 536 q 347 488 347 536 l 335 461 l 326 207 q 396 -7 326 35 l 399 -28 q 361 -68 394 -68 l 353 -68 q 249 149 249 3 l 239 149 q 104 -7 183 -7 q 31 103 31 14 q 188 493 31 299 q 286 536 240 536 m 118 158 l 113 119 l 113 93 l 126 93 q 231 410 231 353 l 225 410 q 118 158 144 319 z "},"b":{"ha":438,"x_min":0,"x_max":394,"o":"m 38 660 q 131 376 110 660 l 139 333 q 243 464 203 464 q 272 472 243 469 l 278 472 q 394 329 369 472 l 394 325 q 272 56 394 203 q 160 0 221 0 q 90 69 90 15 l 21 568 l 0 619 q 38 660 0 644 m 182 96 l 186 96 q 313 294 258 125 l 313 347 q 281 390 300 390 l 269 390 q 182 96 208 354 z "},"c":{"ha":438,"x_min":35,"x_max":394,"o":"m 168 471 l 225 479 q 264 436 260 479 q 174 388 264 399 q 117 274 117 343 l 117 228 q 211 75 144 75 l 225 75 q 342 149 264 75 l 350 149 q 394 110 378 149 q 269 1 375 50 q 221 -7 250 -7 q 35 218 78 -7 l 35 249 q 168 471 35 411 z "},"d":{"ha":444,"x_min":28,"x_max":422,"o":"m 353 763 q 396 718 376 763 l 335 332 l 335 224 q 388 54 335 54 q 422 10 422 38 q 367 -28 422 -22 q 271 85 306 -28 l 257 85 q 132 -28 206 -28 q 28 103 46 -28 q 231 424 28 254 q 271 536 271 424 q 353 763 301 763 m 110 114 l 110 76 l 132 54 l 140 54 q 244 322 185 54 l 236 322 q 110 114 110 196 z "},"e":{"ha":438,"x_min":0,"x_max":411,"o":"m 151 499 q 339 304 207 497 l 342 281 q 151 221 342 242 l 147 217 l 147 211 q 208 86 176 86 l 225 86 q 360 182 269 86 l 368 182 q 411 142 396 182 q 294 26 411 108 q 221 0 264 8 q 64 211 108 0 q 0 264 0 221 q 47 304 0 294 l 47 299 l 61 304 l 61 339 q 151 499 61 499 m 160 399 l 147 399 l 142 347 l 142 304 l 147 304 q 225 321 225 307 q 160 399 189 375 z "},"f":{"ha":375,"x_min":0,"x_max":364,"o":"m 243 625 q 333 486 308 625 l 333 481 q 290 443 333 449 q 243 529 256 443 l 238 533 l 221 533 q 190 417 190 489 l 194 347 q 315 376 250 347 q 364 339 342 376 q 208 264 364 282 l 243 38 q 194 0 243 8 q 151 133 151 0 l 125 251 l 35 238 q 0 281 6 238 q 113 333 0 322 l 107 419 q 243 625 129 625 z "},"g":{"ha":375,"x_min":7,"x_max":488,"o":"m 250 533 q 314 472 314 533 q 322 451 322 472 l 328 451 l 322 411 l 328 131 l 319 -92 q 488 -275 444 -92 q 436 -318 488 -312 q 383 -214 413 -318 q 319 -174 356 -174 l 314 -174 q 236 -469 269 -469 q 119 -543 196 -543 q 7 -431 7 -517 l 7 -422 q 193 -139 7 -292 l 236 -112 l 242 38 l 242 72 l 236 72 q 146 13 189 13 l 138 13 q 28 160 42 13 l 28 190 q 158 499 28 368 q 250 533 199 533 m 111 208 l 111 142 q 132 96 117 96 l 146 96 q 242 382 185 96 l 242 451 q 111 208 158 451 m 89 -425 q 128 -460 94 -460 q 224 -222 194 -460 l 215 -222 q 89 -425 89 -332 z "},"h":{"ha":406,"x_min":42,"x_max":367,"o":"m 85 767 q 124 672 124 767 l 140 433 l 146 433 l 215 460 q 357 221 332 460 q 367 21 367 153 l 367 -92 q 328 -144 367 -144 l 322 -144 q 285 -104 285 -139 l 285 26 q 224 374 285 340 l 215 374 q 154 246 174 374 l 154 168 q 119 -40 154 -40 l 93 -43 q 54 72 54 -43 q 71 272 58 194 l 42 729 q 85 767 42 765 z "},"i":{"ha":204,"x_min":0,"x_max":160,"o":"m 43 724 q 96 676 96 713 q 51 638 82 638 q 0 689 0 647 q 43 724 14 724 m 96 529 q 133 489 118 529 l 121 390 l 121 325 q 160 26 121 211 q 113 0 146 0 q 38 333 56 0 l 38 382 q 96 529 38 529 z "},"j":{"ha":204,"x_min":-101,"x_max":172,"o":"m 99 475 q 142 411 142 461 q 103 376 142 382 l 99 376 q 56 429 58 376 l 56 438 q 99 475 56 474 m 107 328 q 151 290 126 328 q 138 189 138 253 l 172 -161 l 172 -201 q 85 -431 172 -383 l 56 -436 q -92 -244 -40 -436 l -101 -171 l -101 -167 q -57 -118 -101 -118 q -19 -195 -19 -118 q 47 -349 -19 -272 l 58 -353 q 90 -219 90 -296 l 90 -161 l 56 186 q 107 328 56 328 z "},"k":{"ha":528,"x_min":44,"x_max":517,"o":"m 97 735 l 106 735 q 140 704 124 735 l 135 610 l 135 557 l 140 314 l 144 300 l 149 300 q 253 496 208 356 l 283 506 q 322 471 322 500 q 193 228 322 381 l 193 218 q 418 19 364 19 l 426 19 l 461 40 l 474 40 q 517 1 503 40 q 418 -60 517 -43 q 161 140 319 -60 l 149 140 l 153 65 l 153 -7 q 110 -50 144 -50 q 71 -7 71 -42 l 71 1 l 65 161 q 44 204 50 161 l 63 239 l 54 551 l 54 613 q 97 735 54 735 z "},"l":{"ha":232,"x_min":63,"x_max":158,"o":"m 106 765 q 144 722 144 751 l 158 193 l 158 22 q 118 -25 158 -25 l 100 -25 q 75 14 75 -8 l 75 175 l 63 725 q 106 765 63 760 z "},"m":{"ha":614,"x_min":49,"x_max":564,"o":"m 49 486 q 93 521 58 521 q 139 451 128 521 l 144 451 l 208 465 q 294 382 253 465 l 300 382 q 425 478 361 478 q 561 300 561 453 l 564 251 l 551 -29 l 551 -56 q 508 -96 551 -90 q 465 6 465 -96 l 482 257 q 417 396 482 396 q 326 214 379 396 q 283 6 300 6 q 260 -4 260 6 q 217 40 217 1 l 235 208 q 200 382 231 382 l 196 382 q 161 278 161 356 l 161 204 l 156 -8 q 113 -43 146 -43 q 75 6 83 -43 l 69 169 l 78 304 q 49 486 69 408 z "},"n":{"ha":385,"x_min":38,"x_max":368,"o":"m 207 468 q 325 353 325 458 l 328 335 l 325 118 q 368 17 325 81 l 368 14 q 328 -26 357 -26 q 242 126 242 10 l 242 144 l 238 147 l 242 153 l 242 156 l 246 347 q 211 388 246 388 l 194 388 q 125 83 125 360 q 76 -12 125 -12 q 38 35 39 -12 l 38 174 q 85 443 38 443 l 99 447 l 128 443 q 207 468 165 468 z "},"o":{"ha":444,"x_min":28,"x_max":410,"o":"m 249 524 q 404 371 351 524 l 410 342 q 271 38 410 193 q 158 -14 215 -14 q 40 82 75 -14 q 28 160 28 126 l 28 176 q 188 510 28 396 q 249 524 215 524 m 110 163 q 158 68 110 68 q 326 328 260 68 l 326 354 q 239 440 303 440 q 214 406 214 440 q 158 368 214 382 q 110 163 110 286 z "},"p":{"ha":410,"x_min":42,"x_max":371,"o":"m 197 413 q 371 228 344 413 q 218 -7 371 64 q 172 -15 201 -15 l 163 -15 l 132 -12 l 132 -15 l 138 -386 q 93 -429 128 -429 q 54 -389 54 -417 l 42 367 q 85 404 42 403 l 114 392 q 197 413 153 413 m 128 265 l 124 222 l 128 75 l 167 65 q 288 201 260 65 l 288 222 q 210 332 278 332 l 189 332 q 128 265 128 332 z "},"q":{"ha":531,"x_min":42,"x_max":514,"o":"m 276 481 q 363 433 363 460 q 332 96 332 264 l 332 8 q 371 -261 332 -204 q 432 -67 432 -192 l 432 -53 q 389 35 432 13 q 371 64 378 35 q 418 104 383 104 q 514 -78 514 76 q 381 -353 494 -306 l 371 -353 q 250 21 250 -353 l 250 61 l 244 61 q 140 -22 183 -22 q 42 107 63 -22 q 167 425 42 253 q 276 481 218 481 m 132 182 l 124 113 l 124 82 l 140 64 q 263 347 181 64 l 271 399 l 258 399 q 132 182 197 368 z "},"r":{"ha":507,"x_min":44,"x_max":488,"o":"m 210 547 q 314 425 297 547 l 314 413 q 175 165 314 278 q 457 86 256 86 q 488 43 488 76 q 439 6 488 6 q 153 75 303 6 l 153 35 q 92 -108 153 -108 q 49 57 49 -108 l 49 165 l 44 204 l 54 249 l 44 382 l 44 388 q 83 439 44 425 q 210 547 138 547 m 140 243 q 231 388 181 243 l 231 447 l 214 465 l 201 465 q 140 243 140 424 z "},"s":{"ha":426,"x_min":42,"x_max":401,"o":"m 306 563 q 357 436 343 563 q 311 401 343 401 q 267 453 289 406 l 242 461 q 124 375 176 461 l 124 363 q 319 293 124 342 q 401 175 401 244 q 218 -19 401 61 l 167 -28 q 50 89 50 -15 l 50 93 q 93 132 50 126 q 138 63 126 132 l 149 54 l 172 54 q 319 163 251 54 l 319 181 q 138 258 319 222 q 42 367 42 297 q 193 536 42 457 q 306 563 260 544 z "},"t":{"ha":493,"x_min":0,"x_max":478,"o":"m 190 843 q 229 804 229 835 l 221 743 l 221 725 q 235 596 221 664 l 238 596 q 438 644 399 644 q 478 604 478 633 q 382 557 478 557 l 238 506 q 278 -4 238 318 q 238 -42 269 -42 l 235 -42 q 186 83 186 -42 q 156 488 168 176 l 131 488 q 0 549 0 496 q 29 586 0 564 l 43 586 l 107 569 l 151 569 l 139 743 q 190 843 139 843 z "},"u":{"ha":454,"x_min":51,"x_max":451,"o":"m 82 418 l 107 432 q 156 392 140 432 q 133 181 133 289 q 165 63 133 126 l 174 63 q 269 381 214 63 q 307 397 289 397 q 350 244 350 397 q 390 76 368 76 l 411 85 q 451 42 451 69 q 382 -11 426 -11 q 286 89 332 -11 q 174 -28 231 -28 q 56 149 89 -28 l 51 193 l 51 207 q 82 418 51 318 z "},"v":{"ha":382,"x_min":0,"x_max":350,"o":"m 47 468 q 117 315 79 468 q 176 186 169 193 q 228 325 183 186 q 313 464 272 464 q 350 419 350 450 q 235 26 235 122 l 208 0 l 182 0 q 13 382 132 36 l 0 433 q 47 468 10 468 z "},"w":{"ha":556,"x_min":38,"x_max":515,"o":"m 419 436 q 515 239 515 372 q 394 -7 515 58 l 342 -15 q 242 31 294 -15 l 232 31 q 151 -25 189 -25 q 38 161 53 -25 l 38 236 q 111 413 47 413 q 151 369 146 413 q 119 214 119 314 l 119 188 q 146 63 125 63 q 189 135 167 63 l 186 231 q 232 326 186 326 q 285 222 285 326 l 290 222 l 276 135 q 342 65 300 65 l 350 65 q 429 196 411 65 l 429 274 q 376 383 429 318 l 371 396 q 419 436 371 425 z "},"x":{"ha":361,"x_min":31,"x_max":339,"o":"m 214 401 l 217 401 q 251 357 244 401 q 217 140 217 217 q 321 79 253 79 q 339 44 339 63 l 339 28 q 283 1 326 1 q 208 33 244 4 l 196 33 q 156 -115 181 -115 l 131 -115 q 100 -76 100 -99 l 126 132 l 126 138 q 31 357 31 314 q 78 392 31 390 q 139 285 111 392 l 144 279 l 153 279 q 214 401 167 401 z "},"y":{"ha":368,"x_min":-28,"x_max":332,"o":"m 71 417 q 138 203 119 417 q 172 104 161 104 l 181 104 q 215 278 215 192 l 207 374 q 250 411 222 411 q 301 229 301 411 q 332 -122 332 40 l 332 -187 q 163 -590 332 -486 l 132 -596 q -15 -449 53 -596 l -28 -365 l -28 -361 q 24 -269 -28 -269 l 58 -292 l 54 -379 q 119 -508 54 -443 l 138 -508 q 250 -217 214 -508 l 253 -136 q 242 43 251 4 q 154 -6 186 -6 q 28 374 83 -6 l 24 376 q 71 417 24 408 z "},"z":{"ha":433,"x_min":-4,"x_max":417,"o":"m 239 419 q 278 381 265 419 q 147 33 154 67 l 153 29 l 196 29 q 378 90 263 29 q 417 42 417 90 q 174 -54 339 -54 l 110 -46 q 65 -67 78 -67 q 22 13 22 -67 q 69 64 22 29 l 165 319 l 165 325 l 161 325 l 43 315 q -4 363 -4 325 q 35 397 -4 397 q 239 419 110 397 z "},"{":{"ha":597,"x_min":208,"x_max":550,"o":"m 478 1008 l 515 1017 q 550 974 544 1017 q 481 918 550 943 q 403 710 403 836 q 467 610 411 610 q 524 563 524 610 q 429 501 524 533 q 368 453 378 471 l 368 450 l 374 450 l 390 453 q 429 424 418 447 l 429 397 q 321 1 321 183 l 321 -60 q 542 -397 321 -300 l 550 -410 l 550 -436 l 524 -462 l 515 -462 q 307 -303 385 -424 q 238 -19 238 -176 q 313 346 238 138 l 313 349 l 307 349 l 246 346 q 208 389 208 361 q 376 565 228 450 q 321 722 321 639 q 478 1008 321 901 z "},"|":{"ha":232,"x_min":63,"x_max":158,"o":"m 106 765 q 144 722 144 751 l 158 193 l 158 22 q 118 -25 158 -25 l 100 -25 q 75 14 75 -8 l 75 175 l 63 725 q 106 765 63 760 z "},"}":{"ha":547,"x_min":203,"x_max":464,"o":"m 301 1033 q 406 815 378 1011 l 406 807 q 311 478 406 688 q 440 399 440 439 l 440 385 q 394 299 394 342 l 394 290 q 458 -96 394 225 l 464 -153 q 328 -365 464 -304 l 232 -382 q 203 -339 203 -372 q 319 -283 203 -301 q 381 -153 381 -247 q 311 251 381 -99 l 311 281 l 328 382 l 328 385 q 215 464 215 417 q 325 793 325 689 l 325 828 q 256 975 325 901 l 256 989 q 301 1033 267 1033 z "},"~":{"ha":881,"x_min":68,"x_max":753,"o":"m 753 746 q 722 742 750 733 q 665 760 693 750 q 543 842 642 814 l 528 843 q 436 746 503 843 q 299 708 378 708 q 75 804 163 708 l 68 832 q 108 864 79 864 q 176 843 138 864 l 165 836 l 165 826 q 283 750 158 786 l 304 750 l 306 750 q 406 839 354 750 q 533 883 457 883 q 729 804 642 883 q 753 746 736 768 z "}," ":{"ha":524,"x_min":0,"x_max":0,"o":""},"¡":{"ha":176,"x_min":36,"x_max":179,"o":"m 79 60 q 36 90 36 64 q 57 417 44 372 q 108 539 57 539 q 150 514 136 539 q 117 93 128 375 q 79 60 117 69 m 179 767 q 133 735 167 735 q 88 767 100 735 q 131 796 103 796 l 136 796 q 179 767 164 796 z "},"¢":{"ha":438,"x_min":56,"x_max":417,"o":"m 236 681 q 258 554 247 664 l 315 561 q 331 524 331 540 q 315 497 331 508 q 265 475 300 486 q 285 163 278 338 q 364 225 318 181 l 374 225 q 417 186 399 225 q 290 78 399 126 q 286 76 289 76 q 249 -35 283 -35 l 231 -35 q 207 72 210 50 q 56 294 94 100 l 56 325 q 190 547 56 488 l 194 547 l 193 640 q 236 681 193 675 m 139 350 l 139 304 q 204 158 160 183 l 204 251 l 197 464 l 194 464 q 139 350 139 421 z "},"£":{"ha":724,"x_min":24,"x_max":672,"o":"m 344 644 q 231 488 231 644 q 242 376 231 439 l 375 385 q 415 342 410 385 q 285 299 415 299 q 236 292 244 293 l 218 89 l 228 89 l 425 119 l 632 110 l 640 110 q 672 71 661 96 q 571 33 672 33 q 444 43 521 33 l 267 7 l 242 7 l 175 -11 q 138 33 138 4 l 153 285 l 114 285 q 24 336 24 296 q 63 381 24 364 l 114 368 l 124 368 l 158 369 l 172 610 q 299 721 181 721 q 343 718 319 721 q 588 618 594 685 q 557 571 585 596 q 344 644 424 644 z "},"¤":{"ha":804,"x_min":-19,"x_max":753,"o":"m 128 194 q 89 333 89 261 l 89 350 q 138 561 89 471 q 21 703 83 632 q 50 742 21 719 l 72 742 q 190 635 92 742 q 249 683 213 657 l 356 693 q 376 694 363 694 l 401 694 q 457 681 435 690 q 554 788 479 701 l 579 793 q 614 753 614 781 l 614 744 q 514 626 578 700 q 539 498 539 581 q 507 288 539 415 l 661 147 l 722 160 l 731 160 q 753 125 753 150 l 753 117 q 644 61 753 72 q 438 217 540 138 l 424 208 q 196 156 247 160 l 168 126 q 68 36 82 36 q 114 165 -19 54 l 128 194 m 167 346 q 215 250 167 250 q 221 250 218 250 q 475 507 411 250 l 475 533 q 389 619 451 619 q 365 619 376 619 q 271 589 271 619 l 215 550 q 167 346 167 469 z "},"¥":{"ha":607,"x_min":68,"x_max":531,"o":"m 496 944 q 531 901 522 944 q 444 835 531 875 q 319 549 351 626 q 326 538 324 553 l 335 453 l 404 460 q 451 411 451 451 q 422 376 451 389 l 340 371 q 342 346 340 356 l 443 356 q 468 333 461 350 l 468 315 q 369 269 468 269 q 346 263 356 264 q 350 128 350 183 q 349 35 350 72 q 306 14 325 14 q 263 249 281 14 q 231 246 256 249 q 118 307 118 246 q 144 342 118 325 l 153 342 l 200 333 l 225 333 l 256 336 l 251 364 l 235 364 q 121 425 140 364 q 165 464 135 464 l 231 446 l 246 446 q 244 495 244 483 q 244 510 244 507 q 68 908 68 853 q 111 943 68 938 q 181 800 147 943 l 265 635 l 271 635 q 347 790 278 635 q 496 944 415 944 z "},"¦":{"ha":215,"x_min":50,"x_max":154,"o":"m 65 349 l 144 349 l 133 17 q 90 -26 124 -26 q 50 17 50 -11 l 65 349 m 154 404 l 68 399 l 65 521 l 51 746 q 100 781 61 781 q 144 604 144 781 l 147 529 l 154 404 z "},"§":{"ha":485,"x_min":63,"x_max":436,"o":"m 340 849 q 392 722 378 849 q 346 688 378 688 q 301 739 324 694 l 276 749 q 158 661 211 749 l 158 649 q 354 579 158 628 q 436 454 436 533 q 333 308 436 375 l 340 307 q 422 189 422 258 q 239 -6 422 75 l 188 -14 q 71 103 71 -1 l 71 107 q 114 146 71 140 q 158 76 147 146 l 169 68 l 193 68 q 340 176 272 68 l 340 194 q 211 260 340 228 l 201 258 q 110 297 140 264 q 63 381 63 332 q 194 540 63 465 l 172 544 q 76 653 76 583 q 228 822 76 743 q 340 849 296 833 m 154 404 l 188 349 l 215 340 q 329 415 278 347 l 288 467 l 263 475 q 154 404 203 475 z "},"¨":{"ha":478,"x_min":132,"x_max":375,"o":"m 322 618 q 283 665 293 619 q 343 700 285 700 q 375 660 375 678 q 322 618 375 621 m 165 626 q 132 668 133 626 q 182 711 133 700 q 218 665 221 694 q 165 626 200 626 z "},"©":{"ha":1311,"x_min":44,"x_max":1236,"o":"m 603 721 q 711 585 696 721 q 660 443 711 472 l 651 443 q 611 472 611 446 l 617 576 l 617 628 l 607 638 l 593 638 q 489 390 549 638 l 481 286 l 481 256 q 611 86 481 111 l 668 86 q 1019 272 813 86 l 1024 272 q 1068 225 1063 272 q 993 142 1036 142 q 635 0 793 0 q 411 174 478 0 l 399 272 l 399 290 q 521 686 399 506 q 603 721 557 721 m 415 904 l 489 910 l 517 910 q 651 863 579 910 q 1028 653 785 863 q 1236 211 1236 406 q 933 -139 1236 -49 l 744 -164 q 93 267 293 -164 q 44 488 44 383 l 44 506 q 415 904 44 828 m 326 785 q 185 490 185 696 q 190 403 185 449 q 556 -49 226 128 l 749 -81 q 1044 61 958 -43 l 1146 204 q 464 793 1022 793 q 326 785 399 793 z "},"ª":{"ha":300,"x_min":11,"x_max":275,"o":"m 124 733 q 201 757 164 757 q 238 731 238 757 l 229 715 l 222 578 q 272 463 222 486 l 275 451 q 247 431 272 431 l 242 431 q 167 547 167 468 l 160 547 q 64 463 121 463 q 11 522 11 474 q 124 733 11 628 m 74 553 l 69 531 l 69 517 l 79 517 q 154 688 154 656 l 150 688 q 74 553 92 638 z "},"«":{"ha":658,"x_min":63,"x_max":621,"o":"m 328 494 q 371 464 350 494 l 371 451 q 197 304 371 408 l 193 299 l 193 286 q 383 139 203 286 q 406 101 406 126 q 367 61 406 75 q 167 211 347 61 q 71 264 71 257 q 63 290 63 264 q 258 438 63 313 q 328 494 313 492 m 543 507 q 586 478 565 507 l 586 464 q 413 315 586 422 l 410 313 l 410 299 q 600 151 419 299 q 621 115 621 142 q 583 72 621 89 q 383 225 565 72 q 288 278 288 269 q 279 304 279 278 q 474 451 279 326 q 543 507 529 506 z "},"¬":{"ha":819,"x_min":92,"x_max":772,"o":"m 92 461 q 131 501 99 501 l 260 493 l 281 493 l 731 517 q 772 482 758 517 l 757 422 l 757 397 l 767 267 q 704 160 756 160 q 668 188 683 167 l 668 196 l 689 260 l 689 271 l 679 418 l 679 431 l 682 433 l 679 433 l 679 443 q 300 417 338 417 q 260 417 263 417 l 190 422 q 92 461 92 433 z "},"­":{"ha":582,"x_min":90,"x_max":481,"o":"m 189 382 l 440 399 q 481 356 475 399 q 350 313 481 313 q 181 299 254 299 q 90 350 90 310 q 128 394 90 378 l 181 382 l 189 382 z "},"®":{"ha":1322,"x_min":44,"x_max":1235,"o":"m 413 1036 l 489 1042 l 517 1042 q 649 994 581 1042 q 1028 785 781 994 q 1235 343 1235 536 q 932 -7 1235 83 l 744 -32 q 92 399 293 -32 q 44 619 44 511 l 44 638 q 413 1036 44 960 m 271 894 q 151 568 151 808 q 154 500 151 535 q 454 146 172 258 q 418 408 428 221 q 381 597 381 524 l 381 607 q 429 711 381 711 l 451 701 l 460 701 q 596 819 515 819 l 600 819 q 749 688 749 794 l 749 665 q 585 425 749 543 l 585 422 q 950 200 846 200 q 968 167 968 188 q 926 135 968 142 q 550 364 825 135 l 499 389 l 493 389 q 528 193 528 263 q 499 131 528 167 q 603 100 543 114 l 688 89 l 800 89 q 1040 188 958 89 l 1075 283 l 1086 343 q 453 907 1018 907 q 271 894 368 907 m 499 515 l 493 472 q 675 647 606 472 l 675 690 q 604 751 675 742 l 596 751 q 499 515 522 751 z "},"¯":{"ha":621,"x_min":118,"x_max":508,"o":"m 217 868 l 468 885 q 508 842 503 885 q 378 799 508 799 q 208 785 282 785 q 118 836 118 796 q 156 881 118 864 l 208 868 l 217 868 z "},"°":{"ha":424,"x_min":44,"x_max":367,"o":"m 231 739 q 363 663 319 739 l 367 647 q 250 493 367 572 q 145 467 203 467 q 56 515 88 467 q 44 556 44 542 l 44 564 q 181 732 44 675 q 231 739 206 739 m 154 661 q 114 563 114 618 q 154 508 114 508 q 297 640 240 508 l 297 654 q 224 697 279 697 q 203 681 203 697 q 154 661 203 668 z "},"±":{"ha":649,"x_min":57,"x_max":585,"o":"m 375 118 l 544 179 q 585 135 578 179 q 396 40 585 92 q 225 26 299 26 q 135 78 135 38 q 174 121 135 107 l 225 110 l 235 110 l 300 113 q 271 231 286 147 l 253 257 l 169 235 l 149 235 q 57 292 57 235 q 83 326 57 308 l 92 326 l 140 318 l 158 322 q 228 340 228 325 l 228 343 q 201 500 201 449 q 250 600 201 600 q 288 565 269 600 l 285 514 l 285 492 q 314 361 285 408 q 489 410 453 410 q 524 367 518 410 q 411 311 524 331 l 340 283 l 340 279 q 375 118 372 161 z "},"²":{"ha":314,"x_min":33,"x_max":269,"o":"m 160 750 q 231 681 219 750 q 107 429 231 615 l 107 426 q 243 472 142 426 l 246 472 q 269 453 261 472 q 54 374 269 422 q 33 392 42 374 q 153 583 65 453 q 182 672 182 647 l 182 692 q 165 713 182 704 l 156 713 q 97 651 125 713 l 99 644 q 78 624 99 632 q 49 649 49 631 q 117 738 49 686 q 160 750 136 750 z "},"³":{"ha":301,"x_min":26,"x_max":242,"o":"m 128 743 q 185 694 174 743 q 169 644 178 660 l 169 642 q 240 588 215 642 l 242 565 q 144 410 233 493 q 85 386 104 386 q 26 421 26 400 q 42 436 31 429 l 56 436 q 81 425 71 425 l 82 425 q 196 549 139 425 l 199 565 l 199 569 q 167 607 199 607 q 117 581 131 607 q 68 547 85 551 q 46 564 61 547 q 113 633 46 588 q 142 697 142 675 q 128 710 138 708 q 63 642 97 710 l 46 639 q 26 654 26 642 q 128 743 61 743 z "},"´":{"ha":517,"x_min":49,"x_max":413,"o":"m 49 751 q 90 804 51 792 q 369 913 317 913 q 374 913 372 913 q 413 861 408 911 l 403 822 q 176 746 214 756 q 89 700 161 722 q 49 751 56 703 z "},"µ":{"ha":454,"x_min":35,"x_max":451,"o":"m 82 418 l 107 432 q 156 392 140 432 q 133 181 133 289 q 165 63 133 126 l 174 63 q 269 381 214 63 q 307 397 289 397 q 350 244 350 397 q 390 76 368 76 l 411 85 q 451 42 451 69 q 382 -11 426 -11 q 286 89 332 -11 q 167 0 243 0 q 114 10 142 0 q 69 -140 111 -140 q 35 -119 56 -140 l 51 193 l 51 207 q 82 418 51 318 z "},"¶":{"ha":674,"x_min":38,"x_max":593,"o":"m 572 938 q 593 827 593 938 q 565 439 593 717 l 565 72 q 522 29 556 29 q 482 72 482 44 l 508 822 q 411 682 424 818 q 364 249 364 460 q 376 57 364 147 q 333 17 361 17 q 281 231 281 17 l 281 257 q 299 526 281 363 q 253 485 292 526 q 151 444 214 444 q 38 554 76 444 l 38 583 q 186 839 38 736 q 433 933 294 908 q 547 932 488 933 q 572 938 557 938 z "},"·":{"ha":253,"x_min":72,"x_max":193,"o":"m 144 460 q 193 396 188 460 q 126 332 181 332 q 72 396 85 332 q 144 460 94 460 z "},"¸":{"ha":501,"x_min":132,"x_max":397,"o":"m 154 29 l 232 24 l 193 -47 l 193 -57 q 336 -117 193 -78 q 397 -214 397 -154 q 264 -375 397 -306 l 224 -382 q 139 -285 139 -372 l 139 -282 q 169 -249 139 -254 q 203 -307 197 -249 l 211 -314 l 228 -314 q 336 -224 286 -314 l 336 -210 q 203 -144 336 -174 q 132 -54 132 -111 q 154 29 132 19 z "},"¹":{"ha":215,"x_min":50,"x_max":119,"o":"m 50 688 q 86 706 56 706 q 117 617 117 706 l 119 578 l 111 358 q 79 336 106 336 q 50 358 50 343 l 60 574 l 50 688 z "},"º":{"ha":285,"x_min":-6,"x_max":263,"o":"m 149 747 q 258 665 222 747 l 263 650 q 165 486 263 569 q 86 458 125 458 q 3 510 29 458 q -6 551 -6 533 l -6 560 q 107 740 -6 681 q 149 747 128 747 m 86 664 q 51 561 51 621 q 86 501 51 501 q 204 642 156 501 l 204 656 q 142 703 188 703 q 125 683 125 703 q 86 664 125 669 z "},"»":{"ha":724,"x_min":97,"x_max":626,"o":"m 149 485 q 375 357 185 432 l 397 328 q 228 132 397 299 q 167 50 175 50 l 149 44 q 111 79 111 54 q 263 276 113 139 q 285 311 285 299 l 279 311 q 97 453 97 408 q 149 485 97 476 m 378 522 q 604 397 414 469 l 626 367 q 457 172 626 339 q 396 89 404 89 l 378 85 q 340 119 340 92 q 492 314 343 176 q 514 349 514 338 l 508 349 q 328 492 328 447 q 378 522 328 514 z "},"¼":{"ha":833,"x_min":47,"x_max":758,"o":"m 51 688 q 81 707 56 707 q 106 611 106 707 l 108 571 l 101 336 q 75 314 96 314 q 51 336 51 321 l 60 567 l 51 688 m 446 840 q 486 800 486 829 q 323 453 463 733 q 117 1 183 172 l 88 -7 q 47 33 47 0 q 403 806 47 78 q 446 840 415 840 m 603 494 q 620 499 603 497 q 653 489 638 500 l 653 483 q 638 471 653 478 q 608 271 608 456 l 608 250 l 619 250 q 726 279 668 250 l 729 279 q 758 263 758 275 q 689 228 736 238 q 618 218 642 218 l 613 218 l 618 35 q 590 19 618 24 q 561 38 567 19 l 556 221 q 426 242 442 242 l 415 242 q 392 222 407 239 l 374 217 q 344 236 344 222 q 385 285 344 240 q 432 397 432 363 l 432 418 q 413 446 432 424 q 442 463 419 463 q 492 406 492 450 q 439 272 492 375 l 553 254 l 553 260 q 603 494 553 494 z "},"½":{"ha":665,"x_min":50,"x_max":603,"o":"m 50 688 q 87 707 57 707 q 117 611 117 707 l 119 571 l 111 336 q 79 314 106 314 q 50 336 50 319 l 60 567 l 50 688 m 463 825 q 503 785 503 814 q 340 438 479 718 q 133 -14 200 157 l 104 -22 q 64 18 64 -15 q 419 790 64 63 q 463 825 432 825 m 482 440 q 560 360 550 440 q 424 71 560 286 l 424 67 q 574 119 457 67 l 575 119 q 603 99 592 119 q 367 6 603 63 q 343 28 353 6 q 474 249 375 92 q 507 351 507 324 l 507 374 q 489 397 507 389 l 478 397 q 413 328 444 397 l 415 318 q 392 296 415 304 q 360 324 360 303 q 435 426 360 367 q 482 440 454 440 z "},"¾":{"ha":924,"x_min":72,"x_max":878,"o":"m 196 853 q 265 789 253 853 q 246 724 260 750 l 246 721 q 332 651 303 721 l 335 622 q 215 419 324 526 q 144 390 167 390 q 72 433 72 407 q 92 453 76 446 l 108 453 q 139 439 126 439 l 140 439 q 279 600 210 439 l 282 622 l 282 626 q 242 675 282 675 q 183 642 203 675 q 124 597 146 604 q 96 619 113 597 q 176 710 96 650 q 213 792 213 765 q 196 808 206 804 q 117 721 158 808 l 96 717 q 72 736 72 721 q 196 853 115 853 m 592 863 q 632 822 632 851 q 469 475 608 756 q 263 24 329 194 l 233 15 q 193 56 193 22 q 549 828 193 100 q 592 863 561 863 m 764 653 q 786 638 774 653 l 786 631 q 774 614 786 619 q 749 349 749 594 l 749 319 l 758 319 q 850 360 799 319 l 853 360 q 878 338 878 353 q 808 288 860 303 q 756 278 781 278 l 751 278 l 756 35 q 732 14 756 21 q 707 38 711 14 l 703 282 q 590 308 606 308 l 581 308 q 560 285 575 307 l 544 275 q 519 301 519 283 q 554 367 519 310 q 594 517 594 475 l 594 543 q 578 581 594 553 q 603 601 583 601 q 646 528 646 588 q 600 350 646 486 l 700 326 l 700 333 q 743 644 700 644 q 764 653 743 649 z "},"¿":{"ha":489,"x_min":43,"x_max":404,"o":"m 285 35 q 183 61 231 35 q 43 232 43 147 l 43 235 q 79 281 43 281 l 85 281 l 88 276 q 121 214 121 276 q 282 90 199 90 l 297 90 q 325 114 318 99 q 183 313 325 204 l 151 306 q 108 331 119 306 q 138 369 108 349 q 178 417 164 369 q 251 646 199 646 q 301 615 301 639 l 297 615 q 285 592 297 603 q 232 358 256 404 q 404 121 404 219 q 285 35 404 50 m 318 719 q 272 747 272 725 q 335 794 272 769 q 375 771 360 794 q 318 719 375 739 z "},"À":{"ha":656,"x_min":-14,"x_max":640,"o":"m 315 825 l 350 836 q 397 711 397 836 l 440 390 l 446 385 l 606 443 q 640 394 638 443 q 464 307 640 358 l 458 304 l 458 299 q 550 -6 458 269 l 550 -8 q 507 -53 550 -35 q 454 43 467 -53 q 376 272 422 113 l 371 272 q 189 208 189 235 q 38 -8 89 -8 q 3 29 8 -8 q 76 160 3 63 l 99 208 l 64 208 l 38 203 q -14 256 -14 215 q 47 304 7 304 l 82 290 q 160 347 160 290 q 315 825 231 514 m 328 572 l 246 325 q 360 368 360 347 q 328 572 339 572 m 486 978 q 451 936 481 939 q 369 974 385 954 q 174 1101 174 1056 q 179 1117 174 1110 q 215 1158 183 1156 q 450 1019 279 1140 q 486 978 483 1010 z "},"Á":{"ha":656,"x_min":-14,"x_max":640,"o":"m 315 825 l 350 836 q 397 711 397 836 l 440 390 l 446 385 l 606 443 q 640 394 638 443 q 464 307 640 358 l 458 304 l 458 299 q 550 -6 458 269 l 550 -8 q 507 -53 550 -35 q 454 43 467 -53 q 376 272 422 113 l 371 272 q 189 208 189 235 q 38 -8 89 -8 q 3 29 8 -8 q 76 160 3 63 l 99 208 l 64 208 l 38 203 q -14 256 -14 215 q 47 304 7 304 l 82 290 q 160 347 160 290 q 315 825 231 514 m 328 572 l 246 325 q 360 368 360 347 q 328 572 339 572 m 121 954 q 163 1007 124 994 q 442 1115 389 1115 q 446 1115 444 1115 q 485 1064 481 1114 l 475 1025 q 249 949 286 958 q 161 903 233 925 q 121 954 128 906 z "},"Â":{"ha":656,"x_min":-14,"x_max":640,"o":"m 315 825 l 350 836 q 397 711 397 836 l 440 390 l 446 385 l 606 443 q 640 394 638 443 q 464 307 640 358 l 458 304 l 458 299 q 550 -6 458 269 l 550 -8 q 507 -53 550 -35 q 454 43 467 -53 q 376 272 422 113 l 371 272 q 189 208 189 235 q 38 -8 89 -8 q 3 29 8 -8 q 76 160 3 63 l 99 208 l 64 208 l 38 203 q -14 256 -14 215 q 47 304 7 304 l 82 290 q 160 347 160 290 q 315 825 231 514 m 328 572 l 246 325 q 360 368 360 347 q 328 572 339 572 m 311 1093 l 333 1103 q 508 903 375 1103 l 561 828 q 528 807 561 811 l 492 804 q 392 926 492 808 q 346 994 364 994 q 336 988 340 994 q 203 813 214 842 l 165 833 q 125 864 125 842 q 165 890 125 875 l 311 1093 z "},"Ã":{"ha":656,"x_min":-14,"x_max":640,"o":"m 315 825 l 350 836 q 397 711 397 836 l 440 390 l 446 385 l 606 443 q 640 394 638 443 q 464 307 640 358 l 458 304 l 458 299 q 550 -6 458 269 l 550 -8 q 507 -53 550 -35 q 454 43 467 -53 q 376 272 422 113 l 371 272 q 189 208 189 235 q 38 -8 89 -8 q 3 29 8 -8 q 76 160 3 63 l 99 208 l 64 208 l 38 203 q -14 256 -14 215 q 47 304 7 304 l 82 290 q 160 347 160 290 q 315 825 231 514 m 328 572 l 246 325 q 360 368 360 347 q 328 572 339 572 m 614 946 q 601 936 613 936 q 547 967 589 936 q 460 1090 532 1049 l 447 1092 q 379 946 429 1092 q 278 889 336 889 q 275 889 276 889 q 114 1033 176 896 l 108 1075 q 142 1122 117 1122 q 190 1092 161 1122 l 179 1082 l 179 1065 q 268 951 178 1007 l 282 951 l 283 951 q 358 1085 321 951 q 453 1153 397 1153 q 456 1153 454 1153 q 596 1033 533 1149 q 614 946 600 979 z "},"Ä":{"ha":656,"x_min":-14,"x_max":640,"o":"m 315 825 l 350 836 q 397 711 397 836 l 440 390 l 446 385 l 606 443 q 640 394 638 443 q 464 307 640 358 l 458 304 l 458 299 q 550 -6 458 269 l 550 -8 q 507 -53 550 -35 q 454 43 467 -53 q 376 272 422 113 l 371 272 q 189 208 189 235 q 38 -8 89 -8 q 3 29 8 -8 q 76 160 3 63 l 99 208 l 64 208 l 38 203 q -14 256 -14 215 q 47 304 7 304 l 82 290 q 160 347 160 290 q 315 825 231 514 m 328 572 l 246 325 q 360 368 360 347 q 328 572 339 572 m 390 878 q 351 925 361 879 q 411 960 353 960 q 443 919 443 938 q 390 878 443 881 m 233 886 q 200 928 201 886 q 250 971 201 960 q 286 925 289 954 q 233 886 268 886 z "},"Å":{"ha":656,"x_min":-14,"x_max":640,"o":"m 364 1075 q 496 999 453 1075 l 500 982 q 383 828 500 908 q 375 822 379 826 q 397 711 397 799 l 440 390 l 446 385 l 606 443 q 640 394 638 443 q 464 307 640 358 l 458 304 l 458 299 q 550 -6 458 269 l 550 -8 q 507 -53 550 -35 q 454 43 467 -53 q 376 272 422 113 l 371 272 q 189 208 189 235 q 38 -8 89 -8 q 3 29 8 -8 q 76 160 3 63 l 99 208 l 64 208 l 38 203 q -14 256 -14 215 q 47 304 7 304 l 82 290 q 160 347 160 290 q 308 801 231 519 l 288 801 q 189 850 221 801 q 179 890 179 874 l 179 899 q 314 1068 179 1010 q 364 1075 342 1075 m 249 892 q 288 843 249 843 q 431 975 374 843 l 431 989 q 357 1033 411 1033 q 336 1015 336 1033 q 288 996 336 1003 q 249 892 249 956 m 328 572 l 246 325 q 360 368 360 347 q 328 572 339 572 z "},"Æ":{"ha":876,"x_min":-14,"x_max":835,"o":"m 718 874 q 753 829 744 874 q 667 760 753 804 q 506 436 558 668 l 506 410 q 679 482 626 469 q 718 453 694 482 l 718 426 q 633 381 718 411 q 529 328 614 357 q 506 308 506 313 l 506 297 q 606 161 506 217 l 653 153 q 788 210 699 153 l 806 210 q 835 169 835 194 l 835 161 q 644 71 749 71 q 503 132 564 71 q 550 -6 511 106 l 550 -8 q 507 -53 550 -35 q 454 43 467 -53 q 378 260 421 113 l 340 253 l 313 258 q 189 208 189 229 q 38 -8 89 -8 q 3 29 8 -8 q 76 160 3 63 l 99 208 l 64 208 l 38 203 q -14 256 -14 215 q 47 304 7 304 l 82 290 q 160 347 160 290 q 315 825 231 514 l 350 836 q 397 711 397 836 l 429 479 q 597 804 460 650 q 718 874 688 874 m 328 572 l 246 325 q 360 368 360 347 q 328 572 339 572 z "},"Ç":{"ha":694,"x_min":0,"x_max":668,"o":"m 203 721 q 313 585 297 721 q 260 443 313 472 l 251 443 q 211 472 211 446 l 217 576 l 217 628 l 208 638 l 194 638 q 90 390 150 638 l 82 286 l 82 256 q 211 86 82 111 l 269 86 q 619 272 414 86 l 625 272 q 668 225 663 272 q 593 142 636 142 q 304 6 436 29 l 274 -47 l 274 -57 q 418 -117 274 -76 q 479 -214 479 -154 q 346 -375 479 -306 l 306 -382 q 221 -285 221 -372 l 221 -282 q 251 -249 221 -254 q 285 -307 278 -249 l 293 -314 l 308 -314 q 418 -224 368 -314 l 418 -210 q 285 -144 418 -174 q 214 -54 214 -111 q 217 0 214 -25 q 13 174 72 15 l 0 272 l 0 290 q 121 686 0 506 q 203 721 160 721 z "},"È":{"ha":597,"x_min":0,"x_max":561,"o":"m 443 801 q 478 758 468 801 q 390 689 478 733 q 229 364 282 594 l 229 339 q 403 411 350 399 q 443 382 419 411 l 443 356 q 321 294 443 340 q 229 238 229 244 l 229 225 q 329 90 229 147 l 376 82 q 513 139 422 82 l 529 139 q 558 99 558 125 l 558 90 q 368 0 472 0 q 151 200 219 0 l 64 182 q 0 224 0 192 q 38 269 0 256 l 69 264 q 142 294 142 285 q 321 732 142 531 q 443 801 411 801 m 561 886 q 526 844 556 847 q 444 882 460 863 q 249 1010 249 964 q 254 1025 249 1018 q 290 1067 258 1064 q 525 928 354 1049 q 561 886 558 918 z "},"É":{"ha":597,"x_min":0,"x_max":601,"o":"m 443 801 q 478 758 468 801 q 390 689 478 733 q 229 364 282 594 l 229 339 q 403 411 350 399 q 443 382 419 411 l 443 356 q 321 294 443 340 q 229 238 229 244 l 229 225 q 329 90 229 147 l 376 82 q 513 139 422 82 l 529 139 q 558 99 558 125 l 558 90 q 368 0 472 0 q 151 200 219 0 l 64 182 q 0 224 0 192 q 38 269 0 256 l 69 264 q 142 294 142 285 q 321 732 142 531 q 443 801 411 801 m 238 910 q 279 963 240 950 q 558 1071 506 1071 q 563 1071 561 1071 q 601 1019 597 1069 l 592 981 q 365 904 403 914 q 278 858 350 881 q 238 910 244 861 z "},"Ê":{"ha":597,"x_min":0,"x_max":571,"o":"m 443 801 q 478 758 468 801 q 390 689 478 733 q 229 364 282 594 l 229 339 q 403 411 350 399 q 443 382 419 411 l 443 356 q 321 294 443 340 q 229 238 229 244 l 229 225 q 329 90 229 147 l 376 82 q 513 139 422 82 l 529 139 q 558 99 558 125 l 558 90 q 368 0 472 0 q 151 200 219 0 l 64 182 q 0 224 0 192 q 38 269 0 256 l 69 264 q 142 294 142 285 q 321 732 142 531 q 443 801 411 801 m 321 1117 l 343 1126 q 518 926 385 1126 l 571 851 q 538 831 571 835 l 501 828 q 401 950 501 831 q 356 1018 374 1018 q 346 1011 350 1018 q 213 836 222 865 l 175 857 q 135 888 135 865 q 175 914 135 899 l 321 1117 z "},"Ë":{"ha":597,"x_min":0,"x_max":558,"o":"m 443 801 q 478 758 468 801 q 390 689 478 733 q 229 364 282 594 l 229 339 q 403 411 350 399 q 443 382 419 411 l 443 356 q 321 294 443 340 q 229 238 229 244 l 229 225 q 329 90 229 147 l 376 82 q 513 139 422 82 l 529 139 q 558 99 558 125 l 558 90 q 368 0 472 0 q 151 200 219 0 l 64 182 q 0 224 0 192 q 38 269 0 256 l 69 264 q 142 294 142 285 q 321 732 142 531 q 443 801 411 801 m 365 867 q 326 914 336 868 q 386 949 328 949 q 418 908 418 926 q 365 867 418 869 m 208 875 q 175 917 176 875 q 225 960 176 949 q 261 914 264 943 q 208 875 243 875 z "},"Ì":{"ha":246,"x_min":44,"x_max":375,"o":"m 92 769 q 135 735 125 769 l 126 653 l 126 626 q 169 179 161 339 q 201 31 185 31 q 153 -7 201 1 q 83 274 83 -7 l 44 635 l 44 647 q 92 769 44 769 m 375 826 q 340 785 369 788 q 258 822 274 803 q 63 950 63 904 q 68 965 63 958 q 104 1007 72 1004 q 339 868 168 989 q 375 826 372 858 z "},"Í":{"ha":246,"x_min":-82,"x_max":282,"o":"m 92 769 q 135 735 125 769 l 126 653 l 126 626 q 169 179 161 339 q 201 31 185 31 q 153 -7 201 1 q 83 274 83 -7 l 44 635 l 44 647 q 92 769 44 769 m -82 963 q -40 1015 -79 1003 q 239 1124 186 1124 q 243 1124 242 1124 q 282 1072 278 1122 l 272 1033 q 46 957 83 967 q -42 911 31 933 q -82 963 -75 914 z "},"Î":{"ha":246,"x_min":-110,"x_max":326,"o":"m 92 769 q 135 735 125 769 l 126 653 l 126 626 q 169 179 161 339 q 201 31 185 31 q 153 -7 201 1 q 83 274 83 -7 l 44 635 l 44 647 q 92 769 44 769 m 76 1089 l 99 1099 q 274 899 140 1099 l 326 824 q 293 803 326 807 l 257 800 q 157 922 257 803 q 111 990 129 990 q 101 983 106 990 q -32 808 -22 838 l -69 829 q -110 860 -110 838 q -69 886 -110 871 l 76 1089 z "},"Ï":{"ha":246,"x_min":-15,"x_max":228,"o":"m 92 769 q 135 735 125 769 l 126 653 l 126 626 q 169 179 161 339 q 201 31 185 31 q 153 -7 201 1 q 83 274 83 -7 l 44 635 l 44 647 q 92 769 44 769 m 175 807 q 136 854 146 808 q 196 889 138 889 q 228 849 228 867 q 175 807 228 810 m 18 815 q -15 857 -14 815 q 35 900 -14 889 q 71 854 74 883 q 18 815 53 815 z "},"Ð":{"ha":638,"x_min":-57,"x_max":610,"o":"m 15 660 q 103 793 15 736 q 175 811 138 811 q 554 603 372 811 q 610 390 610 493 q 363 35 610 149 q 204 0 288 3 l 121 10 q 106 43 106 21 l 103 43 q 114 71 103 63 q 99 371 104 197 l 72 371 q -57 432 -57 381 q -28 471 -57 447 l -14 471 l 50 453 l 93 453 l 82 625 l 58 611 q 15 660 22 611 m 193 729 l 181 729 l 167 658 l 163 626 l 163 610 q 176 479 163 547 l 181 479 q 381 528 342 528 q 419 488 419 519 q 325 440 419 440 l 181 389 q 196 90 181 271 l 271 90 q 528 390 528 160 q 242 721 528 638 q 193 729 224 729 z "},"Ñ":{"ha":600,"x_min":7,"x_max":668,"o":"m 132 767 q 381 260 197 746 l 401 235 l 401 313 q 554 750 401 622 q 597 703 589 750 q 493 451 493 547 q 485 364 486 451 l 485 290 q 506 17 485 194 q 461 -18 493 -18 q 371 113 429 -18 q 215 454 300 225 l 210 454 l 210 446 l 218 269 q 114 -83 218 -4 l 79 -87 q 7 -8 36 -87 q 50 35 17 35 l 58 35 l 85 13 l 89 13 q 138 260 138 78 q 85 724 138 443 q 132 767 85 761 m 668 917 q 655 907 667 907 q 601 938 643 907 q 514 1061 586 1019 l 501 1063 q 433 917 483 1063 q 332 860 390 860 q 329 860 331 860 q 168 1004 231 867 l 163 1046 q 196 1093 171 1093 q 244 1063 215 1093 l 233 1053 l 233 1036 q 322 922 232 978 l 336 922 l 338 922 q 413 1056 375 922 q 507 1124 451 1124 q 510 1124 508 1124 q 650 1004 588 1119 q 668 917 654 950 z "},"Ò":{"ha":611,"x_min":35,"x_max":582,"o":"m 203 751 l 238 757 l 251 757 q 313 722 279 757 q 486 569 374 722 q 582 249 582 389 q 443 -7 582 57 l 356 -25 q 56 288 147 -25 q 35 447 35 369 l 35 461 q 203 751 35 696 m 190 618 l 160 631 q 117 482 117 579 l 117 444 q 290 71 117 188 l 329 63 l 382 63 q 486 153 454 63 l 494 214 l 494 257 q 329 631 494 465 l 272 647 l 269 647 q 190 618 242 647 m 450 917 q 415 875 444 878 q 333 913 349 893 q 138 1040 138 994 q 143 1056 138 1049 q 179 1097 147 1094 q 414 958 243 1079 q 450 917 447 949 z "},"Ó":{"ha":611,"x_min":-11,"x_max":582,"o":"m 203 751 l 238 757 l 251 757 q 313 722 279 757 q 486 569 374 722 q 582 249 582 389 q 443 -7 582 57 l 356 -25 q 56 288 147 -25 q 35 447 35 369 l 35 461 q 203 751 35 696 m 190 618 l 160 631 q 117 482 117 579 l 117 444 q 290 71 117 188 l 329 63 l 382 63 q 486 153 454 63 l 494 214 l 494 257 q 329 631 494 465 l 272 647 l 269 647 q 190 618 242 647 m -11 910 q 31 963 -8 950 q 310 1071 257 1071 q 314 1071 313 1071 q 353 1019 349 1069 l 343 981 q 117 904 154 914 q 29 858 103 881 q -11 910 -4 861 z "},"Ô":{"ha":611,"x_min":10,"x_max":582,"o":"m 203 751 l 238 757 l 251 757 q 313 722 279 757 q 486 569 374 722 q 582 249 582 389 q 443 -7 582 57 l 356 -25 q 56 288 147 -25 q 35 447 35 369 l 35 461 q 203 751 35 696 m 190 618 l 160 631 q 117 482 117 579 l 117 444 q 290 71 117 188 l 329 63 l 382 63 q 486 153 454 63 l 494 214 l 494 257 q 329 631 494 465 l 272 647 l 269 647 q 190 618 242 647 m 196 1101 l 218 1111 q 393 911 260 1111 l 446 836 q 413 815 446 819 l 376 813 q 276 935 376 817 q 231 1003 249 1003 q 221 996 225 1003 q 88 821 97 850 l 50 842 q 10 872 10 850 q 50 899 10 883 l 196 1101 z "},"Õ":{"ha":611,"x_min":-7,"x_max":582,"o":"m 203 751 l 238 757 l 251 757 q 313 722 279 757 q 486 569 374 722 q 582 249 582 389 q 443 -7 582 57 l 356 -25 q 56 288 147 -25 q 35 447 35 369 l 35 461 q 203 751 35 696 m 190 618 l 160 631 q 117 482 117 579 l 117 444 q 290 71 117 188 l 329 63 l 382 63 q 486 153 454 63 l 494 214 l 494 257 q 329 631 494 465 l 272 647 l 269 647 q 190 618 242 647 m 499 893 q 485 883 497 883 q 432 914 474 883 q 344 1038 417 996 l 332 1039 q 264 893 314 1039 q 163 836 221 836 q 160 836 161 836 q -1 981 61 843 l -7 1022 q 26 1069 1 1069 q 75 1039 46 1069 l 64 1029 l 64 1013 q 153 899 63 954 l 167 899 l 168 899 q 243 1032 206 899 q 338 1100 282 1100 q 340 1100 339 1100 q 481 981 418 1096 q 499 893 485 926 z "},"Ö":{"ha":611,"x_min":35,"x_max":582,"o":"m 203 751 l 238 757 l 251 757 q 313 722 279 757 q 486 569 374 722 q 582 249 582 389 q 443 -7 582 57 l 356 -25 q 56 288 147 -25 q 35 447 35 369 l 35 461 q 203 751 35 696 m 190 618 l 160 631 q 117 482 117 579 l 117 444 q 290 71 117 188 l 329 63 l 382 63 q 486 153 454 63 l 494 214 l 494 257 q 329 631 494 465 l 272 647 l 269 647 q 190 618 242 647 m 308 788 q 269 835 279 789 q 329 869 271 869 q 361 829 361 847 q 308 788 361 790 m 151 796 q 118 838 119 796 q 168 881 119 869 q 204 835 207 864 q 151 796 186 796 z "},"×":{"ha":361,"x_min":29,"x_max":336,"o":"m 211 544 l 215 544 q 250 501 244 544 q 215 285 215 361 q 319 224 251 224 q 336 189 336 207 l 336 172 q 281 146 326 146 q 207 176 243 149 l 194 176 q 154 29 181 29 l 128 29 q 99 68 99 44 l 125 276 l 125 281 q 29 501 29 460 q 76 536 29 535 q 138 429 110 536 l 142 424 l 151 424 q 211 544 167 544 z "},"Ø":{"ha":611,"x_min":35,"x_max":582,"o":"m 119 128 q 35 447 35 288 l 35 461 q 203 751 35 696 l 238 757 l 251 757 q 313 722 279 757 q 382 686 342 722 l 440 806 q 485 840 453 840 q 524 800 524 831 q 444 621 508 761 l 486 569 q 582 249 582 389 q 443 -7 582 57 l 356 -25 q 175 54 250 -25 l 154 1 l 125 -7 q 85 33 85 0 q 119 128 85 49 m 290 71 l 329 63 l 382 63 q 486 153 454 63 l 494 214 l 494 257 q 404 540 494 408 l 336 401 q 211 139 265 260 q 290 71 243 101 m 190 618 l 160 631 q 117 482 117 579 l 117 444 q 160 218 117 313 q 347 611 221 354 l 329 631 l 272 647 l 269 647 q 190 618 242 647 z "},"Ù":{"ha":565,"x_min":44,"x_max":517,"o":"m 343 625 q 404 825 343 825 q 465 599 465 825 l 447 394 q 517 -8 447 133 l 517 -14 q 479 -49 517 -42 l 474 -49 q 383 147 422 -46 l 378 147 q 193 -69 306 -69 q 49 113 81 -69 l 44 194 l 44 221 l 65 538 l 65 599 q 97 642 65 626 l 110 642 q 149 590 149 642 l 149 582 l 126 211 l 126 160 q 179 13 126 49 l 204 13 q 340 304 275 56 l 361 399 l 343 625 m 411 1013 q 376 971 406 974 q 294 1008 310 989 q 99 1136 99 1090 q 104 1151 99 1144 q 140 1193 108 1190 q 375 1054 204 1175 q 411 1013 408 1044 z "},"Ú":{"ha":565,"x_min":33,"x_max":517,"o":"m 343 625 q 404 825 343 825 q 465 599 465 825 l 447 394 q 517 -8 447 133 l 517 -14 q 479 -49 517 -42 l 474 -49 q 383 147 422 -46 l 378 147 q 193 -69 306 -69 q 49 113 81 -69 l 44 194 l 44 221 l 65 538 l 65 599 q 97 642 65 626 l 110 642 q 149 590 149 642 l 149 582 l 126 211 l 126 160 q 179 13 126 49 l 204 13 q 340 304 275 56 l 361 399 l 343 625 m 33 868 q 75 921 36 908 q 354 1029 301 1029 q 358 1029 357 1029 q 397 978 393 1028 l 388 939 q 161 863 199 872 q 74 817 147 839 q 33 868 40 819 z "},"Û":{"ha":565,"x_min":44,"x_max":517,"o":"m 343 625 q 404 825 343 825 q 465 599 465 825 l 447 394 q 517 -8 447 133 l 517 -14 q 479 -49 517 -42 l 474 -49 q 383 147 422 -46 l 378 147 q 193 -69 306 -69 q 49 113 81 -69 l 44 194 l 44 221 l 65 538 l 65 599 q 97 642 65 626 l 110 642 q 149 590 149 642 l 149 582 l 126 211 l 126 160 q 179 13 126 49 l 204 13 q 340 304 275 56 l 361 399 l 343 625 m 235 1154 l 257 1164 q 432 964 299 1164 l 485 889 q 451 868 485 872 l 415 865 q 315 988 415 869 q 269 1056 288 1056 q 260 1049 264 1056 q 126 874 136 903 l 89 894 q 49 925 49 903 q 89 951 49 936 l 235 1154 z "},"Ü":{"ha":565,"x_min":44,"x_max":517,"o":"m 343 625 q 404 825 343 825 q 465 599 465 825 l 447 394 q 517 -8 447 133 l 517 -14 q 479 -49 517 -42 l 474 -49 q 383 147 422 -46 l 378 147 q 193 -69 306 -69 q 49 113 81 -69 l 44 194 l 44 221 l 65 538 l 65 599 q 97 642 65 626 l 110 642 q 149 590 149 642 l 149 582 l 126 211 l 126 160 q 179 13 126 49 l 204 13 q 340 304 275 56 l 361 399 l 343 625 m 332 874 q 293 921 303 875 q 353 956 294 956 q 385 915 385 933 q 332 874 385 876 m 175 882 q 142 924 143 882 q 192 967 143 956 q 228 921 231 950 q 175 882 210 882 z "},"Ý":{"ha":572,"x_min":10,"x_max":533,"o":"m 231 906 q 274 863 256 906 q 218 576 218 710 l 218 529 q 297 374 218 374 q 436 729 399 374 q 465 894 436 894 l 488 897 q 522 850 517 897 l 522 382 q 375 -131 522 -56 q 292 -157 347 -146 q 14 -14 169 -157 l 10 3 q 57 43 10 35 l 167 -35 q 263 -69 231 -69 l 300 -69 q 439 360 439 -69 l 439 376 l 426 376 q 292 294 374 294 q 149 425 190 294 q 135 529 135 476 l 135 542 q 231 906 157 906 m 169 1058 q 211 1111 172 1099 q 490 1219 438 1219 q 494 1219 493 1219 q 533 1168 529 1218 l 524 1129 q 297 1053 335 1063 q 210 1007 283 1031 q 169 1058 176 1010 z "},"Þ":{"ha":438,"x_min":51,"x_max":383,"o":"m 108 -11 q 64 19 89 -11 l 72 750 l 51 801 q 90 842 51 828 q 139 668 139 842 q 128 467 139 586 q 232 597 194 597 q 263 606 232 604 l 267 606 q 383 464 361 606 l 383 458 q 263 189 383 339 q 149 133 211 133 q 108 -11 147 -11 m 172 229 l 175 229 q 301 429 250 258 l 301 481 q 271 524 292 524 l 258 524 q 172 229 199 488 z "},"ß":{"ha":510,"x_min":18,"x_max":481,"o":"m 165 83 q 371 260 269 101 q 403 390 403 339 q 342 454 403 454 l 336 454 q 172 313 269 454 l 153 444 q 244 711 239 624 q 226 739 238 739 q 163 632 203 739 l 154 607 q 111 142 119 458 l 76 -85 q 40 -96 54 -96 q 22 -89 26 -96 q 18 -49 18 -82 q 47 154 18 -17 q 256 846 53 829 q 333 746 321 846 l 333 742 q 276 524 333 692 l 342 538 q 481 385 461 538 l 481 364 q 250 29 481 181 q 231 25 240 25 q 165 83 194 25 z "},"à":{"ha":406,"x_min":31,"x_max":472,"o":"m 286 536 q 347 488 347 536 l 335 461 l 326 207 q 396 -7 326 35 l 399 -28 q 361 -68 394 -68 l 353 -68 q 249 149 249 3 l 239 149 q 104 -7 183 -7 q 31 103 31 14 q 188 493 31 299 q 286 536 240 536 m 118 158 l 113 119 l 113 93 l 126 93 q 231 410 231 353 l 225 410 q 118 158 144 319 m 472 589 q 438 547 467 550 q 356 585 371 565 q 160 713 160 667 q 165 728 160 721 q 201 769 169 767 q 436 631 265 751 q 472 589 469 621 z "},"á":{"ha":406,"x_min":31,"x_max":413,"o":"m 286 536 q 347 488 347 536 l 335 461 l 326 207 q 396 -7 326 35 l 399 -28 q 361 -68 394 -68 l 353 -68 q 249 149 249 3 l 239 149 q 104 -7 183 -7 q 31 103 31 14 q 188 493 31 299 q 286 536 240 536 m 118 158 l 113 119 l 113 93 l 126 93 q 231 410 231 353 l 225 410 q 118 158 144 319 m 49 692 q 90 744 51 732 q 369 853 317 853 q 374 853 372 853 q 413 801 408 851 l 403 763 q 176 686 214 696 q 89 640 161 664 q 49 692 56 643 z "},"â":{"ha":406,"x_min":-12,"x_max":424,"o":"m 286 536 q 347 488 347 536 l 335 461 l 326 207 q 396 -7 326 35 l 399 -28 q 361 -68 394 -68 l 353 -68 q 249 149 249 3 l 239 149 q 104 -7 183 -7 q 31 103 31 14 q 188 493 31 299 q 286 536 240 536 m 118 158 l 113 119 l 113 93 l 126 93 q 231 410 231 353 l 225 410 q 118 158 144 319 m 174 876 l 196 886 q 371 686 238 886 l 424 611 q 390 590 424 594 l 354 588 q 254 710 354 590 q 208 778 226 778 q 199 771 203 778 q 65 596 75 625 l 28 617 q -12 647 -12 625 q 28 674 -12 658 l 174 876 z "},"ã":{"ha":406,"x_min":31,"x_max":475,"o":"m 286 536 q 347 488 347 536 l 335 461 l 326 207 q 396 -7 326 35 l 399 -28 q 361 -68 394 -68 l 353 -68 q 249 149 249 3 l 239 149 q 104 -7 183 -7 q 31 103 31 14 q 188 493 31 299 q 286 536 240 536 m 118 158 l 113 119 l 113 93 l 126 93 q 231 410 231 353 l 225 410 q 118 158 144 319 m 475 628 q 464 619 474 619 q 418 649 454 619 q 343 769 403 731 l 332 771 q 272 628 315 771 q 188 572 238 572 q 44 714 101 572 l 39 756 q 68 801 47 801 q 110 771 85 801 l 100 763 l 100 746 q 176 633 99 690 l 189 633 l 190 633 l 222 665 q 256 765 239 699 q 336 832 288 832 q 460 714 404 832 q 475 628 464 667 z "},"ä":{"ha":406,"x_min":31,"x_max":399,"o":"m 286 536 q 347 488 347 536 l 335 461 l 326 207 q 396 -7 326 35 l 399 -28 q 361 -68 394 -68 l 353 -68 q 249 149 249 3 l 239 149 q 104 -7 183 -7 q 31 103 31 14 q 188 493 31 299 q 286 536 240 536 m 118 158 l 113 119 l 113 93 l 126 93 q 231 410 231 353 l 225 410 q 118 158 144 319 m 274 618 q 235 665 244 619 q 294 700 236 700 q 326 660 326 678 q 274 618 326 621 m 117 626 q 83 668 85 626 q 133 711 85 700 q 169 665 172 694 q 117 626 151 626 z "},"å":{"ha":406,"x_min":31,"x_max":418,"o":"m 311 786 q 415 704 382 786 l 418 688 q 329 526 418 610 q 347 488 347 514 l 335 461 l 326 207 q 396 -7 326 35 l 399 -28 q 361 -68 394 -68 l 353 -68 q 249 149 249 3 l 239 149 q 104 -7 183 -7 q 31 103 31 14 q 188 493 31 299 l 204 507 q 173 545 183 519 q 163 590 163 571 l 163 599 q 271 779 163 717 q 311 786 292 786 m 250 703 q 218 599 218 658 q 250 540 218 540 q 363 681 318 540 l 363 694 q 306 742 349 742 q 288 722 288 742 q 250 703 288 708 m 118 158 l 113 119 l 113 93 l 126 93 q 231 410 231 353 l 225 410 q 118 158 144 319 z "},"æ":{"ha":707,"x_min":31,"x_max":654,"o":"m 394 481 q 582 286 451 478 l 585 264 q 394 203 585 224 l 390 200 l 390 194 q 451 69 419 69 l 468 69 q 603 165 514 69 l 611 165 q 654 125 639 165 q 538 8 654 89 q 464 -18 507 -8 q 336 90 382 -18 q 396 -7 356 15 l 399 -28 q 361 -68 394 -68 l 353 -68 q 249 149 249 3 l 239 149 q 104 -7 183 -7 q 31 103 31 14 q 188 493 31 299 q 286 536 240 536 q 347 488 347 536 l 335 461 l 335 453 q 394 481 356 481 m 118 158 l 113 119 l 113 93 l 126 93 q 231 410 231 353 l 225 410 q 118 158 144 319 m 403 382 l 390 382 l 385 329 l 385 286 l 390 286 q 468 304 468 290 q 403 382 432 357 z "},"ç":{"ha":438,"x_min":35,"x_max":406,"o":"m 168 471 l 225 479 q 264 436 260 479 q 174 388 264 399 q 117 274 117 343 l 117 228 q 211 75 144 75 l 225 75 q 342 149 264 75 l 350 149 q 394 110 378 149 q 269 1 375 50 q 224 -7 250 -6 l 201 -47 l 201 -57 q 346 -117 201 -76 q 406 -214 406 -154 q 272 -375 406 -306 l 232 -382 q 147 -285 147 -372 l 147 -282 q 179 -249 147 -256 q 211 -307 206 -249 l 221 -314 l 236 -314 q 346 -224 293 -314 l 346 -210 q 211 -144 346 -174 q 140 -54 140 -111 q 147 10 140 -11 q 35 218 67 58 l 35 249 q 168 471 35 411 z "},"è":{"ha":438,"x_min":0,"x_max":411,"o":"m 151 499 q 339 304 207 497 l 342 281 q 151 221 342 242 l 147 217 l 147 211 q 208 86 176 86 l 225 86 q 360 182 269 86 l 368 182 q 411 142 396 182 q 294 26 411 108 q 221 0 264 8 q 64 211 108 0 q 0 264 0 221 q 47 304 0 294 l 47 299 l 61 304 l 61 339 q 151 499 61 499 m 160 399 l 147 399 l 142 347 l 142 304 l 147 304 q 225 321 225 307 q 160 399 189 375 m 257 638 q 239 607 253 608 q 194 635 201 622 q 90 726 90 693 q 93 738 90 732 q 113 767 94 764 q 238 667 146 756 q 257 638 257 660 z "},"é":{"ha":438,"x_min":0,"x_max":411,"o":"m 151 499 q 339 304 207 497 l 342 281 q 151 221 342 242 l 147 217 l 147 211 q 208 86 176 86 l 225 86 q 360 182 269 86 l 368 182 q 411 142 396 182 q 294 26 411 108 q 221 0 264 8 q 64 211 108 0 q 0 264 0 221 q 47 304 0 294 l 47 299 l 61 304 l 61 339 q 151 499 61 499 m 160 399 l 147 399 l 142 347 l 142 304 l 147 304 q 225 321 225 307 q 160 399 189 375 m 63 624 q 92 667 65 657 q 282 751 244 751 q 313 711 311 751 l 306 681 q 150 619 160 622 q 90 583 140 603 q 63 624 67 586 z "},"ê":{"ha":438,"x_min":-24,"x_max":411,"o":"m 151 499 q 339 304 207 497 l 342 281 q 151 221 342 242 l 147 217 l 147 211 q 208 86 176 86 l 225 86 q 360 182 269 86 l 368 182 q 411 142 396 182 q 294 26 411 108 q 221 0 264 8 q 64 211 108 0 q 0 264 0 221 q 47 304 0 294 l 47 299 l 61 304 l 61 339 q 151 499 61 499 m 160 399 l 147 399 l 142 347 l 142 304 l 147 304 q 225 321 225 307 q 160 399 189 375 m 138 763 l 157 769 q 308 638 193 769 l 354 589 q 325 575 354 578 l 293 572 q 207 653 293 575 q 168 697 183 697 q 160 693 164 697 q 44 578 53 597 l 11 592 q -24 613 -24 597 q 11 629 -24 619 l 138 763 z "},"ë":{"ha":438,"x_min":0,"x_max":411,"o":"m 151 499 q 339 304 207 497 l 342 281 q 151 221 342 242 l 147 217 l 147 211 q 208 86 176 86 l 225 86 q 360 182 269 86 l 368 182 q 411 142 396 182 q 294 26 411 108 q 221 0 264 8 q 64 211 108 0 q 0 264 0 221 q 47 304 0 294 l 47 299 l 61 304 l 61 339 q 151 499 61 499 m 160 399 l 147 399 l 142 347 l 142 304 l 147 304 q 225 321 225 307 q 160 399 189 375 m 240 540 q 201 588 211 542 q 261 622 203 622 q 293 582 293 600 q 240 540 293 543 m 83 549 q 50 590 51 549 q 100 633 51 622 q 136 588 139 617 q 83 549 118 549 z "},"ì":{"ha":204,"x_min":4,"x_max":228,"o":"m 96 529 q 133 489 118 529 l 121 390 l 121 325 q 160 26 121 211 q 113 0 146 0 q 38 333 56 0 l 38 382 q 96 529 38 529 m 228 628 q 203 599 222 600 q 144 625 154 614 q 4 714 4 683 q 8 724 4 719 q 35 753 13 751 q 201 656 81 742 q 228 628 225 649 z "},"í":{"ha":204,"x_min":-4,"x_max":251,"o":"m 96 529 q 133 489 118 529 l 121 390 l 121 325 q 160 26 121 211 q 113 0 146 0 q 38 333 56 0 l 38 382 q 96 529 38 529 m -4 674 q 24 718 -4 707 q 221 814 185 814 q 251 769 244 814 l 243 735 l 85 668 q 24 626 76 647 q -4 674 0 631 z "},"î":{"ha":204,"x_min":-50,"x_max":250,"o":"m 96 529 q 133 489 118 529 l 121 390 l 121 325 q 160 26 121 211 q 113 0 146 0 q 38 333 56 0 l 38 382 q 96 529 38 529 m 78 783 l 93 788 q 214 647 119 788 l 250 593 q 228 579 250 581 l 201 576 q 133 665 201 581 q 103 713 113 713 q 96 707 99 713 q 3 583 8 603 l -22 597 q -50 619 -50 604 q -22 639 -50 626 l 78 783 z "},"ï":{"ha":204,"x_min":-21,"x_max":222,"o":"m 96 529 q 133 489 118 529 l 121 390 l 121 325 q 160 26 121 211 q 113 0 146 0 q 38 333 56 0 l 38 382 q 96 529 38 529 m 169 618 q 131 665 140 619 q 190 700 132 700 q 222 660 222 678 q 169 618 222 621 m 13 626 q -21 668 -19 626 q 29 711 -19 700 q 65 665 68 694 q 13 626 47 626 z "},"ð":{"ha":575,"x_min":49,"x_max":563,"o":"m 292 481 l 360 475 q 346 517 351 503 l 285 596 q 326 633 285 621 q 374 611 343 633 q 453 468 425 551 l 543 461 l 551 461 q 563 414 563 433 q 507 371 563 371 q 472 374 492 371 q 475 307 475 332 l 475 258 q 290 13 447 13 l 218 19 q 49 224 49 106 l 49 232 q 190 343 49 326 q 374 256 289 343 l 388 256 l 388 300 q 381 385 388 339 q 251 432 251 385 q 292 481 258 481 m 349 119 l 349 125 q 190 274 299 274 q 135 232 135 272 l 135 222 q 276 82 181 82 l 285 82 q 349 119 325 82 z "},"ñ":{"ha":385,"x_min":-37,"x_max":468,"o":"m 207 468 q 325 353 325 458 l 328 335 l 325 118 q 368 17 325 81 l 368 14 q 328 -26 357 -26 q 242 126 242 10 l 242 144 l 238 147 l 242 153 l 242 156 l 246 347 q 211 388 246 388 l 194 388 q 125 83 125 360 q 76 -12 125 -12 q 38 35 39 -12 l 38 174 q 85 443 38 443 l 99 447 l 128 443 q 207 468 165 468 m 468 601 q 455 592 467 592 q 401 622 443 592 q 314 746 386 704 l 301 747 q 233 601 283 747 q 132 544 190 544 q 129 544 131 544 q -32 689 31 551 l -37 731 q -4 778 -29 778 q 44 747 15 778 l 33 738 l 33 721 q 122 607 32 663 l 136 607 l 138 607 q 213 740 175 607 q 307 808 251 808 q 310 808 308 808 q 450 689 388 804 q 468 601 454 635 z "},"ò":{"ha":444,"x_min":28,"x_max":410,"o":"m 249 524 q 404 371 351 524 l 410 342 q 271 38 410 193 q 158 -14 215 -14 q 40 82 75 -14 q 28 160 28 126 l 28 176 q 188 510 28 396 q 249 524 215 524 m 110 163 q 158 68 110 68 q 326 328 260 68 l 326 354 q 239 440 303 440 q 214 406 214 440 q 158 368 214 382 q 110 163 110 286 m 383 618 q 349 576 378 579 q 267 614 282 594 q 71 742 71 696 q 76 757 71 750 q 113 799 81 796 q 347 660 176 781 q 383 618 381 650 z "},"ó":{"ha":444,"x_min":13,"x_max":410,"o":"m 249 524 q 404 371 351 524 l 410 342 q 271 38 410 193 q 158 -14 215 -14 q 40 82 75 -14 q 28 160 28 126 l 28 176 q 188 510 28 396 q 249 524 215 524 m 110 163 q 158 68 110 68 q 326 328 260 68 l 326 354 q 239 440 303 440 q 214 406 214 440 q 158 368 214 382 q 110 163 110 286 m 13 697 q 54 750 15 738 q 333 858 281 858 q 338 858 336 858 q 376 807 372 857 l 367 768 q 140 692 178 701 q 53 646 125 669 q 13 697 19 649 z "},"ô":{"ha":444,"x_min":7,"x_max":443,"o":"m 249 524 q 404 371 351 524 l 410 342 q 271 38 410 193 q 158 -14 215 -14 q 40 82 75 -14 q 28 160 28 126 l 28 176 q 188 510 28 396 q 249 524 215 524 m 110 163 q 158 68 110 68 q 326 328 260 68 l 326 354 q 239 440 303 440 q 214 406 214 440 q 158 368 214 382 q 110 163 110 286 m 193 871 l 215 881 q 390 681 257 881 l 443 606 q 410 585 443 589 l 374 582 q 274 704 374 586 q 228 772 246 772 q 218 765 222 772 q 85 590 94 619 l 47 611 q 7 642 7 619 q 47 668 7 653 l 193 871 z "},"õ":{"ha":444,"x_min":19,"x_max":517,"o":"m 249 524 q 404 371 351 524 l 410 342 q 271 38 410 193 q 158 -14 215 -14 q 40 82 75 -14 q 28 160 28 126 l 28 176 q 188 510 28 396 q 249 524 215 524 m 110 163 q 158 68 110 68 q 326 328 260 68 l 326 354 q 239 440 303 440 q 214 406 214 440 q 158 368 214 382 q 110 163 110 286 m 517 650 q 503 642 515 642 q 451 668 492 642 q 365 778 438 740 l 353 779 q 286 650 333 779 q 186 600 244 600 q 25 728 88 600 l 19 764 q 51 807 28 807 q 100 779 71 807 l 89 771 l 89 756 q 176 654 88 704 l 190 654 l 192 654 q 265 772 226 654 q 358 833 301 833 q 361 833 360 833 q 499 728 439 829 q 517 650 503 679 z "},"ö":{"ha":444,"x_min":28,"x_max":410,"o":"m 249 524 q 404 371 351 524 l 410 342 q 271 38 410 193 q 158 -14 215 -14 q 40 82 75 -14 q 28 160 28 126 l 28 176 q 188 510 28 396 q 249 524 215 524 m 110 163 q 158 68 110 68 q 326 328 260 68 l 326 354 q 239 440 303 440 q 214 406 214 440 q 158 368 214 382 q 110 163 110 286 m 293 618 q 254 665 264 619 q 314 700 256 700 q 346 660 346 678 q 293 618 346 621 m 136 626 q 103 668 104 626 q 153 711 104 700 q 189 665 192 694 q 136 626 171 626 z "},"÷":{"ha":422,"x_min":15,"x_max":406,"o":"m 190 438 q 235 389 228 438 q 190 346 235 361 q 151 403 156 346 q 190 438 169 438 m 196 151 q 239 102 239 135 q 201 64 239 69 q 153 111 167 64 q 196 151 168 151 m 114 304 l 367 321 q 406 278 400 321 q 276 235 406 235 q 106 221 179 221 q 15 272 15 232 q 54 315 15 301 l 106 304 l 114 304 z "},"ø":{"ha":444,"x_min":-1,"x_max":438,"o":"m 397 696 q 438 656 438 685 q 353 471 428 628 q 404 371 383 435 l 410 342 q 271 38 410 193 q 158 -14 215 -14 q 124 -8 136 -14 q 68 -143 89 -86 l 38 -151 q -1 -111 -1 -146 q 58 42 -1 -90 q 39 90 50 54 q 28 160 28 126 l 28 176 q 188 510 28 396 q 240 524 215 524 q 285 519 265 524 q 354 661 331 611 q 397 696 367 696 m 156 68 l 158 68 q 326 328 260 68 l 326 354 l 314 389 l 156 68 m 110 163 l 110 153 q 246 440 154 253 l 239 440 q 214 406 214 440 q 158 368 214 382 q 110 163 110 286 z "},"ù":{"ha":454,"x_min":51,"x_max":451,"o":"m 82 418 l 107 432 q 156 392 140 432 q 133 181 133 289 q 165 63 133 126 l 174 63 q 269 381 214 63 q 307 397 289 397 q 350 244 350 397 q 390 76 368 76 l 411 85 q 451 42 451 69 q 382 -11 426 -11 q 286 89 332 -11 q 174 -28 231 -28 q 56 149 89 -28 l 51 193 l 51 207 q 82 418 51 318 m 351 564 q 319 522 346 525 q 247 560 260 540 q 72 686 72 640 q 78 701 72 694 q 110 743 82 740 q 319 604 164 726 q 351 564 350 594 z "},"ú":{"ha":454,"x_min":51,"x_max":451,"o":"m 82 418 l 107 432 q 156 392 140 432 q 133 181 133 289 q 165 63 133 126 l 174 63 q 269 381 214 63 q 307 397 289 397 q 350 244 350 397 q 390 76 368 76 l 411 85 q 451 42 451 69 q 382 -11 426 -11 q 286 89 332 -11 q 174 -28 231 -28 q 56 149 89 -28 l 51 193 l 51 207 q 82 418 51 318 m 118 561 q 146 601 119 592 q 332 686 297 686 q 360 646 357 686 l 353 615 q 203 557 217 561 q 144 521 193 540 q 118 561 122 522 z "},"û":{"ha":454,"x_min":51,"x_max":451,"o":"m 82 418 l 107 432 q 156 392 140 432 q 133 181 133 289 q 165 63 133 126 l 174 63 q 269 381 214 63 q 307 397 289 397 q 350 244 350 397 q 390 76 368 76 l 411 85 q 451 42 451 69 q 382 -11 426 -11 q 286 89 332 -11 q 174 -28 231 -28 q 56 149 89 -28 l 51 193 l 51 207 q 82 418 51 318 m 208 657 l 226 663 q 363 546 258 663 l 403 503 q 378 490 403 492 l 349 489 q 271 560 349 490 q 235 600 249 600 q 181 554 231 600 q 124 493 132 508 l 94 506 q 64 524 64 511 q 94 539 64 531 l 208 657 z "},"ü":{"ha":454,"x_min":51,"x_max":451,"o":"m 82 418 l 107 432 q 156 392 140 432 q 133 181 133 289 q 165 63 133 126 l 174 63 q 269 381 214 63 q 307 397 289 397 q 350 244 350 397 q 390 76 368 76 l 411 85 q 451 42 451 69 q 382 -11 426 -11 q 286 89 332 -11 q 174 -28 231 -28 q 56 149 89 -28 l 51 193 l 51 207 q 82 418 51 318 m 297 499 q 258 546 268 500 q 318 581 260 581 q 350 540 350 558 q 297 499 350 501 m 140 507 q 107 549 108 507 q 157 592 108 581 q 193 546 196 575 q 140 507 175 507 z "},"ý":{"ha":368,"x_min":-28,"x_max":332,"o":"m 71 417 q 138 203 119 417 q 172 104 161 104 l 181 104 q 215 278 215 192 l 207 374 q 250 411 222 411 q 301 229 301 411 q 332 -122 332 40 l 332 -187 q 163 -590 332 -486 l 132 -596 q -15 -449 53 -596 l -28 -365 l -28 -361 q 24 -269 -28 -269 l 58 -292 l 54 -379 q 119 -508 54 -443 l 138 -508 q 250 -217 214 -508 l 253 -136 q 242 43 251 4 q 154 -6 186 -6 q 28 374 83 -6 l 24 376 q 71 417 24 408 m 72 600 q 99 638 75 628 q 278 715 240 715 q 306 678 303 715 l 299 650 q 154 596 171 601 q 99 563 146 576 q 72 600 79 564 z "},"þ":{"ha":364,"x_min":15,"x_max":335,"o":"m 161 535 q 335 349 307 535 q 182 114 335 188 q 135 106 165 106 l 126 106 l 96 110 l 96 106 l 99 35 q 56 -8 89 -8 q 15 31 15 3 l 15 632 q 47 676 31 676 q 78 640 63 676 l 78 514 q 161 535 117 535 m 92 388 l 86 343 l 92 196 l 131 188 q 251 322 225 188 l 251 343 q 174 453 242 453 l 153 453 q 92 388 92 453 z "},"ÿ":{"ha":368,"x_min":-28,"x_max":332,"o":"m 71 417 q 138 203 119 417 q 172 104 161 104 l 181 104 q 215 278 215 192 l 207 374 q 250 411 222 411 q 301 229 301 411 q 332 -122 332 40 l 332 -187 q 163 -590 332 -486 l 132 -596 q -15 -449 53 -596 l -28 -365 l -28 -361 q 24 -269 -28 -269 l 58 -292 l 54 -379 q 119 -508 54 -443 l 138 -508 q 250 -217 214 -508 l 253 -136 q 242 43 251 4 q 154 -6 186 -6 q 28 374 83 -6 l 24 376 q 71 417 24 408 m 242 493 q 203 540 213 494 q 263 575 204 575 q 294 535 294 553 q 242 493 294 496 m 85 501 q 51 543 53 501 q 101 586 53 575 q 138 540 140 569 q 85 501 119 501 z "},"Ā":{"ha":656,"x_min":-14,"x_max":640,"o":"m 315 825 l 350 836 q 397 711 397 836 l 440 390 l 446 385 l 606 443 q 640 394 638 443 q 464 307 640 358 l 458 304 l 458 299 q 550 -6 458 269 l 550 -8 q 507 -53 550 -35 q 454 43 467 -53 q 376 272 422 113 l 371 272 q 189 208 189 235 q 38 -8 89 -8 q 3 29 8 -8 q 76 160 3 63 l 99 208 l 64 208 l 38 203 q -14 256 -14 215 q 47 304 7 304 l 82 290 q 160 347 160 290 q 315 825 231 514 m 328 572 l 246 325 q 360 368 360 347 q 328 572 339 572 m 222 985 l 474 1001 q 514 958 508 1001 q 383 915 514 915 q 214 901 288 901 q 124 953 124 913 q 161 997 124 981 l 214 985 l 222 985 z "},"ā":{"ha":406,"x_min":31,"x_max":431,"o":"m 286 536 q 347 488 347 536 l 335 461 l 326 207 q 396 -7 326 35 l 399 -28 q 361 -68 394 -68 l 353 -68 q 249 149 249 3 l 239 149 q 104 -7 183 -7 q 31 103 31 14 q 188 493 31 299 q 286 536 240 536 m 118 158 l 113 119 l 113 93 l 126 93 q 231 410 231 353 l 225 410 q 118 158 144 319 m 139 728 l 390 744 q 431 701 425 744 q 300 658 431 658 q 131 644 204 644 q 40 696 40 656 q 78 740 40 724 l 131 728 l 139 728 z "},"Ă":{"ha":656,"x_min":-14,"x_max":640,"o":"m 315 825 l 350 836 q 397 711 397 836 l 440 390 l 446 385 l 606 443 q 640 394 638 443 q 464 307 640 358 l 458 304 l 458 299 q 550 -6 458 269 l 550 -8 q 507 -53 550 -35 q 454 43 467 -53 q 376 272 422 113 l 371 272 q 189 208 189 235 q 38 -8 89 -8 q 3 29 8 -8 q 76 160 3 63 l 99 208 l 64 208 l 38 203 q -14 256 -14 215 q 47 304 7 304 l 82 290 q 160 347 160 290 q 315 825 231 514 m 328 572 l 246 325 q 360 368 360 347 q 328 572 339 572 m 307 972 q 413 1099 399 972 l 463 1099 q 399 958 457 989 q 315 932 343 932 q 312 932 314 932 q 307 932 310 932 q 208 990 225 932 q 197 1053 197 1029 q 201 1093 197 1078 l 253 1092 l 253 1021 q 299 972 253 972 q 307 972 303 972 z "},"ă":{"ha":406,"x_min":31,"x_max":399,"o":"m 286 536 q 347 488 347 536 l 335 461 l 326 207 q 396 -7 326 35 l 399 -28 q 361 -68 394 -68 l 353 -68 q 249 149 249 3 l 239 149 q 104 -7 183 -7 q 31 103 31 14 q 188 493 31 299 q 286 536 240 536 m 118 158 l 113 119 l 113 93 l 126 93 q 231 410 231 353 l 225 410 q 118 158 144 319 m 183 632 q 289 758 275 632 l 339 758 q 275 618 333 649 q 192 592 219 592 q 188 592 190 592 q 183 592 186 592 q 85 650 101 592 q 74 713 74 689 q 78 753 74 738 l 129 751 l 129 681 q 175 632 129 632 q 183 632 179 632 z "},"Ą":{"ha":656,"x_min":-14,"x_max":644,"o":"m 315 825 l 350 836 q 397 711 397 836 l 440 390 l 446 385 l 606 443 q 640 394 638 443 q 464 307 640 358 l 458 304 l 458 299 q 550 -6 458 269 l 550 -8 q 507 -53 550 -35 l 506 -53 l 432 -140 l 432 -154 q 462 -161 432 -161 q 603 -136 492 -161 q 644 -133 644 -117 q 631 -165 644 -143 q 446 -258 590 -228 q 350 -150 350 -219 q 461 3 350 -62 q 454 43 456 28 q 376 272 422 113 l 371 272 q 189 208 189 235 q 38 -8 89 -8 q 3 29 8 -8 q 76 160 3 63 l 99 208 l 64 208 l 38 203 q -14 256 -14 215 q 47 304 7 304 l 82 290 q 160 347 160 290 q 315 825 231 514 m 328 572 l 246 325 q 360 368 360 347 q 328 572 339 572 z "},"ą":{"ha":406,"x_min":31,"x_max":478,"o":"m 286 536 q 347 488 347 536 l 335 461 l 326 207 q 396 -7 326 35 l 399 -28 q 361 -68 394 -68 l 353 -68 l 339 -57 l 265 -147 l 265 -161 q 295 -168 265 -168 q 436 -143 325 -168 q 478 -140 478 -124 q 464 -172 478 -150 q 279 -265 424 -235 q 183 -157 183 -225 q 290 -6 183 -71 q 249 149 249 56 l 239 149 q 104 -7 183 -7 q 31 103 31 14 q 188 493 31 299 q 286 536 240 536 m 118 158 l 113 119 l 113 93 l 126 93 q 231 410 231 353 l 225 410 q 118 158 144 319 z "},"Ć":{"ha":694,"x_min":0,"x_max":668,"o":"m 203 721 q 313 585 297 721 q 260 443 313 472 l 251 443 q 211 472 211 446 l 217 576 l 217 628 l 208 638 l 194 638 q 90 390 150 638 l 82 286 l 82 256 q 211 86 82 111 l 269 86 q 619 272 414 86 l 625 272 q 668 225 663 272 q 593 142 636 142 q 236 0 394 0 q 13 174 78 0 l 0 272 l 0 290 q 121 686 0 506 q 203 721 160 721 m 31 890 q 72 943 33 931 q 351 1051 299 1051 q 356 1051 354 1051 q 394 1000 390 1050 l 385 961 q 158 885 196 894 q 71 839 144 861 q 31 890 38 842 z "},"ć":{"ha":438,"x_min":24,"x_max":394,"o":"m 168 471 l 225 479 q 264 436 260 479 q 174 388 264 399 q 117 274 117 343 l 117 228 q 211 75 144 75 l 225 75 q 342 149 264 75 l 350 149 q 394 110 378 149 q 269 1 375 50 q 221 -7 250 -7 q 35 218 78 -7 l 35 249 q 168 471 35 411 m 24 633 q 65 686 26 674 q 344 794 292 794 q 349 794 347 794 q 388 743 383 793 l 378 704 q 151 628 189 638 q 64 582 136 606 q 24 633 31 585 z "},"Ĉ":{"ha":694,"x_min":0,"x_max":668,"o":"m 203 721 q 313 585 297 721 q 260 443 313 472 l 251 443 q 211 472 211 446 l 217 576 l 217 628 l 208 638 l 194 638 q 90 390 150 638 l 82 286 l 82 256 q 211 86 82 111 l 269 86 q 619 272 414 86 l 625 272 q 668 225 663 272 q 593 142 636 142 q 236 0 394 0 q 13 174 78 0 l 0 272 l 0 290 q 121 686 0 506 q 203 721 160 721 m 243 1086 l 265 1096 q 440 896 307 1096 l 493 821 q 460 800 493 804 l 424 797 q 324 919 424 800 q 278 988 296 988 q 268 981 272 988 q 135 806 144 835 l 97 826 q 57 857 57 835 q 97 883 57 868 l 243 1086 z "},"ĉ":{"ha":438,"x_min":3,"x_max":439,"o":"m 168 471 l 225 479 q 264 436 260 479 q 174 388 264 399 q 117 274 117 343 l 117 228 q 211 75 144 75 l 225 75 q 342 149 264 75 l 350 149 q 394 110 378 149 q 269 1 375 50 q 221 -7 250 -7 q 35 218 78 -7 l 35 249 q 168 471 35 411 m 189 1044 l 211 1054 q 386 854 253 1054 l 439 779 q 406 758 439 763 l 369 756 q 269 878 369 758 q 224 946 242 946 q 214 939 218 946 q 81 764 92 793 l 43 785 q 3 815 3 793 q 43 842 3 826 l 189 1044 z "},"Ċ":{"ha":694,"x_min":0,"x_max":668,"o":"m 203 721 q 313 585 297 721 q 260 443 313 472 l 251 443 q 211 472 211 446 l 217 576 l 217 628 l 208 638 l 194 638 q 90 390 150 638 l 82 286 l 82 256 q 211 86 82 111 l 269 86 q 619 272 414 86 l 625 272 q 668 225 663 272 q 593 142 636 142 q 236 0 394 0 q 13 174 78 0 l 0 272 l 0 290 q 121 686 0 506 q 203 721 160 721 m 263 985 q 311 918 304 985 q 243 854 299 854 q 189 918 201 854 q 263 985 211 985 z "},"ċ":{"ha":438,"x_min":35,"x_max":394,"o":"m 168 471 l 225 479 q 264 436 260 479 q 174 388 264 399 q 117 274 117 343 l 117 228 q 211 75 144 75 l 225 75 q 342 149 264 75 l 350 149 q 394 110 378 149 q 269 1 375 50 q 221 -7 250 -7 q 35 218 78 -7 l 35 249 q 168 471 35 411 m 231 764 q 279 697 272 764 q 211 633 267 633 q 157 697 169 633 q 231 764 181 764 z "},"Č":{"ha":694,"x_min":0,"x_max":668,"o":"m 203 721 q 313 585 297 721 q 260 443 313 472 l 251 443 q 211 472 211 446 l 217 576 l 217 628 l 208 638 l 194 638 q 90 390 150 638 l 82 286 l 82 256 q 211 86 82 111 l 269 86 q 619 272 414 86 l 625 272 q 668 225 663 272 q 593 142 636 142 q 236 0 394 0 q 13 174 78 0 l 0 272 l 0 290 q 121 686 0 506 q 203 721 160 721 m 293 839 l 271 849 l 111 1032 q 67 1057 67 1047 q 111 1085 67 1074 l 126 1082 q 301 911 161 1078 q 372 985 315 919 q 501 1108 467 1108 l 504 1108 q 542 1089 542 1106 l 486 1022 q 293 839 340 839 z "},"č":{"ha":438,"x_min":-17,"x_max":458,"o":"m 168 471 l 225 479 q 264 436 260 479 q 174 388 264 399 q 117 274 117 343 l 117 228 q 211 75 144 75 l 225 75 q 342 149 264 75 l 350 149 q 394 110 378 149 q 269 1 375 50 q 221 -7 250 -7 q 35 218 78 -7 l 35 249 q 168 471 35 411 m 210 538 l 188 547 l 28 731 q -17 756 -17 746 q 28 783 -17 772 l 43 781 q 218 610 78 776 q 289 683 232 618 q 418 807 383 807 l 421 807 q 458 788 458 806 l 403 721 q 210 538 257 538 z "},"Ď":{"ha":621,"x_min":0,"x_max":593,"o":"m 160 811 q 538 603 356 811 q 593 390 593 493 q 347 35 593 149 q 176 0 268 0 l 142 0 q 90 43 90 1 l 86 43 q 133 82 86 81 l 165 82 l 165 90 l 168 90 q 82 633 82 456 l 78 633 l 43 611 q 0 660 7 611 q 86 793 0 736 q 160 811 121 811 m 176 729 l 165 729 l 165 663 q 251 90 165 435 l 256 90 q 513 390 513 160 q 225 721 513 638 q 176 729 208 729 m 301 968 l 279 978 l 119 1161 q 75 1186 75 1176 q 119 1214 75 1203 l 135 1211 q 310 1040 169 1207 q 381 1114 324 1049 q 510 1238 475 1238 l 513 1238 q 550 1218 550 1236 l 494 1151 q 301 968 349 968 z "},"Ē":{"ha":597,"x_min":0,"x_max":558,"o":"m 443 801 q 478 758 468 801 q 390 689 478 733 q 229 364 282 594 l 229 339 q 403 411 350 399 q 443 382 419 411 l 443 356 q 321 294 443 340 q 229 238 229 244 l 229 225 q 329 90 229 147 l 376 82 q 513 139 422 82 l 529 139 q 558 99 558 125 l 558 90 q 368 0 472 0 q 151 200 219 0 l 64 182 q 0 224 0 192 q 38 269 0 256 l 69 264 q 142 294 142 285 q 321 732 142 531 q 443 801 411 801 m 254 992 l 506 1008 q 546 965 540 1008 q 415 922 546 922 q 246 908 319 908 q 156 960 156 919 q 193 1004 156 988 l 246 992 l 254 992 z "},"ē":{"ha":438,"x_min":-4,"x_max":411,"o":"m 151 499 q 339 304 207 497 l 342 281 q 151 221 342 242 l 147 217 l 147 211 q 208 86 176 86 l 225 86 q 360 182 269 86 l 368 182 q 411 142 396 182 q 294 26 411 108 q 221 0 264 8 q 64 211 108 0 q 0 264 0 221 q 47 304 0 294 l 47 299 l 61 304 l 61 339 q 151 499 61 499 m 160 399 l 147 399 l 142 347 l 142 304 l 147 304 q 225 321 225 307 q 160 399 189 375 m 94 697 l 346 714 q 386 671 381 714 q 256 628 386 628 q 86 614 160 614 q -4 665 -4 625 q 33 710 -4 693 l 86 697 l 94 697 z "},"Ĕ":{"ha":597,"x_min":0,"x_max":558,"o":"m 443 801 q 478 758 468 801 q 390 689 478 733 q 229 364 282 594 l 229 339 q 403 411 350 399 q 443 382 419 411 l 443 356 q 321 294 443 340 q 229 238 229 244 l 229 225 q 329 90 229 147 l 376 82 q 513 139 422 82 l 529 139 q 558 99 558 125 l 558 90 q 368 0 472 0 q 151 200 219 0 l 64 182 q 0 224 0 192 q 38 269 0 256 l 69 264 q 142 294 142 285 q 321 732 142 531 q 443 801 411 801 m 278 972 q 383 1099 369 972 l 433 1099 q 369 958 428 989 q 286 932 314 932 q 283 932 285 932 q 278 932 281 932 q 179 990 196 932 q 168 1053 168 1029 q 172 1093 168 1078 l 224 1092 l 224 1021 q 269 972 224 972 q 278 972 274 972 z "},"ĕ":{"ha":438,"x_min":0,"x_max":411,"o":"m 151 499 q 339 304 207 497 l 342 281 q 151 221 342 242 l 147 217 l 147 211 q 208 86 176 86 l 225 86 q 360 182 269 86 l 368 182 q 411 142 396 182 q 294 26 411 108 q 221 0 264 8 q 64 211 108 0 q 0 264 0 221 q 47 304 0 294 l 47 299 l 61 304 l 61 339 q 151 499 61 499 m 160 399 l 147 399 l 142 347 l 142 304 l 147 304 q 225 321 225 307 q 160 399 189 375 m 169 653 q 275 779 261 653 l 325 779 q 261 639 319 669 q 178 613 206 613 q 174 613 176 613 q 169 613 172 613 q 71 671 88 613 q 60 734 60 710 q 64 774 60 758 l 115 772 l 115 701 q 161 653 115 653 q 169 653 165 653 z "},"Ė":{"ha":597,"x_min":0,"x_max":558,"o":"m 443 801 q 478 758 468 801 q 390 689 478 733 q 229 364 282 594 l 229 339 q 403 411 350 399 q 443 382 419 411 l 443 356 q 321 294 443 340 q 229 238 229 244 l 229 225 q 329 90 229 147 l 376 82 q 513 139 422 82 l 529 139 q 558 99 558 125 l 558 90 q 368 0 472 0 q 151 200 219 0 l 64 182 q 0 224 0 192 q 38 269 0 256 l 69 264 q 142 294 142 285 q 321 732 142 531 q 443 801 411 801 m 378 964 q 426 897 419 964 q 358 833 414 833 q 304 897 317 833 q 378 964 328 964 z "},"ė":{"ha":438,"x_min":0,"x_max":411,"o":"m 151 499 q 339 304 207 497 l 342 281 q 151 221 342 242 l 147 217 l 147 211 q 208 86 176 86 l 225 86 q 360 182 269 86 l 368 182 q 411 142 396 182 q 294 26 411 108 q 221 0 264 8 q 64 211 108 0 q 0 264 0 221 q 47 304 0 294 l 47 299 l 61 304 l 61 339 q 151 499 61 499 m 160 399 l 147 399 l 142 347 l 142 304 l 147 304 q 225 321 225 307 q 160 399 189 375 m 231 764 q 279 697 272 764 q 211 633 267 633 q 157 697 169 633 q 231 764 181 764 z "},"Ę":{"ha":597,"x_min":0,"x_max":601,"o":"m 443 801 q 478 758 468 801 q 390 689 478 733 q 229 364 282 594 l 229 339 q 403 411 350 399 q 443 382 419 411 l 443 356 q 321 294 443 340 q 229 238 229 244 l 229 225 q 329 90 229 147 l 376 82 q 513 139 422 82 l 529 139 q 558 99 558 125 l 558 90 q 478 26 521 49 l 389 -82 l 389 -96 q 417 -103 389 -103 q 558 -76 446 -103 q 592 -65 582 -65 q 601 -74 601 -65 q 588 -106 601 -83 q 403 -200 547 -167 q 307 -90 307 -161 q 342 0 307 -40 q 151 200 214 17 l 64 182 q 0 224 0 192 q 38 269 0 256 l 69 264 q 142 294 142 285 q 321 732 142 531 q 443 801 411 801 z "},"ę":{"ha":438,"x_min":0,"x_max":411,"o":"m 267 13 l 281 8 l 175 -119 l 175 -133 q 205 -140 175 -140 q 346 -115 235 -140 q 386 -107 379 -100 q 374 -144 393 -114 q 189 -237 333 -207 q 93 -126 93 -197 q 179 7 93 -54 q 64 211 100 40 q 0 264 0 221 q 47 304 0 294 l 47 299 l 61 304 l 61 339 q 151 499 61 499 q 339 304 207 497 l 342 281 q 151 221 342 242 l 147 217 l 147 211 q 208 86 176 86 l 225 86 q 360 182 269 86 l 368 182 q 411 142 396 182 q 294 26 411 108 l 267 13 m 160 399 l 147 399 l 142 347 l 142 304 l 147 304 q 225 321 225 307 q 160 399 189 375 z "},"Ě":{"ha":597,"x_min":0,"x_max":558,"o":"m 443 801 q 478 758 468 801 q 390 689 478 733 q 229 364 282 594 l 229 339 q 403 411 350 399 q 443 382 419 411 l 443 356 q 321 294 443 340 q 229 238 229 244 l 229 225 q 329 90 229 147 l 376 82 q 513 139 422 82 l 529 139 q 558 99 558 125 l 558 90 q 368 0 472 0 q 151 200 219 0 l 64 182 q 0 224 0 192 q 38 269 0 256 l 69 264 q 142 294 142 285 q 321 732 142 531 q 443 801 411 801 m 290 968 l 268 978 l 108 1161 q 64 1186 64 1176 q 108 1214 64 1203 l 124 1211 q 299 1040 158 1207 q 369 1114 313 1049 q 499 1238 464 1238 l 501 1238 q 539 1218 539 1236 l 483 1151 q 290 968 338 968 z "},"ě":{"ha":438,"x_min":-17,"x_max":458,"o":"m 151 499 q 339 304 207 497 l 342 281 q 151 221 342 242 l 147 217 l 147 211 q 208 86 176 86 l 225 86 q 360 182 269 86 l 368 182 q 411 142 396 182 q 294 26 411 108 q 221 0 264 8 q 64 211 108 0 q 0 264 0 221 q 47 304 0 294 l 47 299 l 61 304 l 61 339 q 151 499 61 499 m 160 399 l 147 399 l 142 347 l 142 304 l 147 304 q 225 321 225 307 q 160 399 189 375 m 210 538 l 188 547 l 28 731 q -17 756 -17 746 q 28 783 -17 772 l 43 781 q 218 610 78 776 q 289 683 232 618 q 418 807 383 807 l 421 807 q 458 788 458 806 l 403 721 q 210 538 257 538 z "},"Ĝ":{"ha":667,"x_min":28,"x_max":631,"o":"m 439 1043 q 479 1000 461 1043 q 378 944 479 967 q 180 697 250 874 q 110 349 110 521 q 288 -7 110 72 l 332 -15 q 543 244 481 -15 l 549 301 q 474 488 549 413 l 465 488 q 349 253 436 454 l 318 232 q 274 279 279 232 q 453 592 406 592 l 461 592 q 631 301 631 493 q 453 -60 631 85 q 335 -97 424 -85 q 57 146 167 -97 q 28 336 28 250 l 28 357 q 218 918 28 654 q 439 1043 342 1043 m 304 1475 l 326 1485 q 501 1285 368 1485 l 554 1210 q 521 1189 554 1193 l 485 1186 q 385 1308 485 1189 q 339 1376 357 1376 q 329 1369 333 1376 q 196 1194 206 1224 l 158 1215 q 118 1246 118 1224 q 158 1272 118 1257 l 304 1475 z "},"ĝ":{"ha":375,"x_min":-50,"x_max":488,"o":"m 250 533 q 314 472 314 533 q 322 451 322 472 l 328 451 l 322 411 l 328 131 l 319 -92 q 488 -275 444 -92 q 436 -318 488 -312 q 383 -214 413 -318 q 319 -174 356 -174 l 314 -174 q 236 -469 269 -469 q 119 -543 196 -543 q 7 -431 7 -517 l 7 -422 q 193 -139 7 -292 l 236 -112 l 242 38 l 242 72 l 236 72 q 146 13 189 13 l 138 13 q 28 160 42 13 l 28 190 q 158 499 28 368 q 250 533 199 533 m 111 208 l 111 142 q 132 96 117 96 l 146 96 q 242 382 185 96 l 242 451 q 111 208 158 451 m 89 -425 q 128 -460 94 -460 q 224 -222 194 -460 l 215 -222 q 89 -425 89 -332 m 136 926 l 158 936 q 333 736 200 936 l 386 661 q 353 640 386 644 l 317 638 q 217 760 317 642 q 171 828 189 828 q 161 821 165 828 q 28 646 39 675 l -10 667 q -50 697 -50 675 q -10 724 -50 708 l 136 926 z "},"Ğ":{"ha":667,"x_min":28,"x_max":631,"o":"m 439 1043 q 479 1000 461 1043 q 378 944 479 967 q 180 697 250 874 q 110 349 110 521 q 288 -7 110 72 l 332 -15 q 543 244 481 -15 l 549 301 q 474 488 549 413 l 465 488 q 349 253 436 454 l 318 232 q 274 279 279 232 q 453 592 406 592 l 461 592 q 631 301 631 493 q 453 -60 631 85 q 335 -97 424 -85 q 57 146 167 -97 q 28 336 28 250 l 28 357 q 218 918 28 654 q 439 1043 342 1043 m 306 1153 q 411 1279 397 1153 l 461 1279 q 397 1139 456 1169 q 314 1113 342 1113 q 310 1113 313 1113 q 306 1113 308 1113 q 207 1171 224 1113 q 196 1234 196 1210 q 200 1274 196 1258 l 251 1272 l 251 1201 q 297 1153 251 1153 q 306 1153 301 1153 z "},"ğ":{"ha":375,"x_min":7,"x_max":488,"o":"m 250 533 q 314 472 314 533 q 322 451 322 472 l 328 451 l 322 411 l 328 131 l 319 -92 q 488 -275 444 -92 q 436 -318 488 -312 q 383 -214 413 -318 q 319 -174 356 -174 l 314 -174 q 236 -469 269 -469 q 119 -543 196 -543 q 7 -431 7 -517 l 7 -422 q 193 -139 7 -292 l 236 -112 l 242 38 l 242 72 l 236 72 q 146 13 189 13 l 138 13 q 28 160 42 13 l 28 190 q 158 499 28 368 q 250 533 199 533 m 111 208 l 111 142 q 132 96 117 96 l 146 96 q 242 382 185 96 l 242 451 q 111 208 158 451 m 89 -425 q 128 -460 94 -460 q 224 -222 194 -460 l 215 -222 q 89 -425 89 -332 m 204 697 q 310 824 296 697 l 360 824 q 296 683 354 714 q 213 657 240 657 q 209 657 211 657 q 204 657 207 657 q 106 715 122 657 q 94 778 94 754 q 99 818 94 803 l 150 817 l 150 746 q 196 697 150 697 q 204 697 200 697 z "},"Ġ":{"ha":667,"x_min":28,"x_max":631,"o":"m 439 1043 q 479 1000 461 1043 q 378 944 479 967 q 180 697 250 874 q 110 349 110 521 q 288 -7 110 72 l 332 -15 q 543 244 481 -15 l 549 301 q 474 488 549 413 l 465 488 q 349 253 436 454 l 318 232 q 274 279 279 232 q 453 592 406 592 l 461 592 q 631 301 631 493 q 453 -60 631 85 q 335 -97 424 -85 q 57 146 167 -97 q 28 336 28 250 l 28 357 q 218 918 28 654 q 439 1043 342 1043 m 346 1194 q 394 1128 389 1194 q 326 1064 382 1064 q 272 1128 285 1064 q 346 1194 296 1194 z "},"ġ":{"ha":375,"x_min":7,"x_max":488,"o":"m 250 533 q 314 472 314 533 q 322 451 322 472 l 328 451 l 322 411 l 328 131 l 319 -92 q 488 -275 444 -92 q 436 -318 488 -312 q 383 -214 413 -318 q 319 -174 356 -174 l 314 -174 q 236 -469 269 -469 q 119 -543 196 -543 q 7 -431 7 -517 l 7 -422 q 193 -139 7 -292 l 236 -112 l 242 38 l 242 72 l 236 72 q 146 13 189 13 l 138 13 q 28 160 42 13 l 28 190 q 158 499 28 368 q 250 533 199 533 m 111 208 l 111 142 q 132 96 117 96 l 146 96 q 242 382 185 96 l 242 451 q 111 208 158 451 m 89 -425 q 128 -460 94 -460 q 224 -222 194 -460 l 215 -222 q 89 -425 89 -332 m 200 764 q 249 697 242 764 q 181 633 236 633 q 126 697 139 633 q 200 764 150 764 z "},"Ģ":{"ha":667,"x_min":28,"x_max":631,"o":"m 439 1043 q 479 1000 461 1043 q 378 944 479 967 q 180 697 250 874 q 110 349 110 521 q 288 -7 110 72 l 332 -15 q 543 244 481 -15 l 549 301 q 474 488 549 413 l 465 488 q 349 253 436 454 l 318 232 q 274 279 279 232 q 453 592 406 592 l 461 592 q 631 301 631 493 q 453 -60 631 85 q 335 -97 424 -85 q 57 146 167 -97 q 28 336 28 250 l 28 357 q 218 918 28 654 q 439 1043 342 1043 m 315 -333 q 358 -262 315 -262 q 396 -271 375 -262 l 417 -404 q 301 -525 342 -525 q 265 -465 275 -525 l 322 -403 q 315 -333 315 -362 z "},"ģ":{"ha":375,"x_min":7,"x_max":488,"o":"m 250 533 q 314 472 314 533 q 322 451 322 472 l 328 451 l 322 411 l 328 131 l 319 -92 q 488 -275 444 -92 q 436 -318 488 -312 q 383 -214 413 -318 q 319 -174 356 -174 l 314 -174 q 236 -469 269 -469 q 119 -543 196 -543 q 7 -431 7 -517 l 7 -422 q 193 -139 7 -292 l 236 -112 l 242 38 l 242 72 l 236 72 q 146 13 189 13 l 138 13 q 28 160 42 13 l 28 190 q 158 499 28 368 q 250 533 199 533 m 111 208 l 111 142 q 132 96 117 96 l 146 96 q 242 382 185 96 l 242 451 q 111 208 158 451 m 89 -425 q 128 -460 94 -460 q 224 -222 194 -460 l 215 -222 q 89 -425 89 -332 m 213 775 q 268 671 256 775 l 268 663 q 224 615 268 615 q 181 706 181 615 q 168 738 171 706 q 213 775 183 775 z "},"Ĥ":{"ha":586,"x_min":3,"x_max":554,"o":"m 138 774 q 186 604 186 774 l 194 388 l 197 388 l 419 474 q 481 757 453 757 l 499 760 q 542 722 522 760 q 493 308 493 483 l 493 249 q 554 6 493 121 q 510 -33 540 -33 q 411 236 443 -33 l 411 378 l 403 378 q 194 283 194 304 q 133 -47 194 -47 l 128 -47 q 90 1 99 -47 q 111 236 111 153 l 50 204 l 38 201 q 3 244 3 214 q 111 340 3 275 l 111 343 q 93 739 107 582 q 138 774 93 769 m 299 1213 l 321 1222 q 496 1022 363 1222 l 549 947 q 515 926 549 931 l 479 924 q 379 1046 479 928 q 333 1114 351 1114 q 324 1107 328 1114 q 190 932 200 961 l 153 953 q 113 983 113 961 q 153 1010 113 994 l 299 1213 z "},"ĥ":{"ha":406,"x_min":17,"x_max":453,"o":"m 85 767 q 124 672 124 767 l 140 433 l 146 433 l 215 460 q 357 221 332 460 q 367 21 367 153 l 367 -92 q 328 -144 367 -144 l 322 -144 q 285 -104 285 -139 l 285 26 q 224 374 285 340 l 215 374 q 154 246 174 374 l 154 168 q 119 -40 154 -40 l 93 -43 q 54 72 54 -43 q 71 272 58 194 l 42 729 q 85 767 42 765 m 203 1103 l 225 1113 q 400 913 267 1113 l 453 838 q 419 817 453 821 l 383 814 q 283 936 383 817 q 238 1004 256 1004 q 228 997 232 1004 q 94 822 106 851 l 57 843 q 17 874 17 851 q 57 900 17 885 l 203 1103 z "},"Ħ":{"ha":586,"x_min":3,"x_max":554,"o":"m 104 582 l 93 739 q 138 774 93 769 q 186 604 186 774 l 186 597 l 200 597 l 438 613 q 481 757 461 757 l 499 760 q 542 722 522 760 q 493 308 493 483 l 493 249 q 554 6 493 121 q 510 -33 540 -33 q 411 236 443 -33 l 411 378 l 403 378 q 194 283 194 304 q 133 -47 194 -47 l 128 -47 q 90 1 99 -47 q 111 236 111 153 l 50 204 l 38 201 q 3 244 3 214 q 111 340 3 275 l 111 343 q 104 547 108 482 q 100 565 100 556 q 104 582 100 575 m 189 514 l 194 388 l 197 388 l 419 474 q 426 531 425 513 q 361 528 390 528 q 190 514 264 514 l 189 514 z "},"ħ":{"ha":406,"x_min":-35,"x_max":367,"o":"m 126 619 l 315 633 q 356 590 350 633 q 225 547 356 547 q 132 536 150 538 l 140 433 l 146 433 l 215 460 q 357 221 332 460 q 367 21 367 153 l 367 -92 q 328 -144 367 -144 l 322 -144 q 285 -104 285 -139 l 285 26 q 224 374 285 340 l 215 374 q 154 246 174 374 l 154 168 q 119 -40 154 -40 l 93 -43 q 54 72 54 -43 q 71 272 58 194 l 54 533 q -35 585 -35 543 q 3 628 -35 614 l 49 618 l 42 729 q 85 767 42 765 q 124 672 124 767 l 126 619 z "},"Ĩ":{"ha":246,"x_min":-150,"x_max":356,"o":"m 92 769 q 135 735 125 769 l 126 653 l 126 626 q 169 179 161 339 q 201 31 185 31 q 153 -7 201 1 q 83 274 83 -7 l 44 635 l 44 647 q 92 769 44 769 m 356 925 q 342 915 354 915 q 289 946 331 915 q 201 1069 274 1028 l 189 1071 q 121 925 171 1071 q 19 868 78 868 q 17 868 18 868 q -144 1013 -82 875 l -150 1054 q -117 1101 -142 1101 q -68 1071 -97 1101 l -79 1061 l -79 1044 q 10 931 -81 986 l 24 931 l 25 931 q 100 1064 63 931 q 194 1132 139 1132 q 197 1132 196 1132 q 338 1013 275 1128 q 356 925 342 958 z "},"ĩ":{"ha":204,"x_min":-150,"x_max":356,"o":"m 96 529 q 133 489 118 529 l 121 390 l 121 325 q 160 26 121 211 q 113 0 146 0 q 38 333 56 0 l 38 382 q 96 529 38 529 m 356 765 q 342 756 354 756 q 290 786 331 756 q 201 910 274 868 l 189 911 q 121 765 174 911 q 19 708 78 708 q 17 708 18 708 q -144 853 -82 715 l -150 894 q -117 942 -140 942 q -68 911 -97 942 l -78 901 l -78 885 q 10 771 -82 826 l 24 771 l 25 771 q 100 904 63 771 q 194 972 139 972 q 197 972 196 972 q 339 853 276 968 q 356 765 342 800 z "},"ī":{"ha":204,"x_min":-92,"x_max":299,"o":"m 96 529 q 133 489 118 529 l 121 390 l 121 325 q 160 26 121 211 q 113 0 146 0 q 38 333 56 0 l 38 382 q 96 529 38 529 m 7 868 l 258 885 q 299 842 293 885 q 168 799 299 799 q -1 785 72 785 q -92 836 -92 796 q -54 881 -92 864 l -1 868 l 7 868 z "},"Ĭ":{"ha":246,"x_min":-6,"x_max":260,"o":"m 92 769 q 135 735 125 769 l 126 653 l 126 626 q 169 179 161 339 q 201 31 185 31 q 153 -7 201 1 q 83 274 83 -7 l 44 635 l 44 647 q 92 769 44 769 m 104 972 q 210 1099 196 972 l 260 1099 q 196 958 254 989 q 113 932 140 932 q 109 932 111 932 q 104 932 107 932 q 6 990 22 932 q -6 1053 -6 1029 q -1 1093 -6 1078 l 50 1092 l 50 1021 q 96 972 50 972 q 104 972 100 972 z "},"Į":{"ha":246,"x_min":-11,"x_max":283,"o":"m 92 769 q 135 735 125 769 l 126 653 l 126 626 q 169 179 161 339 q 201 31 185 31 q 158 -6 201 3 l 71 -111 l 71 -125 q 99 -132 71 -132 q 242 -106 128 -132 q 283 -103 283 -86 q 269 -135 283 -112 q 85 -229 229 -196 q -11 -119 -11 -189 q 107 36 -11 -32 l 110 36 q 83 274 83 101 l 44 635 l 44 647 q 92 769 44 769 z "},"į":{"ha":204,"x_min":-19,"x_max":275,"o":"m 158 33 l 168 31 l 63 -97 l 63 -111 q 91 -118 63 -118 q 232 -92 119 -118 q 265 -81 256 -81 q 275 -90 275 -81 q 261 -121 275 -99 q 76 -215 221 -182 q -19 -100 -19 -175 q 78 38 -19 -25 q 38 333 50 115 l 38 382 q 96 529 38 529 q 133 489 118 529 l 121 390 l 121 325 q 158 33 121 214 m 43 724 q 96 676 96 713 q 51 638 82 638 q 0 689 0 647 q 43 724 14 724 z "},"İ":{"ha":246,"x_min":44,"x_max":201,"o":"m 92 769 q 135 735 125 769 l 126 653 l 126 626 q 169 179 161 339 q 201 31 185 31 q 153 -7 201 1 q 83 274 83 -7 l 44 635 l 44 647 q 92 769 44 769 m 135 1194 q 183 1128 178 1194 q 115 1064 171 1064 q 61 1128 74 1064 q 135 1194 83 1194 z "},"ı":{"ha":204,"x_min":38,"x_max":160,"o":"m 96 529 q 133 489 118 529 l 121 390 l 121 325 q 160 26 121 211 q 113 0 146 0 q 38 333 56 0 l 38 382 q 96 529 38 529 z "},"Ĵ":{"ha":569,"x_min":31,"x_max":521,"o":"m 433 885 l 457 885 q 500 842 500 876 q 474 801 500 832 l 474 732 q 521 125 474 632 q 404 -69 521 -69 q 118 203 307 -69 q 40 246 57 203 l 31 281 q 78 333 43 333 q 304 86 156 301 q 404 13 378 13 l 413 13 q 433 78 433 22 l 433 165 l 390 686 l 388 776 q 433 885 388 885 m 256 1475 l 278 1485 q 453 1285 319 1485 l 506 1210 q 472 1189 506 1193 l 436 1186 q 336 1308 436 1189 q 290 1376 308 1376 q 281 1369 285 1376 q 147 1194 158 1224 l 110 1215 q 69 1246 69 1224 q 110 1272 69 1257 l 256 1475 z "},"ĵ":{"ha":204,"x_min":-115,"x_max":321,"o":"m 107 328 q 151 290 126 328 q 138 189 138 253 l 172 -161 l 172 -201 q 85 -431 172 -383 l 56 -436 q -92 -244 -40 -436 l -101 -171 l -101 -167 q -57 -118 -101 -118 q -19 -195 -19 -118 q 47 -349 -19 -272 l 58 -353 q 90 -219 90 -296 l 90 -161 l 56 186 q 107 328 56 328 m 71 813 l 93 821 q 269 621 133 821 l 321 547 q 288 526 321 528 l 251 522 q 153 646 251 526 q 107 714 122 714 q 97 707 101 714 q -36 531 -26 561 l -75 551 q -115 583 -115 563 q -75 610 -115 593 l 71 813 z "},"Ķ":{"ha":736,"x_min":28,"x_max":690,"o":"m 179 899 q 218 864 204 899 q 158 451 158 706 l 158 300 l 161 300 q 401 781 239 378 q 465 833 443 833 l 471 833 q 508 807 494 833 l 508 781 q 318 388 469 757 l 204 217 l 204 214 q 531 51 361 51 l 583 51 q 653 61 635 51 q 690 17 690 46 l 690 6 q 569 -29 690 -29 l 549 -29 q 169 135 350 -29 l 161 135 l 161 -26 q 118 -74 161 -74 q 79 -26 79 -74 l 79 139 q 28 222 28 178 q 75 260 28 260 l 75 457 q 144 885 75 726 q 179 899 163 899 m 318 -222 q 361 -151 318 -151 q 399 -160 378 -151 l 419 -293 q 304 -414 344 -414 q 268 -354 278 -414 l 325 -292 q 318 -222 318 -251 z "},"ķ":{"ha":528,"x_min":44,"x_max":517,"o":"m 97 735 l 106 735 q 140 704 124 735 l 135 610 l 135 557 l 140 314 l 144 300 l 149 300 q 253 496 208 356 l 283 506 q 322 471 322 500 q 193 228 322 381 l 193 218 q 418 19 364 19 l 426 19 l 461 40 l 474 40 q 517 1 503 40 q 418 -60 517 -43 q 161 140 319 -60 l 149 140 l 153 65 l 153 -7 q 110 -50 144 -50 q 71 -7 71 -42 l 71 1 l 65 161 q 44 204 50 161 l 63 239 l 54 551 l 54 613 q 97 735 54 735 m 238 -222 q 281 -151 238 -151 q 318 -160 297 -151 l 339 -293 q 224 -414 264 -414 q 188 -354 197 -414 l 244 -292 q 238 -222 238 -251 z "},"Ĺ":{"ha":438,"x_min":28,"x_max":418,"o":"m 92 710 q 135 606 125 710 l 140 531 q 110 89 140 446 l 118 89 l 118 85 l 124 89 l 135 89 l 297 76 l 308 76 l 378 97 l 388 97 q 418 58 410 83 q 300 -7 418 6 l 158 7 l 132 7 l 65 -11 q 28 33 28 3 l 57 510 l 57 531 l 49 669 q 92 710 49 704 m 38 1017 q 79 1069 40 1057 q 358 1178 306 1178 q 363 1178 361 1178 q 401 1126 397 1176 l 392 1088 q 165 1011 203 1021 q 78 965 150 989 q 38 1017 44 968 z "},"ĺ":{"ha":232,"x_min":-49,"x_max":315,"o":"m 106 765 q 144 722 144 751 l 158 193 l 158 22 q 118 -25 158 -25 l 100 -25 q 75 14 75 -8 l 75 175 l 63 725 q 106 765 63 760 m -49 939 q -7 992 -46 979 q 272 1100 219 1100 q 276 1100 275 1100 q 315 1049 311 1099 l 306 1010 q 79 933 117 943 q -8 888 64 911 q -49 939 -42 890 z "},"Ļ":{"ha":438,"x_min":28,"x_max":418,"o":"m 92 710 q 135 606 125 710 l 140 531 q 110 89 140 446 l 118 89 l 118 85 l 124 89 l 135 89 l 297 76 l 308 76 l 378 97 l 388 97 q 418 58 410 83 q 300 -7 418 6 l 158 7 l 132 7 l 65 -11 q 28 33 28 3 l 57 510 l 57 531 l 49 669 q 92 710 49 704 m 196 -222 q 239 -151 196 -151 q 276 -160 256 -151 l 297 -293 q 182 -414 222 -414 q 146 -354 156 -414 l 203 -292 q 196 -222 196 -251 z "},"ļ":{"ha":232,"x_min":43,"x_max":194,"o":"m 106 765 q 144 722 144 751 l 158 193 l 158 22 q 118 -25 158 -25 l 100 -25 q 75 14 75 -8 l 75 175 l 63 725 q 106 765 63 760 m 93 -222 q 136 -151 93 -151 q 174 -160 153 -151 l 194 -293 q 79 -414 119 -414 q 43 -354 53 -414 l 100 -292 q 93 -222 93 -251 z "},"Ŀ":{"ha":438,"x_min":28,"x_max":418,"o":"m 92 710 q 135 606 125 710 l 140 531 q 110 89 140 446 l 118 89 l 118 85 l 124 89 l 135 89 l 297 76 l 308 76 l 378 97 l 388 97 q 418 58 410 83 q 300 -7 418 6 l 158 7 l 132 7 l 65 -11 q 28 33 28 3 l 57 510 l 57 531 l 49 669 q 92 710 49 704 m 290 397 q 339 333 333 397 q 272 269 326 269 q 218 333 231 269 q 290 397 240 397 z "},"ŀ":{"ha":389,"x_min":63,"x_max":358,"o":"m 106 765 q 144 722 144 751 l 158 193 l 158 22 q 118 -25 158 -25 l 100 -25 q 75 14 75 -8 l 75 175 l 63 725 q 106 765 63 760 m 310 460 q 358 396 353 460 q 292 332 346 332 q 238 396 250 332 q 310 460 260 460 z "},"Ł":{"ha":438,"x_min":-83,"x_max":418,"o":"m 132 385 l 267 394 q 307 350 300 394 q 176 307 307 307 q 126 300 160 306 l 110 89 l 118 89 l 118 85 l 124 89 l 135 89 l 297 76 l 308 76 l 378 97 l 388 97 q 418 58 410 83 q 300 -7 418 6 l 158 7 l 132 7 l 65 -11 q 28 33 28 3 l 43 293 l 7 293 q -83 346 -83 304 q -46 389 -83 375 l 7 376 l 15 376 l 49 378 l 57 510 l 57 531 l 49 669 q 92 710 49 704 q 135 606 125 710 l 140 531 q 132 385 140 493 z "},"ł":{"ha":232,"x_min":-78,"x_max":313,"o":"m 153 390 l 272 399 q 313 356 307 399 q 182 313 313 313 q 154 307 165 310 l 158 193 l 158 22 q 118 -25 158 -25 l 100 -25 q 75 14 75 -8 l 75 175 l 71 300 q 13 299 50 299 q -78 350 -78 310 q -40 394 -78 378 l 13 382 l 21 382 l 69 385 l 63 725 q 106 765 63 760 q 144 722 144 751 l 153 390 z "},"Ń":{"ha":600,"x_min":7,"x_max":597,"o":"m 132 767 q 381 260 197 746 l 401 235 l 401 313 q 554 750 401 622 q 597 703 589 750 q 493 451 493 547 q 485 364 486 451 l 485 290 q 506 17 485 194 q 461 -18 493 -18 q 371 113 429 -18 q 215 454 300 225 l 210 454 l 210 446 l 218 269 q 114 -83 218 -4 l 79 -87 q 7 -8 36 -87 q 50 35 17 35 l 58 35 l 85 13 l 89 13 q 138 260 138 78 q 85 724 138 443 q 132 767 85 761 m 147 935 q 189 988 150 975 q 468 1096 415 1096 q 472 1096 471 1096 q 511 1044 507 1094 l 501 1006 q 275 929 313 939 q 188 883 261 906 q 147 935 154 886 z "},"ń":{"ha":385,"x_min":13,"x_max":376,"o":"m 207 468 q 325 353 325 458 l 328 335 l 325 118 q 368 17 325 81 l 368 14 q 328 -26 357 -26 q 242 126 242 10 l 242 144 l 238 147 l 242 153 l 242 156 l 246 347 q 211 388 246 388 l 194 388 q 125 83 125 360 q 76 -12 125 -12 q 38 35 39 -12 l 38 174 q 85 443 38 443 l 99 447 l 128 443 q 207 468 165 468 m 13 751 q 54 804 15 792 q 333 913 281 913 q 338 913 336 913 q 376 861 372 911 l 367 822 q 140 746 178 756 q 53 700 125 722 q 13 751 19 703 z "},"Ņ":{"ha":600,"x_min":7,"x_max":597,"o":"m 132 767 q 381 260 197 746 l 401 235 l 401 313 q 554 750 401 622 q 597 703 589 750 q 493 451 493 547 q 485 364 486 451 l 485 290 q 506 17 485 194 q 461 -18 493 -18 q 371 113 429 -18 q 215 454 300 225 l 210 454 l 210 446 l 218 269 q 114 -83 218 -4 l 79 -87 q 7 -8 36 -87 q 50 35 17 35 l 58 35 l 85 13 l 89 13 q 138 260 138 78 q 85 724 138 443 q 132 767 85 761 m 274 -222 q 317 -151 274 -151 q 354 -160 333 -151 l 375 -293 q 260 -414 300 -414 q 224 -354 233 -414 l 281 -292 q 274 -222 274 -251 z "},"ņ":{"ha":385,"x_min":38,"x_max":368,"o":"m 207 468 q 325 353 325 458 l 328 335 l 325 118 q 368 17 325 81 l 368 14 q 328 -26 357 -26 q 242 126 242 10 l 242 144 l 238 147 l 242 153 l 242 156 l 246 347 q 211 388 246 388 l 194 388 q 125 83 125 360 q 76 -12 125 -12 q 38 35 39 -12 l 38 174 q 85 443 38 443 l 99 447 l 128 443 q 207 468 165 468 m 169 -222 q 213 -151 169 -151 q 250 -160 229 -151 l 271 -293 q 156 -414 196 -414 q 119 -354 129 -414 l 176 -292 q 169 -222 169 -251 z "},"Ň":{"ha":600,"x_min":7,"x_max":597,"o":"m 132 767 q 381 260 197 746 l 401 235 l 401 313 q 554 750 401 622 q 597 703 589 750 q 493 451 493 547 q 485 364 486 451 l 485 290 q 506 17 485 194 q 461 -18 493 -18 q 371 113 429 -18 q 215 454 300 225 l 210 454 l 210 446 l 218 269 q 114 -83 218 -4 l 79 -87 q 7 -8 36 -87 q 50 35 17 35 l 58 35 l 85 13 l 89 13 q 138 260 138 78 q 85 724 138 443 q 132 767 85 761 m 292 968 l 269 978 l 110 1161 q 65 1186 65 1176 q 110 1214 65 1203 l 125 1211 q 300 1040 161 1207 q 371 1114 314 1049 q 500 1238 465 1238 l 503 1238 q 540 1218 540 1236 l 485 1151 q 292 968 339 968 z "},"ň":{"ha":385,"x_min":-43,"x_max":432,"o":"m 207 468 q 325 353 325 458 l 328 335 l 325 118 q 368 17 325 81 l 368 14 q 328 -26 357 -26 q 242 126 242 10 l 242 144 l 238 147 l 242 153 l 242 156 l 246 347 q 211 388 246 388 l 194 388 q 125 83 125 360 q 76 -12 125 -12 q 38 35 39 -12 l 38 174 q 85 443 38 443 l 99 447 l 128 443 q 207 468 165 468 m 183 538 l 161 547 l 1 731 q -43 756 -43 746 q 1 783 -43 772 l 17 781 q 192 610 53 776 q 263 683 206 618 q 392 807 357 807 l 394 807 q 432 788 432 806 l 376 721 q 183 538 231 538 z "},"ŉ":{"ha":385,"x_min":38,"x_max":368,"o":"m 207 468 q 325 353 325 458 l 328 335 l 325 118 q 368 17 325 81 l 368 14 q 328 -26 357 -26 q 242 126 242 10 l 242 144 l 238 147 l 242 153 l 242 156 l 246 347 q 211 388 246 388 l 194 388 q 125 83 125 360 q 76 -12 125 -12 q 38 35 39 -12 l 38 174 q 85 443 38 443 l 99 447 l 128 443 q 207 468 165 468 m 89 793 q 132 864 89 864 q 169 856 149 864 l 190 722 q 75 601 115 601 q 39 661 49 601 l 96 724 q 89 793 89 764 z "},"Ō":{"ha":611,"x_min":35,"x_max":582,"o":"m 203 751 l 238 757 l 251 757 q 313 722 279 757 q 486 569 374 722 q 582 249 582 389 q 443 -7 582 57 l 356 -25 q 56 288 147 -25 q 35 447 35 369 l 35 461 q 203 751 35 696 m 190 618 l 160 631 q 117 482 117 579 l 117 444 q 290 71 117 188 l 329 63 l 382 63 q 486 153 454 63 l 494 214 l 494 257 q 329 631 494 465 l 272 647 l 269 647 q 190 618 242 647 m 174 946 l 425 963 q 465 919 460 963 q 335 876 465 876 q 165 863 239 863 q 75 914 75 874 q 113 958 75 942 l 165 946 l 174 946 z "},"ō":{"ha":444,"x_min":28,"x_max":433,"o":"m 249 524 q 404 371 351 524 l 410 342 q 271 38 410 193 q 158 -14 215 -14 q 40 82 75 -14 q 28 160 28 126 l 28 176 q 188 510 28 396 q 249 524 215 524 m 110 163 q 158 68 110 68 q 326 328 260 68 l 326 354 q 239 440 303 440 q 214 406 214 440 q 158 368 214 382 q 110 163 110 286 m 142 689 l 393 706 q 433 663 428 706 q 303 619 433 619 q 133 606 207 606 q 43 657 43 617 q 81 701 43 685 l 133 689 l 142 689 z "},"Ŏ":{"ha":611,"x_min":35,"x_max":582,"o":"m 203 751 l 238 757 l 251 757 q 313 722 279 757 q 486 569 374 722 q 582 249 582 389 q 443 -7 582 57 l 356 -25 q 56 288 147 -25 q 35 447 35 369 l 35 461 q 203 751 35 696 m 190 618 l 160 631 q 117 482 117 579 l 117 444 q 290 71 117 188 l 329 63 l 382 63 q 486 153 454 63 l 494 214 l 494 257 q 329 631 494 465 l 272 647 l 269 647 q 190 618 242 647 m 285 972 q 390 1099 376 972 l 440 1099 q 376 958 435 989 q 293 932 321 932 q 290 932 292 932 q 285 932 288 932 q 186 990 203 932 q 175 1053 175 1029 q 179 1093 175 1078 l 231 1092 l 231 1021 q 276 972 231 972 q 285 972 281 972 z "},"ŏ":{"ha":444,"x_min":28,"x_max":410,"o":"m 249 524 q 404 371 351 524 l 410 342 q 271 38 410 193 q 158 -14 215 -14 q 40 82 75 -14 q 28 160 28 126 l 28 176 q 188 510 28 396 q 249 524 215 524 m 110 163 q 158 68 110 68 q 326 328 260 68 l 326 354 q 239 440 303 440 q 214 406 214 440 q 158 368 214 382 q 110 163 110 286 m 203 661 q 308 788 294 661 l 358 788 q 294 647 353 678 q 211 621 239 621 q 208 621 210 621 q 203 621 206 621 q 104 679 121 621 q 93 742 93 718 q 97 782 93 767 l 149 781 l 149 710 q 194 661 149 661 q 203 661 199 661 z "},"Ő":{"ha":611,"x_min":35,"x_max":582,"o":"m 203 751 l 238 757 l 251 757 q 313 722 279 757 q 486 569 374 722 q 582 249 582 389 q 443 -7 582 57 l 356 -25 q 56 288 147 -25 q 35 447 35 369 l 35 461 q 203 751 35 696 m 190 618 l 160 631 q 117 482 117 579 l 117 444 q 290 71 117 188 l 329 63 l 382 63 q 486 153 454 63 l 494 214 l 494 257 q 329 631 494 465 l 272 647 l 269 647 q 190 618 242 647 m 97 879 q 93 897 93 886 q 106 919 93 907 q 249 1082 219 1071 q 265 1085 254 1085 q 288 1067 275 1085 l 294 1044 q 172 915 193 936 q 138 864 172 899 q 122 863 132 863 q 97 879 113 863 m 251 849 q 247 865 247 856 q 258 888 247 875 q 403 1051 374 1038 q 419 1054 408 1054 q 443 1038 431 1054 l 447 1013 q 444 1014 446 1014 q 326 885 422 1014 q 292 835 326 865 q 276 832 286 832 q 251 849 267 832 z "},"ő":{"ha":444,"x_min":28,"x_max":410,"o":"m 249 524 q 404 371 351 524 l 410 342 q 271 38 410 193 q 158 -14 215 -14 q 40 82 75 -14 q 28 160 28 126 l 28 176 q 188 510 28 396 q 249 524 215 524 m 110 163 q 158 68 110 68 q 326 328 260 68 l 326 354 q 239 440 303 440 q 214 406 214 440 q 158 368 214 382 q 110 163 110 286 m 54 703 q 50 720 50 710 q 63 743 50 731 q 206 906 176 894 q 222 908 211 908 q 244 890 232 908 l 251 868 q 129 739 150 760 q 94 688 129 722 q 79 686 89 686 q 54 703 69 686 m 208 672 q 204 689 204 679 q 215 711 204 699 q 360 875 331 861 q 376 878 365 878 q 400 861 388 878 l 404 836 q 401 838 403 838 q 283 708 379 838 q 249 658 283 689 q 233 656 243 656 q 208 672 224 656 z "},"Œ":{"ha":1051,"x_min":35,"x_max":1007,"o":"m 890 814 q 925 771 917 814 q 839 701 925 746 q 676 376 728 606 l 676 350 q 850 424 793 410 q 890 394 867 424 l 890 368 q 769 307 890 353 q 676 250 676 257 l 676 238 q 778 103 676 158 l 825 93 q 960 151 869 93 l 978 151 q 1007 111 1007 136 l 1007 103 q 815 13 921 13 q 599 211 668 13 l 579 208 q 443 -7 564 50 l 356 -25 q 56 288 147 -25 q 35 447 35 369 l 35 461 q 203 751 35 696 l 238 757 l 251 757 q 313 722 279 757 q 486 569 374 722 q 578 297 565 417 q 590 307 590 301 q 769 744 590 542 q 890 814 860 814 m 190 618 l 160 631 q 117 482 117 579 l 117 444 q 290 71 117 188 l 329 63 l 382 63 q 486 153 454 63 l 492 197 q 447 238 447 210 q 486 281 447 267 l 494 279 q 329 631 486 474 l 272 647 l 269 647 q 190 618 242 647 z "},"œ":{"ha":743,"x_min":28,"x_max":729,"o":"m 468 493 q 656 299 528 490 l 660 276 q 468 215 660 236 l 465 211 l 465 207 q 526 82 494 82 l 543 82 q 676 176 586 82 l 686 176 q 729 138 715 176 q 613 21 729 103 q 538 -6 583 3 q 382 207 425 -6 q 271 38 344 119 q 158 -14 215 -14 q 40 82 75 -14 q 28 160 28 126 l 28 176 q 188 510 28 396 q 249 524 215 524 q 388 417 335 524 q 468 493 406 493 m 110 163 q 158 68 110 68 q 326 328 260 68 l 326 354 q 239 440 303 440 q 214 406 214 440 q 158 368 214 382 q 110 163 110 286 m 478 394 l 465 394 l 460 342 l 460 299 l 465 299 q 543 315 543 301 q 478 394 508 368 z "},"Ŕ":{"ha":722,"x_min":17,"x_max":689,"o":"m 264 790 l 269 790 q 438 628 438 760 l 438 603 q 251 313 438 457 l 251 307 q 668 38 553 38 q 689 0 689 22 q 642 -40 689 -32 q 211 238 526 -40 l 151 269 l 147 269 q 186 29 186 114 q 142 -22 186 -7 q 61 290 78 -22 q 17 521 17 435 l 17 533 q 72 660 17 660 l 99 646 l 107 646 q 264 790 174 790 m 151 419 l 147 368 q 356 582 276 368 l 356 633 q 272 707 356 694 l 264 707 q 151 419 176 707 m 65 919 q 107 972 68 960 q 386 1081 333 1081 q 390 1081 389 1081 q 429 1029 425 1079 l 419 990 q 193 914 231 924 q 106 868 178 892 q 65 919 72 871 z "},"ŕ":{"ha":507,"x_min":44,"x_max":488,"o":"m 210 547 q 314 425 297 547 l 314 413 q 175 165 314 278 q 457 86 256 86 q 488 43 488 76 q 439 6 488 6 q 153 75 303 6 l 153 35 q 92 -108 153 -108 q 49 57 49 -108 l 49 165 l 44 204 l 54 249 l 44 382 l 44 388 q 83 439 44 425 q 210 547 138 547 m 140 243 q 231 388 181 243 l 231 447 l 214 465 l 201 465 q 140 243 140 424 m 71 751 q 113 804 74 792 q 392 913 339 913 q 396 913 394 913 q 435 861 431 911 l 425 822 q 199 746 236 756 q 111 700 183 722 q 71 751 78 703 z "},"Ŗ":{"ha":722,"x_min":17,"x_max":689,"o":"m 264 790 l 269 790 q 438 628 438 760 l 438 603 q 251 313 438 457 l 251 307 q 668 38 553 38 q 689 0 689 22 q 642 -40 689 -32 q 211 238 526 -40 l 151 269 l 147 269 q 186 29 186 114 q 142 -22 186 -7 q 61 290 78 -22 q 17 521 17 435 l 17 533 q 72 660 17 660 l 99 646 l 107 646 q 264 790 174 790 m 151 419 l 147 368 q 356 582 276 368 l 356 633 q 272 707 356 694 l 264 707 q 151 419 176 707 m 335 -222 q 378 -151 335 -151 q 415 -160 394 -151 l 436 -293 q 321 -414 361 -414 q 285 -354 294 -414 l 342 -292 q 335 -222 335 -251 z "},"ŗ":{"ha":507,"x_min":44,"x_max":488,"o":"m 210 547 q 314 425 297 547 l 314 413 q 175 165 314 278 q 457 86 256 86 q 488 43 488 76 q 439 6 488 6 q 153 75 303 6 l 153 35 q 92 -108 153 -108 q 49 57 49 -108 l 49 165 l 44 204 l 54 249 l 44 382 l 44 388 q 83 439 44 425 q 210 547 138 547 m 140 243 q 231 388 181 243 l 231 447 l 214 465 l 201 465 q 140 243 140 424 m 226 -222 q 269 -151 226 -151 q 307 -160 286 -151 l 328 -293 q 213 -414 253 -414 q 176 -354 186 -414 l 233 -292 q 226 -222 226 -251 z "},"Ř":{"ha":722,"x_min":17,"x_max":689,"o":"m 264 790 l 269 790 q 438 628 438 760 l 438 603 q 251 313 438 457 l 251 307 q 668 38 553 38 q 689 0 689 22 q 642 -40 689 -32 q 211 238 526 -40 l 151 269 l 147 269 q 186 29 186 114 q 142 -22 186 -7 q 61 290 78 -22 q 17 521 17 435 l 17 533 q 72 660 17 660 l 99 646 l 107 646 q 264 790 174 790 m 151 419 l 147 368 q 356 582 276 368 l 356 633 q 272 707 356 694 l 264 707 q 151 419 176 707 m 353 968 l 331 978 l 171 1161 q 126 1186 126 1176 q 171 1214 126 1203 l 186 1211 q 361 1040 222 1207 q 432 1114 375 1049 q 561 1238 526 1238 l 564 1238 q 601 1218 601 1236 l 546 1151 q 353 968 400 968 z "},"ř":{"ha":507,"x_min":-4,"x_max":488,"o":"m 210 547 q 314 425 297 547 l 314 413 q 175 165 314 278 q 457 86 256 86 q 488 43 488 76 q 439 6 488 6 q 153 75 303 6 l 153 35 q 92 -108 153 -108 q 49 57 49 -108 l 49 165 l 44 204 l 54 249 l 44 382 l 44 388 q 83 439 44 425 q 210 547 138 547 m 140 243 q 231 388 181 243 l 231 447 l 214 465 l 201 465 q 140 243 140 424 m 222 643 l 200 653 l 40 836 q -4 861 -4 851 q 40 889 -4 878 l 56 886 q 231 715 92 882 q 301 789 244 724 q 431 913 396 913 l 433 913 q 471 893 471 911 l 415 826 q 222 643 269 643 z "},"Ś":{"ha":632,"x_min":28,"x_max":600,"o":"m 447 822 l 461 822 q 506 776 500 822 q 396 736 506 736 q 158 542 219 669 l 149 501 l 149 493 q 231 432 149 432 l 383 440 q 592 290 538 440 l 600 242 q 367 -22 600 97 q 244 -49 297 -42 q 44 111 103 -49 q 28 221 28 165 q 54 256 28 238 l 71 256 q 114 146 114 256 q 228 38 150 38 l 265 38 q 488 168 378 38 q 517 258 517 210 q 410 354 517 326 l 404 354 l 222 350 q 71 475 71 368 l 65 493 q 279 771 65 636 q 447 822 372 822 m 126 958 q 168 1011 129 999 q 447 1119 394 1119 q 451 1119 450 1119 q 490 1068 486 1118 l 481 1029 q 254 953 292 963 q 167 907 239 931 q 126 958 133 910 z "},"ś":{"ha":426,"x_min":33,"x_max":401,"o":"m 306 563 q 357 436 343 563 q 311 401 343 401 q 267 453 289 406 l 242 461 q 124 375 176 461 l 124 363 q 319 293 124 342 q 401 175 401 244 q 218 -19 401 61 l 167 -28 q 50 89 50 -15 l 50 93 q 93 132 50 126 q 138 63 126 132 l 149 54 l 172 54 q 319 163 251 54 l 319 181 q 138 258 319 222 q 42 367 42 297 q 193 536 42 457 q 306 563 260 544 m 33 751 q 75 804 36 792 q 354 913 301 913 q 358 913 357 913 q 397 861 393 911 l 388 822 q 161 746 199 756 q 74 700 147 722 q 33 751 40 703 z "},"Ŝ":{"ha":632,"x_min":28,"x_max":600,"o":"m 447 822 l 461 822 q 506 776 500 822 q 396 736 506 736 q 158 542 219 669 l 149 501 l 149 493 q 231 432 149 432 l 383 440 q 592 290 538 440 l 600 242 q 367 -22 600 97 q 244 -49 297 -42 q 44 111 103 -49 q 28 221 28 165 q 54 256 28 238 l 71 256 q 114 146 114 256 q 228 38 150 38 l 265 38 q 488 168 378 38 q 517 258 517 210 q 410 354 517 326 l 404 354 l 222 350 q 71 475 71 368 l 65 493 q 279 771 65 636 q 447 822 372 822 m 293 1249 l 315 1258 q 490 1058 357 1258 l 543 983 q 510 963 543 967 l 474 960 q 374 1082 474 964 q 328 1150 346 1150 q 318 1143 322 1150 q 185 968 194 997 l 147 989 q 107 1019 107 997 q 147 1046 107 1031 l 293 1249 z "},"ŝ":{"ha":426,"x_min":-1,"x_max":435,"o":"m 306 563 q 357 436 343 563 q 311 401 343 401 q 267 453 289 406 l 242 461 q 124 375 176 461 l 124 363 q 319 293 124 342 q 401 175 401 244 q 218 -19 401 61 l 167 -28 q 50 89 50 -15 l 50 93 q 93 132 50 126 q 138 63 126 132 l 149 54 l 172 54 q 319 163 251 54 l 319 181 q 138 258 319 222 q 42 367 42 297 q 193 536 42 457 q 306 563 260 544 m 185 1044 l 207 1054 q 382 854 249 1054 l 435 779 q 401 758 435 763 l 365 756 q 265 878 365 758 q 219 946 238 946 q 210 939 214 946 q 76 764 86 793 l 39 785 q -1 815 -1 793 q 39 842 -1 826 l 185 1044 z "},"Ş":{"ha":632,"x_min":28,"x_max":600,"o":"m 447 822 l 461 822 q 506 776 500 822 q 396 736 506 736 q 158 542 219 669 l 149 501 l 149 493 q 231 432 149 432 l 383 440 q 592 290 538 440 l 600 242 q 367 -22 600 97 q 306 -39 335 -32 l 272 -99 l 272 -110 q 417 -168 272 -128 q 478 -265 478 -208 q 343 -428 478 -360 l 304 -435 q 218 -337 218 -424 l 218 -333 q 250 -300 218 -307 q 283 -360 278 -300 l 292 -367 l 307 -367 q 417 -276 367 -367 l 417 -262 q 283 -196 417 -228 q 211 -106 211 -165 q 217 -47 211 -65 q 44 111 96 -32 q 28 221 28 165 q 54 256 28 238 l 71 256 q 114 146 114 256 q 228 38 150 38 l 265 38 q 488 168 378 38 q 517 258 517 210 q 410 354 517 326 l 404 354 l 222 350 q 71 475 71 368 l 65 493 q 279 771 65 636 q 447 822 372 822 z "},"ş":{"ha":426,"x_min":42,"x_max":415,"o":"m 306 563 q 357 436 343 563 q 311 401 343 401 q 267 453 289 406 l 242 461 q 124 375 176 461 l 124 363 q 319 293 124 342 q 401 175 401 244 q 238 -11 401 68 l 210 -61 l 210 -71 q 354 -131 210 -90 q 415 -228 415 -168 q 281 -389 415 -321 l 242 -396 q 156 -299 156 -385 l 156 -296 q 188 -262 156 -269 q 221 -321 214 -262 l 229 -328 l 244 -328 q 354 -237 304 -328 l 354 -224 q 221 -158 354 -187 q 149 -68 149 -125 q 151 -25 149 -47 q 50 89 50 -8 l 50 93 q 93 132 50 126 q 138 63 126 132 l 149 54 l 172 54 q 319 163 251 54 l 319 181 q 138 258 319 222 q 42 367 42 297 q 193 536 42 457 q 306 563 260 544 z "},"Š":{"ha":632,"x_min":28,"x_max":600,"o":"m 447 822 l 461 822 q 506 776 500 822 q 396 736 506 736 q 158 542 219 669 l 149 501 l 149 493 q 231 432 149 432 l 383 440 q 592 290 538 440 l 600 242 q 367 -22 600 97 q 244 -49 297 -42 q 44 111 103 -49 q 28 221 28 165 q 54 256 28 238 l 71 256 q 114 146 114 256 q 228 38 150 38 l 265 38 q 488 168 378 38 q 517 258 517 210 q 410 354 517 326 l 404 354 l 222 350 q 71 475 71 368 l 65 493 q 279 771 65 636 q 447 822 372 822 m 294 858 l 272 868 l 113 1051 q 68 1076 68 1067 q 113 1104 68 1093 l 128 1101 q 303 931 164 1097 q 374 1004 317 939 q 503 1128 468 1128 l 506 1128 q 543 1108 543 1125 l 488 1042 q 294 858 342 858 z "},"š":{"ha":426,"x_min":-22,"x_max":453,"o":"m 306 563 q 357 436 343 563 q 311 401 343 401 q 267 453 289 406 l 242 461 q 124 375 176 461 l 124 363 q 319 293 124 342 q 401 175 401 244 q 218 -19 401 61 l 167 -28 q 50 89 50 -15 l 50 93 q 93 132 50 126 q 138 63 126 132 l 149 54 l 172 54 q 319 163 251 54 l 319 181 q 138 258 319 222 q 42 367 42 297 q 193 536 42 457 q 306 563 260 544 m 204 596 l 182 606 l 22 789 q -22 814 -22 804 q 22 842 -22 831 l 38 839 q 213 668 72 835 q 283 742 226 676 q 413 865 378 865 l 415 865 q 453 846 453 864 l 397 779 q 204 596 251 596 z "},"Ţ":{"ha":590,"x_min":-7,"x_max":749,"o":"m 297 876 l 714 903 q 749 868 732 903 q 626 815 749 815 l 383 801 l 378 799 q 413 -61 413 572 q 369 -122 406 -122 q 326 -67 332 -122 l 326 256 q 297 793 326 578 q 49 738 49 769 l 36 732 q -7 776 -7 744 q 297 876 -7 853 m 343 -304 q 386 -233 343 -233 q 424 -242 403 -233 l 444 -375 q 329 -496 369 -496 q 293 -436 303 -496 l 350 -374 q 343 -304 343 -333 z "},"ţ":{"ha":493,"x_min":0,"x_max":478,"o":"m 190 843 q 229 804 229 835 l 221 743 l 221 725 q 235 596 221 664 l 238 596 q 438 644 399 644 q 478 604 478 633 q 382 557 478 557 l 238 506 q 278 -4 238 318 q 238 -42 269 -42 l 235 -42 q 186 83 186 -42 q 156 488 168 176 l 131 488 q 0 549 0 496 q 29 586 0 564 l 43 586 l 107 569 l 151 569 l 139 743 q 190 843 139 843 m 224 -222 q 267 -151 224 -151 q 304 -160 283 -151 l 325 -293 q 210 -414 250 -414 q 174 -354 183 -414 l 231 -292 q 224 -222 224 -251 z "},"Ť":{"ha":590,"x_min":-7,"x_max":749,"o":"m 297 876 l 714 903 q 749 868 732 903 q 626 815 749 815 l 383 801 l 378 799 q 413 -61 413 572 q 369 -122 406 -122 q 326 -67 332 -122 l 326 256 q 297 793 326 578 q 49 738 49 769 l 36 732 q -7 776 -7 744 q 297 876 -7 853 m 286 968 l 264 978 l 104 1161 q 60 1186 60 1176 q 104 1214 60 1203 l 119 1211 q 294 1040 156 1207 q 365 1114 308 1049 q 494 1238 460 1238 l 497 1238 q 535 1218 535 1236 l 479 1151 q 286 968 333 968 z "},"Ŧ":{"ha":590,"x_min":-7,"x_max":749,"o":"m 399 576 l 496 583 q 536 540 531 583 q 406 496 536 496 l 403 494 q 413 -61 413 289 q 369 -122 406 -122 q 326 -67 332 -122 l 326 256 q 321 486 326 390 q 236 482 272 482 q 146 535 146 493 q 183 578 146 564 l 236 565 l 244 565 l 318 571 q 297 793 311 696 q 49 738 49 769 l 36 732 q -7 776 -7 744 q 297 876 -7 853 l 714 903 q 749 868 732 903 q 626 815 749 815 l 383 801 l 378 799 q 399 576 390 713 z "},"ŧ":{"ha":493,"x_min":0,"x_max":478,"o":"m 238 440 l 404 453 q 444 410 439 453 q 314 367 444 367 q 242 357 289 363 q 278 -4 254 179 q 238 -42 269 -42 l 235 -42 q 186 83 186 -42 q 161 353 172 158 l 144 353 q 54 404 54 364 q 92 447 54 433 l 144 436 l 158 436 q 156 488 156 467 l 131 488 q 0 549 0 496 q 29 586 0 564 l 43 586 l 107 569 l 151 569 l 139 743 q 190 843 139 843 q 229 804 229 835 l 221 743 l 221 725 q 235 596 221 664 l 238 596 q 438 644 399 644 q 478 604 478 633 q 382 557 478 557 l 238 506 l 238 440 z "},"Ũ":{"ha":565,"x_min":-19,"x_max":517,"o":"m 343 625 q 404 825 343 825 q 465 599 465 825 l 447 394 q 517 -8 447 133 l 517 -14 q 479 -49 517 -42 l 474 -49 q 383 147 422 -46 l 378 147 q 193 -69 306 -69 q 49 113 81 -69 l 44 194 l 44 221 l 65 538 l 65 599 q 97 642 65 626 l 110 642 q 149 590 149 642 l 149 582 l 126 211 l 126 160 q 179 13 126 49 l 204 13 q 340 304 275 56 l 361 399 l 343 625 m 486 933 q 473 924 485 924 q 419 954 461 924 q 332 1078 404 1036 l 319 1079 q 251 933 301 1079 q 150 876 208 876 q 147 876 149 876 q -14 1021 49 883 l -19 1063 q 14 1110 -11 1110 q 63 1079 33 1110 l 51 1069 l 51 1053 q 140 939 50 994 l 154 939 l 156 939 q 231 1072 193 939 q 325 1140 269 1140 q 328 1140 326 1140 q 468 1021 406 1136 q 486 933 472 967 z "},"ũ":{"ha":454,"x_min":8,"x_max":514,"o":"m 82 418 l 107 432 q 156 392 140 432 q 133 181 133 289 q 165 63 133 126 l 174 63 q 269 381 214 63 q 307 397 289 397 q 350 244 350 397 q 390 76 368 76 l 411 85 q 451 42 451 69 q 382 -11 426 -11 q 286 89 332 -11 q 174 -28 231 -28 q 56 149 89 -28 l 51 193 l 51 207 q 82 418 51 318 m 514 565 q 501 556 513 556 q 447 586 489 556 q 360 710 432 668 l 347 711 q 279 565 329 711 q 178 508 236 508 q 175 508 176 508 q 14 653 76 515 l 8 694 q 42 742 17 742 q 90 711 61 742 l 79 701 l 79 685 q 168 571 78 626 l 182 571 l 183 571 q 258 704 221 571 q 353 772 297 772 q 356 772 354 772 q 496 653 433 768 q 514 565 500 599 z "},"Ū":{"ha":565,"x_min":44,"x_max":517,"o":"m 343 625 q 404 825 343 825 q 465 599 465 825 l 447 394 q 517 -8 447 133 l 517 -14 q 479 -49 517 -42 l 474 -49 q 383 147 422 -46 l 378 147 q 193 -69 306 -69 q 49 113 81 -69 l 44 194 l 44 221 l 65 538 l 65 599 q 97 642 65 626 l 110 642 q 149 590 149 642 l 149 582 l 126 211 l 126 160 q 179 13 126 49 l 204 13 q 340 304 275 56 l 361 399 l 343 625 m 160 1036 l 411 1053 q 451 1010 446 1053 q 321 967 451 967 q 151 953 225 953 q 61 1004 61 964 q 99 1049 61 1032 l 151 1036 l 160 1036 z "},"ū":{"ha":454,"x_min":28,"x_max":451,"o":"m 82 418 l 107 432 q 156 392 140 432 q 133 181 133 289 q 165 63 133 126 l 174 63 q 269 381 214 63 q 307 397 289 397 q 350 244 350 397 q 390 76 368 76 l 411 85 q 451 42 451 69 q 382 -11 426 -11 q 286 89 332 -11 q 174 -28 231 -28 q 56 149 89 -28 l 51 193 l 51 207 q 82 418 51 318 m 126 653 l 378 669 q 418 626 413 669 q 288 583 418 583 q 118 569 192 569 q 28 621 28 581 q 65 665 28 649 l 118 653 l 126 653 z "},"Ŭ":{"ha":565,"x_min":44,"x_max":517,"o":"m 343 625 q 404 825 343 825 q 465 599 465 825 l 447 394 q 517 -8 447 133 l 517 -14 q 479 -49 517 -42 l 474 -49 q 383 147 422 -46 l 378 147 q 193 -69 306 -69 q 49 113 81 -69 l 44 194 l 44 221 l 65 538 l 65 599 q 97 642 65 626 l 110 642 q 149 590 149 642 l 149 582 l 126 211 l 126 160 q 179 13 126 49 l 204 13 q 340 304 275 56 l 361 399 l 343 625 m 263 972 q 368 1099 354 972 l 418 1099 q 354 958 413 989 q 271 932 299 932 q 267 932 269 932 q 263 932 265 932 q 164 990 181 932 q 153 1053 153 1029 q 157 1093 153 1078 l 208 1092 l 208 1021 q 254 972 208 972 q 263 972 258 972 z "},"ŭ":{"ha":454,"x_min":51,"x_max":451,"o":"m 82 418 l 107 432 q 156 392 140 432 q 133 181 133 289 q 165 63 133 126 l 174 63 q 269 381 214 63 q 307 397 289 397 q 350 244 350 397 q 390 76 368 76 l 411 85 q 451 42 451 69 q 382 -11 426 -11 q 286 89 332 -11 q 174 -28 231 -28 q 56 149 89 -28 l 51 193 l 51 207 q 82 418 51 318 m 208 542 q 314 668 300 542 l 364 668 q 300 528 358 558 q 217 501 244 501 q 213 501 215 501 q 208 501 211 501 q 110 560 126 501 q 99 623 99 599 q 103 663 99 647 l 154 661 l 154 590 q 200 542 154 542 q 208 542 204 542 z "},"Ů":{"ha":565,"x_min":44,"x_max":517,"o":"m 343 625 q 404 825 343 825 q 465 599 465 825 l 447 394 q 517 -8 447 133 l 517 -14 q 479 -49 517 -42 l 474 -49 q 383 147 422 -46 l 378 147 q 193 -69 306 -69 q 49 113 81 -69 l 44 194 l 44 221 l 65 538 l 65 599 q 97 642 65 626 l 110 642 q 149 590 149 642 l 149 582 l 126 211 l 126 160 q 179 13 126 49 l 204 13 q 340 304 275 56 l 361 399 l 343 625 m 307 1203 q 439 1126 396 1203 l 442 1111 q 326 957 442 1036 q 222 931 279 931 q 132 979 164 931 q 121 1019 121 1004 l 121 1028 q 257 1196 121 1139 q 307 1203 282 1203 m 231 1125 q 190 1027 190 1082 q 231 972 190 972 q 372 1104 315 972 l 372 1118 q 300 1161 354 1161 q 279 1144 279 1161 q 231 1125 279 1132 z "},"ů":{"ha":454,"x_min":51,"x_max":451,"o":"m 82 418 l 107 432 q 156 392 140 432 q 133 181 133 289 q 165 63 133 126 l 174 63 q 269 381 214 63 q 307 397 289 397 q 350 244 350 397 q 390 76 368 76 l 411 85 q 451 42 451 69 q 382 -11 426 -11 q 286 89 332 -11 q 174 -28 231 -28 q 56 149 89 -28 l 51 193 l 51 207 q 82 418 51 318 m 256 772 q 388 696 344 772 l 390 681 q 275 526 390 606 q 170 500 228 500 q 81 549 113 500 q 69 589 69 574 l 69 597 q 206 765 69 708 q 256 772 231 772 m 179 694 q 139 597 139 651 q 179 542 139 542 q 321 674 264 542 l 321 688 q 249 731 303 731 q 228 714 228 731 q 179 694 228 701 z "},"Ű":{"ha":565,"x_min":44,"x_max":517,"o":"m 343 625 q 404 825 343 825 q 465 599 465 825 l 447 394 q 517 -8 447 133 l 517 -14 q 479 -49 517 -42 l 474 -49 q 383 147 422 -46 l 378 147 q 193 -69 306 -69 q 49 113 81 -69 l 44 194 l 44 221 l 65 538 l 65 599 q 97 642 65 626 l 110 642 q 149 590 149 642 l 149 582 l 126 211 l 126 160 q 179 13 126 49 l 204 13 q 340 304 275 56 l 361 399 l 343 625 m 90 997 q 86 1015 86 1004 q 99 1038 86 1025 q 242 1200 213 1189 q 258 1203 247 1203 q 281 1185 268 1203 l 288 1163 q 165 1033 186 1054 q 131 982 165 1017 q 115 981 125 981 q 90 997 106 981 m 244 967 q 240 983 240 974 q 251 1006 240 993 q 396 1169 367 1156 q 413 1172 401 1172 q 436 1156 424 1172 l 440 1131 q 438 1132 439 1132 q 319 1003 415 1132 q 285 953 319 983 q 269 950 279 950 q 244 967 260 950 z "},"ű":{"ha":454,"x_min":51,"x_max":451,"o":"m 82 418 l 107 432 q 156 392 140 432 q 133 181 133 289 q 165 63 133 126 l 174 63 q 269 381 214 63 q 307 397 289 397 q 350 244 350 397 q 390 76 368 76 l 411 85 q 451 42 451 69 q 382 -11 426 -11 q 286 89 332 -11 q 174 -28 231 -28 q 56 149 89 -28 l 51 193 l 51 207 q 82 418 51 318 m 58 703 q 54 720 54 710 q 67 743 54 731 q 210 906 181 894 q 226 908 215 908 q 249 890 236 908 l 256 868 q 133 739 154 760 q 99 688 133 722 q 83 686 93 686 q 58 703 74 686 m 213 672 q 208 689 208 679 q 219 711 208 699 q 364 875 335 861 q 381 878 369 878 q 404 861 392 878 l 408 836 q 406 838 407 838 q 288 708 383 838 q 253 658 288 689 q 238 656 247 656 q 213 672 228 656 z "},"Ų":{"ha":565,"x_min":44,"x_max":596,"o":"m 343 625 q 404 825 343 825 q 465 599 465 825 l 447 394 q 517 -8 447 133 l 517 -14 q 479 -49 517 -42 l 474 -49 q 458 -42 463 -46 l 383 -133 l 383 -147 q 413 -154 383 -154 q 554 -129 443 -154 q 596 -126 596 -110 q 582 -158 596 -136 q 397 -251 542 -221 q 301 -143 301 -211 q 419 14 301 -54 q 383 147 404 54 l 378 147 q 193 -69 306 -69 q 49 113 81 -69 l 44 194 l 44 221 l 65 538 l 65 599 q 97 642 65 626 l 110 642 q 149 590 149 642 l 149 582 l 126 211 l 126 160 q 179 13 126 49 l 204 13 q 340 304 275 56 l 361 399 l 343 625 z "},"ų":{"ha":454,"x_min":51,"x_max":510,"o":"m 82 418 l 107 432 q 156 392 140 432 q 133 181 133 289 q 165 63 133 126 l 174 63 q 269 381 214 63 q 307 397 289 397 q 350 244 350 397 q 390 76 368 76 l 411 85 q 451 42 451 69 q 382 -11 426 -11 q 369 -8 378 -11 l 297 -97 l 297 -111 q 326 -118 297 -118 q 467 -92 354 -118 q 500 -81 490 -81 q 510 -90 510 -81 q 496 -121 510 -99 q 311 -215 456 -182 q 215 -100 215 -175 q 313 38 215 -25 q 286 89 301 56 q 174 -28 231 -28 q 56 149 89 -28 l 51 193 l 51 207 q 82 418 51 318 z "},"Ŵ":{"ha":885,"x_min":24,"x_max":857,"o":"m 354 994 q 632 847 467 994 q 857 306 857 586 q 583 -76 857 26 l 544 -82 q 314 132 397 -82 l 311 132 q 181 -42 263 -42 l 172 -42 q 24 367 64 -42 l 24 447 q 106 613 26 592 q 146 569 128 613 q 106 439 106 514 l 106 426 q 181 44 106 169 q 263 375 236 85 q 297 610 263 610 l 311 613 q 357 522 357 613 l 349 369 q 444 49 349 215 q 540 1 492 1 q 710 100 619 1 q 774 314 774 185 q 522 839 774 600 q 322 925 457 892 l 311 951 q 354 994 321 994 m 410 1475 l 432 1485 q 607 1285 474 1485 l 660 1210 q 626 1189 660 1193 l 590 1186 q 490 1308 590 1189 q 444 1376 463 1376 q 435 1369 439 1376 q 301 1194 311 1224 l 264 1215 q 224 1246 224 1224 q 264 1272 224 1257 l 410 1475 z "},"ŵ":{"ha":556,"x_min":38,"x_max":515,"o":"m 419 436 q 515 239 515 372 q 394 -7 515 58 l 342 -15 q 242 31 294 -15 l 232 31 q 151 -25 189 -25 q 38 161 53 -25 l 38 236 q 111 413 47 413 q 151 369 146 413 q 119 214 119 314 l 119 188 q 146 63 125 63 q 189 135 167 63 l 186 231 q 232 326 186 326 q 285 222 285 326 l 290 222 l 276 135 q 342 65 300 65 l 350 65 q 429 196 411 65 l 429 274 q 376 383 429 318 l 371 396 q 419 436 371 425 m 240 828 l 263 838 q 438 638 304 838 l 490 563 q 457 542 490 546 l 421 539 q 321 661 421 542 q 275 729 293 729 q 265 722 269 729 q 132 547 142 576 l 94 568 q 54 599 54 576 q 94 625 54 610 l 240 828 z "},"Ŷ":{"ha":572,"x_min":10,"x_max":522,"o":"m 231 906 q 274 863 256 906 q 218 576 218 710 l 218 529 q 297 374 218 374 q 436 729 399 374 q 465 894 436 894 l 488 897 q 522 850 517 897 l 522 382 q 375 -131 522 -56 q 292 -157 347 -146 q 14 -14 169 -157 l 10 3 q 57 43 10 35 l 167 -35 q 263 -69 231 -69 l 300 -69 q 439 360 439 -69 l 439 376 l 426 376 q 292 294 374 294 q 149 425 190 294 q 135 529 135 476 l 135 542 q 231 906 157 906 m 257 1475 l 279 1485 q 454 1285 321 1485 l 507 1210 q 474 1189 507 1193 l 438 1186 q 338 1308 438 1189 q 292 1376 310 1376 q 282 1369 286 1376 q 149 1194 158 1224 l 111 1215 q 71 1246 71 1224 q 111 1272 71 1257 l 257 1475 z "},"ŷ":{"ha":368,"x_min":-61,"x_max":375,"o":"m 71 417 q 138 203 119 417 q 172 104 161 104 l 181 104 q 215 278 215 192 l 207 374 q 250 411 222 411 q 301 229 301 411 q 332 -122 332 40 l 332 -187 q 163 -590 332 -486 l 132 -596 q -15 -449 53 -596 l -28 -365 l -28 -361 q 24 -269 -28 -269 l 58 -292 l 54 -379 q 119 -508 54 -443 l 138 -508 q 250 -217 214 -508 l 253 -136 q 242 43 251 4 q 154 -6 186 -6 q 28 374 83 -6 l 24 376 q 71 417 24 408 m 125 800 l 147 810 q 322 610 189 810 l 375 535 q 342 514 375 518 l 306 511 q 206 633 306 514 q 160 701 178 701 q 150 694 154 701 q 17 519 28 549 l -21 540 q -61 571 -61 549 q -21 597 -61 582 l 125 800 z "},"Ÿ":{"ha":572,"x_min":10,"x_max":522,"o":"m 231 906 q 274 863 256 906 q 218 576 218 710 l 218 529 q 297 374 218 374 q 436 729 399 374 q 465 894 436 894 l 488 897 q 522 850 517 897 l 522 382 q 375 -131 522 -56 q 292 -157 347 -146 q 14 -14 169 -157 l 10 3 q 57 43 10 35 l 167 -35 q 263 -69 231 -69 l 300 -69 q 439 360 439 -69 l 439 376 l 426 376 q 292 294 374 294 q 149 425 190 294 q 135 529 135 476 l 135 542 q 231 906 157 906 m 353 1049 q 314 1096 324 1050 q 374 1131 315 1131 q 406 1090 406 1108 q 353 1049 406 1051 m 196 1057 q 163 1099 164 1057 q 213 1142 164 1131 q 249 1096 251 1125 q 196 1057 231 1057 z "},"Ź":{"ha":653,"x_min":28,"x_max":700,"o":"m 188 644 l 479 653 l 508 653 q 592 606 592 653 q 357 242 564 478 q 236 114 236 126 q 492 -81 447 -76 l 557 -89 q 661 -68 608 -89 q 700 -111 700 -82 q 561 -172 700 -162 l 543 -172 q 204 42 414 -172 l 161 68 q 65 24 83 24 q 28 68 35 24 q 126 163 28 139 l 144 158 q 444 475 325 304 q 492 571 492 553 l 479 571 l 188 563 l 183 557 l 179 557 q 97 600 97 557 l 97 606 q 144 644 97 644 l 188 644 m 151 814 q 193 867 154 854 q 472 975 419 975 q 476 975 475 975 q 515 924 511 974 l 506 885 q 279 808 317 818 q 192 763 264 786 q 151 814 158 765 z "},"ź":{"ha":433,"x_min":-4,"x_max":417,"o":"m 239 419 q 278 381 265 419 q 147 33 154 67 l 153 29 l 196 29 q 378 90 263 29 q 417 42 417 90 q 174 -54 339 -54 l 110 -46 q 65 -67 78 -67 q 22 13 22 -67 q 69 64 22 29 l 165 319 l 165 325 l 161 325 l 43 315 q -4 363 -4 325 q 35 397 -4 397 q 239 419 110 397 m 22 588 q 64 640 25 628 q 343 749 290 749 q 347 749 346 749 q 386 697 382 747 l 376 658 q 150 582 188 592 q 63 536 136 558 q 22 588 29 539 z "},"Ż":{"ha":653,"x_min":28,"x_max":700,"o":"m 188 644 l 479 653 l 508 653 q 592 606 592 653 q 357 242 564 478 q 236 114 236 126 q 492 -81 447 -76 l 557 -89 q 661 -68 608 -89 q 700 -111 700 -82 q 561 -172 700 -162 l 543 -172 q 204 42 414 -172 l 161 68 q 65 24 83 24 q 28 68 35 24 q 126 163 28 139 l 144 158 q 444 475 325 304 q 492 571 492 553 l 479 571 l 188 563 l 183 557 l 179 557 q 97 600 97 557 l 97 606 q 144 644 97 644 l 188 644 m 332 871 q 381 804 375 871 q 313 740 368 740 q 258 804 271 740 q 332 871 281 871 z "},"ż":{"ha":433,"x_min":-4,"x_max":417,"o":"m 239 419 q 278 381 265 419 q 147 33 154 67 l 153 29 l 196 29 q 378 90 263 29 q 417 42 417 90 q 174 -54 339 -54 l 110 -46 q 65 -67 78 -67 q 22 13 22 -67 q 69 64 22 29 l 165 319 l 165 325 l 161 325 l 43 315 q -4 363 -4 325 q 35 397 -4 397 q 239 419 110 397 m 229 764 q 278 697 271 764 q 210 633 265 633 q 156 697 168 633 q 229 764 178 764 z "},"Ž":{"ha":653,"x_min":28,"x_max":700,"o":"m 188 644 l 479 653 l 508 653 q 592 606 592 653 q 357 242 564 478 q 236 114 236 126 q 492 -81 447 -76 l 557 -89 q 661 -68 608 -89 q 700 -111 700 -82 q 561 -172 700 -162 l 543 -172 q 204 42 414 -172 l 161 68 q 65 24 83 24 q 28 68 35 24 q 126 163 28 139 l 144 158 q 444 475 325 304 q 492 571 492 553 l 479 571 l 188 563 l 183 557 l 179 557 q 97 600 97 557 l 97 606 q 144 644 97 644 l 188 644 m 381 768 l 358 778 l 199 961 q 154 986 154 976 q 199 1014 154 1003 l 214 1011 q 389 840 250 1007 q 460 914 403 849 q 589 1038 554 1038 l 592 1038 q 629 1018 629 1036 l 574 951 q 381 768 428 768 z "},"ž":{"ha":433,"x_min":-18,"x_max":457,"o":"m 239 419 q 278 381 265 419 q 147 33 154 67 l 153 29 l 196 29 q 378 90 263 29 q 417 42 417 90 q 174 -54 339 -54 l 110 -46 q 65 -67 78 -67 q 22 13 22 -67 q 69 64 22 29 l 165 319 l 165 325 l 161 325 l 43 315 q -4 363 -4 325 q 35 397 -4 397 q 239 419 110 397 m 208 538 l 186 547 l 26 731 q -18 756 -18 746 q 26 783 -18 772 l 42 781 q 217 610 78 776 q 288 683 231 618 q 417 807 382 807 l 419 807 q 457 788 457 806 l 401 721 q 208 538 256 538 z "},"ƒ":{"ha":375,"x_min":0,"x_max":364,"o":"m 243 625 q 333 486 308 625 l 333 481 q 290 443 333 449 q 243 529 256 443 l 238 533 l 221 533 q 190 417 190 489 l 194 347 q 315 376 250 347 q 364 339 342 376 q 208 264 364 282 l 249 -212 q 133 -240 172 -240 q 93 -211 93 -240 q 103 -175 93 -196 q 136 -186 122 -186 q 178 -87 178 -186 q 151 133 178 -8 l 125 251 l 35 238 q 0 281 6 238 q 113 333 0 322 l 107 419 q 243 625 129 625 z "},"Ǽ":{"ha":876,"x_min":-14,"x_max":835,"o":"m 718 874 q 753 829 744 874 q 667 760 753 804 q 506 436 558 668 l 506 410 q 679 482 626 469 q 718 453 694 482 l 718 426 q 633 381 718 411 q 529 328 614 357 q 506 308 506 313 l 506 297 q 606 161 506 217 l 653 153 q 788 210 699 153 l 806 210 q 835 169 835 194 l 835 161 q 644 71 749 71 q 503 132 564 71 q 550 -6 511 106 l 550 -8 q 507 -53 550 -35 q 454 43 467 -53 q 378 260 421 113 l 340 253 l 313 258 q 189 208 189 229 q 38 -8 89 -8 q 3 29 8 -8 q 76 160 3 63 l 99 208 l 64 208 l 38 203 q -14 256 -14 215 q 47 304 7 304 l 82 290 q 160 347 160 290 q 315 825 231 514 l 350 836 q 397 711 397 836 l 429 479 q 597 804 460 650 q 718 874 688 874 m 328 572 l 246 325 q 360 368 360 347 q 328 572 339 572 m 256 1182 q 297 1235 258 1222 q 576 1343 524 1343 q 581 1343 579 1343 q 619 1292 615 1342 l 610 1253 q 383 1176 421 1186 q 296 1131 369 1153 q 256 1182 263 1133 z "},"ǽ":{"ha":707,"x_min":31,"x_max":654,"o":"m 394 481 q 582 286 451 478 l 585 264 q 394 203 585 224 l 390 200 l 390 194 q 451 69 419 69 l 468 69 q 603 165 514 69 l 611 165 q 654 125 639 165 q 538 8 654 89 q 464 -18 507 -8 q 336 90 382 -18 q 396 -7 356 15 l 399 -28 q 361 -68 394 -68 l 353 -68 q 249 149 249 3 l 239 149 q 104 -7 183 -7 q 31 103 31 14 q 188 493 31 299 q 286 536 240 536 q 347 488 347 536 l 335 461 l 335 453 q 394 481 356 481 m 118 158 l 113 119 l 113 93 l 126 93 q 231 410 231 353 l 225 410 q 118 158 144 319 m 403 382 l 390 382 l 385 329 l 385 286 l 390 286 q 468 304 468 290 q 403 382 432 357 m 169 751 q 211 804 172 792 q 490 913 438 913 q 494 913 493 913 q 533 861 529 911 l 524 822 q 297 746 335 756 q 210 700 283 722 q 169 751 176 703 z "},"Ǿ":{"ha":611,"x_min":35,"x_max":582,"o":"m 119 128 q 35 447 35 288 l 35 461 q 203 751 35 696 l 238 757 l 251 757 q 313 722 279 757 q 382 686 342 722 l 440 806 q 485 840 453 840 q 524 800 524 831 q 444 621 508 761 l 486 569 q 582 249 582 389 q 443 -7 582 57 l 356 -25 q 175 54 250 -25 l 154 1 l 125 -7 q 85 33 85 0 q 119 128 85 49 m 290 71 l 329 63 l 382 63 q 486 153 454 63 l 494 214 l 494 257 q 404 540 494 408 l 336 401 q 211 139 265 260 q 290 71 243 101 m 190 618 l 160 631 q 117 482 117 579 l 117 444 q 160 218 117 313 q 347 611 221 354 l 329 631 l 272 647 l 269 647 q 190 618 242 647 m 92 965 q 133 1017 94 1007 q 413 1126 360 1126 q 417 1126 415 1126 q 457 1075 450 1125 l 446 1036 q 221 960 253 968 q 132 913 206 935 q 92 965 99 917 z "},"ǿ":{"ha":444,"x_min":28,"x_max":419,"o":"m 56 49 q 28 160 28 100 l 28 176 q 188 510 28 396 q 251 524 215 524 q 318 503 286 524 l 333 528 q 368 549 342 549 q 399 524 399 543 l 363 458 q 404 371 386 422 l 410 342 q 271 38 410 193 q 163 -14 215 -14 q 79 15 111 -14 q 54 42 54 22 q 56 49 54 44 m 56 656 q 97 708 58 696 q 378 818 326 818 q 381 818 379 818 q 419 765 415 814 l 410 728 q 183 651 213 657 q 96 604 169 628 q 56 656 63 607 m 158 68 q 326 328 260 68 l 326 354 l 318 381 q 251 272 286 333 q 133 75 179 160 q 158 68 144 68 m 110 163 l 110 151 q 274 432 176 267 q 239 440 258 440 q 214 406 214 440 q 158 368 214 382 q 110 163 110 286 z "},"Ș":{"ha":632,"x_min":28,"x_max":600,"o":"m 447 822 l 461 822 q 506 776 500 822 q 396 736 506 736 q 158 542 219 669 l 149 501 l 149 493 q 231 432 149 432 l 383 440 q 592 290 538 440 l 600 242 q 367 -22 600 97 q 244 -49 297 -42 q 44 111 103 -49 q 28 221 28 165 q 54 256 28 238 l 71 256 q 114 146 114 256 q 228 38 150 38 l 265 38 q 488 168 378 38 q 517 258 517 210 q 410 354 517 326 l 404 354 l 222 350 q 71 475 71 368 l 65 493 q 279 771 65 636 q 447 822 372 822 m 335 -222 q 378 -151 335 -151 q 415 -160 394 -151 l 436 -293 q 321 -414 361 -414 q 285 -354 294 -414 l 342 -292 q 335 -222 335 -251 z "},"ș":{"ha":426,"x_min":42,"x_max":401,"o":"m 306 563 q 357 436 343 563 q 311 401 343 401 q 267 453 289 406 l 242 461 q 124 375 176 461 l 124 363 q 319 293 124 342 q 401 175 401 244 q 218 -19 401 61 l 167 -28 q 50 89 50 -15 l 50 93 q 93 132 50 126 q 138 63 126 132 l 149 54 l 172 54 q 319 163 251 54 l 319 181 q 138 258 319 222 q 42 367 42 297 q 193 536 42 457 q 306 563 260 544 m 190 -222 q 233 -151 190 -151 q 271 -160 250 -151 l 292 -293 q 176 -414 217 -414 q 140 -354 150 -414 l 197 -292 q 190 -222 190 -251 z "},"ˆ":{"ha":731,"x_min":132,"x_max":568,"o":"m 318 1044 l 340 1054 q 515 854 382 1054 l 568 779 q 535 758 568 763 l 499 756 q 399 878 499 758 q 353 946 371 946 q 343 939 347 946 q 210 764 219 793 l 172 785 q 132 815 132 793 q 172 842 132 826 l 318 1044 z "},"ˇ":{"ha":749,"x_min":169,"x_max":644,"o":"m 396 538 l 374 547 l 214 731 q 169 756 169 746 q 214 783 169 772 l 229 781 q 404 610 264 776 q 475 683 418 618 q 604 807 569 807 l 607 807 q 644 788 644 806 l 589 721 q 396 538 443 538 z "},"˘":{"ha":640,"x_min":133,"x_max":399,"o":"m 243 542 q 349 668 335 542 l 399 668 q 335 528 393 558 q 251 501 279 501 q 248 501 250 501 q 243 501 246 501 q 144 560 161 501 q 133 623 133 599 q 138 663 133 647 l 189 661 l 189 590 q 235 542 189 542 q 243 542 239 542 z "},"˙":{"ha":253,"x_min":51,"x_max":174,"o":"m 125 764 q 174 697 167 764 q 106 633 161 633 q 51 697 64 633 q 125 764 74 764 z "},"˚":{"ha":640,"x_min":119,"x_max":440,"o":"m 306 772 q 438 696 394 772 l 440 681 q 325 526 440 606 q 220 500 278 500 q 131 549 163 500 q 119 589 119 574 l 119 597 q 256 765 119 708 q 306 772 281 772 m 229 694 q 189 597 189 651 q 229 542 189 542 q 371 674 314 542 l 371 688 q 299 731 353 731 q 278 714 278 731 q 229 694 278 701 z "},"˛":{"ha":468,"x_min":103,"x_max":397,"o":"m 221 28 l 290 8 l 183 -119 l 183 -133 q 213 -140 183 -140 q 354 -115 243 -140 q 397 -111 397 -97 q 382 -144 397 -121 q 197 -237 342 -207 q 103 -129 103 -197 q 221 28 103 -40 z "},"˜":{"ha":710,"x_min":78,"x_max":583,"o":"m 583 765 q 570 756 582 756 q 517 786 558 756 q 429 910 501 868 l 417 911 q 349 765 399 911 q 247 708 306 708 q 244 708 246 708 q 83 853 146 715 l 78 894 q 111 942 86 942 q 160 911 131 942 l 149 901 l 149 885 q 238 771 147 826 l 251 771 l 253 771 q 328 904 290 771 q 422 972 367 972 q 425 972 424 972 q 565 853 503 968 q 583 765 569 799 z "},"˝":{"ha":519,"x_min":72,"x_max":426,"o":"m 76 703 q 72 720 72 710 q 85 743 72 731 q 228 906 199 894 q 244 908 233 908 q 267 890 254 908 l 274 868 q 151 739 172 760 q 117 688 151 722 q 101 686 111 686 q 76 703 92 686 m 231 672 q 226 689 226 679 q 238 711 226 699 q 382 875 353 861 q 399 878 388 878 q 422 861 410 878 l 426 836 q 424 838 425 838 q 306 708 401 838 q 271 658 306 689 q 256 656 265 656 q 231 672 246 656 z "},"Ẁ":{"ha":885,"x_min":24,"x_max":857,"o":"m 354 994 q 632 847 467 994 q 857 306 857 586 q 583 -76 857 26 l 544 -82 q 314 132 397 -82 l 311 132 q 181 -42 263 -42 l 172 -42 q 24 367 64 -42 l 24 447 q 106 613 26 592 q 146 569 128 613 q 106 439 106 514 l 106 426 q 181 44 106 169 q 263 375 236 85 q 297 610 263 610 l 311 613 q 357 522 357 613 l 349 369 q 444 49 349 215 q 540 1 492 1 q 710 100 619 1 q 774 314 774 185 q 522 839 774 600 q 322 925 457 892 l 311 951 q 354 994 321 994 m 614 1019 q 579 978 608 981 q 497 1015 513 996 q 301 1143 301 1097 q 307 1158 301 1151 q 343 1200 311 1197 q 578 1061 407 1182 q 614 1019 611 1051 z "},"ẁ":{"ha":556,"x_min":38,"x_max":515,"o":"m 419 436 q 515 239 515 372 q 394 -7 515 58 l 342 -15 q 242 31 294 -15 l 232 31 q 151 -25 189 -25 q 38 161 53 -25 l 38 236 q 111 413 47 413 q 151 369 146 413 q 119 214 119 314 l 119 188 q 146 63 125 63 q 189 135 167 63 l 186 231 q 232 326 186 326 q 285 222 285 326 l 290 222 l 276 135 q 342 65 300 65 l 350 65 q 429 196 411 65 l 429 274 q 376 383 429 318 l 371 396 q 419 436 371 425 m 450 589 q 415 547 444 550 q 333 585 349 565 q 138 713 138 667 q 143 728 138 721 q 179 769 147 767 q 414 631 243 751 q 450 589 447 621 z "},"Ẃ":{"ha":885,"x_min":24,"x_max":857,"o":"m 354 994 q 632 847 467 994 q 857 306 857 586 q 583 -76 857 26 l 544 -82 q 314 132 397 -82 l 311 132 q 181 -42 263 -42 l 172 -42 q 24 367 64 -42 l 24 447 q 106 613 26 592 q 146 569 128 613 q 106 439 106 514 l 106 426 q 181 44 106 169 q 263 375 236 85 q 297 610 263 610 l 311 613 q 357 522 357 613 l 349 369 q 444 49 349 215 q 540 1 492 1 q 710 100 619 1 q 774 314 774 185 q 522 839 774 600 q 322 925 457 892 l 311 951 q 354 994 321 994 m 260 1182 q 301 1235 263 1222 q 581 1343 528 1343 q 585 1343 583 1343 q 624 1292 619 1342 l 614 1253 q 388 1176 425 1186 q 300 1131 372 1153 q 260 1182 267 1133 z "},"ẃ":{"ha":556,"x_min":38,"x_max":515,"o":"m 419 436 q 515 239 515 372 q 394 -7 515 58 l 342 -15 q 242 31 294 -15 l 232 31 q 151 -25 189 -25 q 38 161 53 -25 l 38 236 q 111 413 47 413 q 151 369 146 413 q 119 214 119 314 l 119 188 q 146 63 125 63 q 189 135 167 63 l 186 231 q 232 326 186 326 q 285 222 285 326 l 290 222 l 276 135 q 342 65 300 65 l 350 65 q 429 196 411 65 l 429 274 q 376 383 429 318 l 371 396 q 419 436 371 425 m 96 751 q 138 804 99 792 q 417 913 364 913 q 421 913 419 913 q 460 861 456 911 l 450 822 q 224 746 261 756 q 136 700 208 722 q 96 751 103 703 z "},"Ẅ":{"ha":885,"x_min":24,"x_max":857,"o":"m 354 994 q 632 847 467 994 q 857 306 857 586 q 583 -76 857 26 l 544 -82 q 314 132 397 -82 l 311 132 q 181 -42 263 -42 l 172 -42 q 24 367 64 -42 l 24 447 q 106 613 26 592 q 146 569 128 613 q 106 439 106 514 l 106 426 q 181 44 106 169 q 263 375 236 85 q 297 610 263 610 l 311 613 q 357 522 357 613 l 349 369 q 444 49 349 215 q 540 1 492 1 q 710 100 619 1 q 774 314 774 185 q 522 839 774 600 q 322 925 457 892 l 311 951 q 354 994 321 994 m 390 1064 q 351 1111 361 1065 q 411 1146 353 1146 q 443 1106 443 1124 q 390 1064 443 1067 m 233 1072 q 200 1114 201 1072 q 250 1157 201 1146 q 286 1111 289 1140 q 233 1072 268 1072 z "},"ẅ":{"ha":556,"x_min":38,"x_max":515,"o":"m 419 436 q 515 239 515 372 q 394 -7 515 58 l 342 -15 q 242 31 294 -15 l 232 31 q 151 -25 189 -25 q 38 161 53 -25 l 38 236 q 111 413 47 413 q 151 369 146 413 q 119 214 119 314 l 119 188 q 146 63 125 63 q 189 135 167 63 l 186 231 q 232 326 186 326 q 285 222 285 326 l 290 222 l 276 135 q 342 65 300 65 l 350 65 q 429 196 411 65 l 429 274 q 376 383 429 318 l 371 396 q 419 436 371 425 m 344 618 q 306 665 315 619 q 365 700 307 700 q 397 660 397 678 q 344 618 397 621 m 188 626 q 154 668 156 626 q 204 711 156 700 q 240 665 243 694 q 188 626 222 626 z "},"Ỳ":{"ha":572,"x_min":10,"x_max":522,"o":"m 231 906 q 274 863 256 906 q 218 576 218 710 l 218 529 q 297 374 218 374 q 436 729 399 374 q 465 894 436 894 l 488 897 q 522 850 517 897 l 522 382 q 375 -131 522 -56 q 292 -157 347 -146 q 14 -14 169 -157 l 10 3 q 57 43 10 35 l 167 -35 q 263 -69 231 -69 l 300 -69 q 439 360 439 -69 l 439 376 l 426 376 q 292 294 374 294 q 149 425 190 294 q 135 529 135 476 l 135 542 q 231 906 157 906 m 458 1019 q 424 978 453 981 q 342 1015 357 996 q 146 1143 146 1097 q 151 1158 146 1151 q 188 1200 156 1197 q 422 1061 251 1182 q 458 1019 456 1051 z "},"ỳ":{"ha":368,"x_min":-28,"x_max":360,"o":"m 71 417 q 138 203 119 417 q 172 104 161 104 l 181 104 q 215 278 215 192 l 207 374 q 250 411 222 411 q 301 229 301 411 q 332 -122 332 40 l 332 -187 q 163 -590 332 -486 l 132 -596 q -15 -449 53 -596 l -28 -365 l -28 -361 q 24 -269 -28 -269 l 58 -292 l 54 -379 q 119 -508 54 -443 l 138 -508 q 250 -217 214 -508 l 253 -136 q 242 43 251 4 q 154 -6 186 -6 q 28 374 83 -6 l 24 376 q 71 417 24 408 m 360 589 q 325 547 354 550 q 243 585 258 565 q 47 713 47 667 q 53 728 47 721 q 89 769 57 767 q 324 631 153 751 q 360 589 357 621 z "},"–":{"ha":582,"x_min":90,"x_max":481,"o":"m 189 382 l 440 399 q 481 356 475 399 q 350 313 481 313 q 181 299 254 299 q 90 350 90 310 q 128 394 90 378 l 181 382 l 189 382 z "},"—":{"ha":749,"x_min":90,"x_max":676,"o":"m 189 382 l 638 401 q 676 357 669 401 q 547 314 676 314 q 181 299 235 299 q 90 350 90 310 q 128 394 90 378 l 181 382 l 189 382 z "},"‘":{"ha":200,"x_min":44,"x_max":144,"o":"m 89 822 q 144 718 132 822 l 144 710 q 101 663 144 663 q 57 753 57 663 q 44 785 47 753 q 89 822 58 822 z "},"’":{"ha":200,"x_min":44,"x_max":144,"o":"m 89 822 q 144 718 132 822 l 144 710 q 101 663 144 663 q 57 753 57 663 q 44 785 47 753 q 89 822 58 822 z "},"‚":{"ha":200,"x_min":42,"x_max":140,"o":"m 85 183 q 140 79 128 183 l 140 71 q 97 24 140 24 q 54 114 54 24 q 42 146 44 114 q 85 183 56 183 z "},"“":{"ha":325,"x_min":31,"x_max":292,"o":"m 140 840 l 144 840 q 188 800 172 840 q 132 728 188 785 q 114 653 114 686 l 114 624 q 140 544 114 601 q 97 501 140 515 q 31 635 44 501 l 31 640 q 140 840 31 772 m 253 765 l 257 765 q 292 722 286 765 q 236 667 292 701 l 228 632 l 228 624 l 239 571 q 196 528 239 546 q 144 626 144 544 q 253 765 144 725 z "},"”":{"ha":325,"x_min":31,"x_max":292,"o":"m 140 840 l 144 840 q 188 800 172 840 q 132 728 188 785 q 114 653 114 686 l 114 624 q 140 544 114 601 q 97 501 140 515 q 31 635 44 501 l 31 640 q 140 840 31 772 m 253 765 l 257 765 q 292 722 286 765 q 236 667 292 701 l 228 632 l 228 624 l 239 571 q 196 528 239 546 q 144 626 144 544 q 253 765 144 725 z "},"„":{"ha":325,"x_min":47,"x_max":307,"o":"m 154 307 l 160 307 q 203 269 186 307 q 146 194 203 256 q 128 121 128 153 l 128 90 q 154 13 128 67 q 111 -32 154 -15 q 47 104 63 -32 l 47 107 q 154 307 47 238 m 267 235 l 272 235 q 307 190 300 235 q 250 133 307 174 l 242 99 l 242 90 l 256 38 q 211 -6 256 14 q 160 96 160 13 q 267 235 160 194 z "},"†":{"ha":493,"x_min":0,"x_max":478,"o":"m 190 843 q 229 804 229 835 l 221 743 l 221 725 q 235 596 221 664 l 238 596 q 438 644 399 644 q 478 604 478 633 q 382 557 478 557 l 238 506 q 278 -4 238 318 q 238 -42 269 -42 l 235 -42 q 186 83 186 -42 q 156 488 168 176 l 131 488 q 0 549 0 496 q 29 586 0 564 l 43 586 l 107 569 l 151 569 l 139 743 q 190 843 139 843 z "},"‡":{"ha":493,"x_min":0,"x_max":482,"o":"m 239 408 l 444 444 q 482 401 476 444 q 353 357 482 357 q 244 325 288 335 q 278 -4 253 181 q 238 -42 269 -42 l 235 -42 q 186 83 186 -42 q 165 308 174 147 q 131 307 153 307 q 40 360 40 318 q 78 403 40 383 l 131 389 l 139 389 l 160 392 l 156 488 l 131 488 q 0 549 0 496 q 29 586 0 564 l 43 586 l 107 569 l 151 569 l 139 743 q 190 843 139 843 q 229 804 229 835 l 221 743 l 221 725 q 235 596 221 664 l 238 596 q 438 644 399 644 q 478 604 478 633 q 382 557 478 557 l 238 506 q 239 408 238 443 z "},"•":{"ha":364,"x_min":72,"x_max":288,"o":"m 201 460 q 288 346 278 460 q 168 232 265 232 q 72 346 93 232 q 201 460 111 460 z "},"…":{"ha":763,"x_min":86,"x_max":682,"o":"m 139 82 q 174 35 168 82 q 125 -14 165 -14 q 86 35 97 -14 q 139 82 103 82 m 340 35 q 391 82 357 82 q 426 35 425 82 q 381 -14 418 -14 q 340 35 349 -14 m 647 82 q 682 35 676 82 q 633 -14 674 -14 q 596 35 604 -14 q 647 82 610 82 z "},"‹":{"ha":440,"x_min":54,"x_max":397,"o":"m 319 482 q 363 451 342 482 l 363 439 q 189 292 363 396 l 183 286 l 183 274 q 375 126 194 274 q 397 89 397 114 q 357 49 397 64 q 158 200 339 49 q 63 251 63 244 q 54 278 54 251 q 250 425 54 300 q 319 482 304 481 z "},"›":{"ha":453,"x_min":97,"x_max":397,"o":"m 149 485 q 375 357 185 432 l 397 328 q 228 132 397 299 q 167 50 175 50 l 149 44 q 111 79 111 54 q 263 276 113 139 q 285 311 285 299 l 279 311 q 97 453 97 408 q 149 485 97 476 z "},"⁄":{"ha":493,"x_min":76,"x_max":515,"o":"m 475 840 q 515 800 515 829 q 352 453 492 733 q 146 1 213 172 l 117 -7 q 76 33 76 0 q 432 806 76 78 q 475 840 444 840 z "},"€":{"ha":694,"x_min":-99,"x_max":668,"o":"m 519 842 q 456 817 519 817 q 417 818 438 817 q 119 578 174 783 l 114 543 l 194 549 q 242 501 242 540 q 211 467 242 479 l 104 458 l 96 389 l 228 403 q 253 381 243 397 l 253 363 q 153 315 253 315 q 83 301 129 308 l 82 286 l 82 256 q 211 86 82 111 l 269 86 q 619 272 414 86 l 625 272 q 668 225 663 272 q 593 142 636 142 q 236 0 394 0 q 13 174 78 0 l 0 272 l 0 293 q -99 354 -99 300 q -74 389 -99 369 l -64 389 l -15 381 l 7 381 l 17 453 q -89 514 -74 457 q -46 554 -74 554 l 21 536 l 29 536 q 119 756 57 660 q 450 899 213 899 q 481 899 465 899 q 519 842 519 863 z "},"™":{"ha":1196,"x_min":-7,"x_max":1179,"o":"m 297 876 l 714 903 q 749 868 732 903 q 626 815 749 815 l 383 801 l 378 799 q 413 -61 413 572 q 369 -122 406 -122 q 326 -67 332 -122 l 326 256 q 297 793 326 578 q 49 738 49 769 l 36 732 q -7 776 -7 744 q 297 876 -7 853 m 1017 1014 l 1022 1014 q 1057 974 1057 996 l 1022 710 q 1110 111 1022 561 l 1179 -62 q 1147 -103 1179 -79 l 1121 -103 q 1040 68 1092 -94 q 965 471 1001 203 l 957 471 q 843 224 876 232 l 822 218 q 749 332 792 218 l 739 332 q 675 -11 722 -11 l 669 -11 q 624 58 626 -11 q 658 336 658 192 l 618 704 l 618 731 q 658 783 618 783 q 753 571 708 783 q 826 363 814 375 q 892 540 860 411 q 939 744 918 610 l 936 749 l 939 771 l 939 779 q 1017 1014 953 1014 z "},"−":{"ha":582,"x_min":90,"x_max":481,"o":"m 189 382 l 440 399 q 481 356 475 399 q 350 313 481 313 q 181 299 254 299 q 90 350 90 310 q 128 394 90 378 l 181 382 l 189 382 z "},"":{"ha":524,"x_min":175,"x_max":326,"o":"m 225 -222 q 268 -151 225 -151 q 306 -160 285 -151 l 326 -293 q 211 -414 251 -414 q 175 -354 185 -414 l 232 -292 q 225 -222 225 -251 z "},"ﬁ":{"ha":494,"x_min":0,"x_max":464,"o":"m 399 464 q 438 424 422 464 l 425 325 l 425 258 q 464 -40 425 144 q 417 -67 450 -67 q 342 267 361 -67 l 342 300 q 208 264 306 276 l 243 38 q 194 0 243 8 q 151 133 151 0 l 125 251 l 35 238 q 0 281 6 238 q 113 333 0 322 l 107 419 q 243 625 129 625 q 333 486 308 625 l 333 481 q 290 443 333 449 q 243 529 256 443 l 238 533 l 221 533 q 190 417 190 489 l 194 347 q 315 376 250 347 q 343 364 328 376 q 399 464 353 464 m 347 658 q 399 611 399 649 q 356 571 383 571 q 304 624 304 581 q 347 658 318 658 z "},"ﬂ":{"ha":501,"x_min":0,"x_max":438,"o":"m 385 707 q 424 663 424 693 l 438 133 l 438 -36 q 397 -83 438 -83 l 381 -83 q 354 -46 354 -69 l 354 117 l 349 307 q 208 264 317 276 l 243 38 q 194 0 243 8 q 151 133 151 0 l 125 251 l 35 238 q 0 281 6 238 q 113 333 0 322 l 107 419 q 243 625 129 625 q 333 486 308 625 l 333 481 q 290 443 333 449 q 243 529 256 443 l 238 533 l 221 533 q 190 417 190 489 l 194 347 q 315 376 250 347 q 349 360 333 376 l 342 667 q 385 707 342 701 z "}}}
